<?xml version="1.0" encoding="UTF-8" standalone="no"?>
<!-- Created with Inkscape (http://www.inkscape.org/) -->
<svg
   xmlns:dc="http://purl.org/dc/elements/1.1/"
   xmlns:cc="http://web.resource.org/cc/"
   xmlns:rdf="http://www.w3.org/1999/02/22-rdf-syntax-ns#"
   xmlns:svg="http://www.w3.org/2000/svg"
   xmlns="http://www.w3.org/2000/svg"
   xmlns:xlink="http://www.w3.org/1999/xlink"
   version="1.0"
   width="251"
   height="304.20001"
   id="svg4166">
  <defs
     id="defs4168" />
  <metadata
     id="metadata1880"><rdf:RDF><cc:Work
         rdf:about=""><dc:title>Blekinge landskaps- och lansvapen</dc:title><dc:date>06-01-2008</dc:date><dc:creator><cc:Agent><dc:title>Lokal_Profil</dc:title></cc:Agent></dc:creator><cc:license
         rdf:resource="http://creativecommons.org/licenses/by-sa/2.5/" /><dc:rights><cc:Agent><dc:title>cc-by-sa-2.5</dc:title></cc:Agent></dc:rights><dc:format>image/svg+xml</dc:format><dc:type
         rdf:resource="http://purl.org/dc/dcmitype/StillImage" /></cc:Work><cc:License
         rdf:about="http://creativecommons.org/licenses/by-sa/2.5/"><cc:permits
         rdf:resource="http://web.resource.org/cc/Reproduction" /><cc:permits
         rdf:resource="http://web.resource.org/cc/Distribution" /><cc:requires
         rdf:resource="http://web.resource.org/cc/Notice" /><cc:requires
         rdf:resource="http://web.resource.org/cc/Attribution" /><cc:permits
         rdf:resource="http://web.resource.org/cc/DerivativeWorks" /><cc:requires
         rdf:resource="http://web.resource.org/cc/ShareAlike" /></cc:License></rdf:RDF>
  </metadata>
  <path
     d="M 249.55058,1.4395041 L 125.50008,1.4395041 L 1.4495291,1.4395041 L 1.4495291,174.9361 C 0.68228908,268.65698 81.738969,302.75585 125.50006,302.75585 C 168.49391,302.75585 250.31781,268.65698 249.55058,174.9361 L 249.55058,1.4395041 z "
     style="fill:#003d8f;stroke:none"
     id="Shield" />
  <g
     transform="translate(3.699417e-5,-17.20451)"
     style="fill:#ffcd50"
     id="Oak-tree">
    <path
       d="M 95.196964,146.52557 C 95.196964,145.51547 95.196964,144.50537 95.702017,142.48517 C 96.207065,140.46496 97.217166,137.43466 99.237367,135.41446 C 101.25757,133.39426 104.28788,132.38416 106.30808,132.88921 C 108.32828,133.39426 109.33838,135.41446 110.34848,137.93971 C 111.35858,140.46496 112.24228,143.49753 112.36868,147.03062 C 113.19853,170.22701 115.05167,246.54947 112.87374,269.27304 C 112.36868,273.31344 111.35858,276.34374 108.83333,275.8387 C 106.30808,275.33364 102.26767,271.29324 98.227267,271.29324 C 94.186863,271.29324 90.146459,275.33364 85.601007,275.33364 C 81.05555,275.33364 76.005045,271.29324 71.964639,270.28314 C 67.924235,269.27304 64.893932,271.29324 61.863629,271.79829 C 58.833326,272.30334 55.803023,271.29324 54.287871,271.29324 C 52.77272,271.29324 52.77272,272.30334 53.782821,273.31344 C 54.792922,274.32354 56.813124,275.33364 58.833326,275.8387 C 60.853528,276.34374 62.87373,276.34374 63.883831,276.8488 C 64.893932,277.35384 64.893932,278.36395 64.388881,279.37405 C 63.883831,280.38415 62.87373,281.39425 62.87373,281.8993 C 62.87373,282.40435 63.883831,282.40435 65.398982,281.39425 C 66.914134,280.38415 68.934336,278.36395 70.449487,277.35384 C 71.964639,276.34374 72.97474,276.34374 72.97474,276.8488 C 72.97474,277.35384 71.964639,278.36395 72.469689,278.869 C 72.97474,279.37405 74.994942,279.37405 76.005045,279.8791 C 77.015146,280.38415 77.015146,281.39425 76.005045,282.9094 C 74.994942,284.42455 72.97474,286.44475 72.97474,287.45485 C 72.97474,288.46496 74.994942,288.46496 77.015146,287.45485 C 79.035348,286.44475 81.05555,284.42455 82.570704,283.9195 C 84.085853,283.41445 85.095954,284.42455 86.106055,284.42455 C 87.116156,284.42455 88.126257,283.41445 88.63131,283.9195 C 89.136358,284.42455 89.136358,286.44475 88.126257,288.46496 C 87.116156,290.48516 85.095954,292.50536 84.085853,294.02051 C 83.075752,295.53566 83.075752,296.54576 84.590906,296.54576 C 86.106055,296.54576 89.136358,295.53566 91.15656,296.04072 C 93.176762,296.54576 94.186863,298.56597 95.196964,299.57607 C 96.207065,300.58617 97.217166,300.58617 97.722219,300.08112 C 98.227267,299.57607 98.227267,298.56597 97.217166,297.05082 C 96.207065,295.53566 94.186863,293.51546 93.681815,290.99021 C 93.176762,288.46496 94.186863,285.43465 95.196964,283.41445 C 96.207065,281.39425 97.217166,280.38415 98.227267,280.38415 C 99.237367,280.38415 100.24747,281.39425 100.75253,282.9094 C 101.25757,284.42455 101.25757,286.44475 101.76263,287.45485 C 102.26767,288.46496 103.27778,288.46496 103.78283,287.45485 C 104.28788,286.44475 104.28788,284.42455 105.29798,283.9195 C 106.30808,283.41445 108.32828,284.42455 109.84343,284.9296 C 111.35858,285.43465 112.36868,285.43465 112.36868,286.44475 C 112.36868,287.45485 111.35858,289.47506 109.84343,290.99021 C 108.32828,292.50536 106.30808,293.51546 105.29798,295.53566 C 104.28788,297.55586 104.28788,300.58617 104.79293,302.10132 C 105.29798,303.61647 106.30808,303.61647 106.81313,302.60637 C 107.31818,301.59627 107.31818,299.57607 108.32828,298.06092 C 109.33838,296.54576 111.35858,295.53566 112.87374,295.53566 C 114.38889,295.53566 115.39899,296.54576 115.90404,298.06092 C 116.40909,299.57607 116.40909,301.59627 117.41919,302.10132 C 118.42929,302.60637 120.44949,301.59627 120.44949,299.07102 C 120.44949,296.54576 118.42929,292.50536 118.42929,288.97001 C 118.42929,285.43465 120.44949,282.40435 121.96465,280.8892 C 123.47979,279.37405 124.4899,279.37405 126.00505,279.8791 C 127.5202,280.38415 129.5404,281.39425 131.05555,282.9094 C 132.5707,284.42455 133.5808,286.44475 133.07575,287.95991 C 132.5707,289.47506 130.5505,290.48516 129.03535,292.00031 C 127.5202,293.51546 126.5101,295.53566 126.5101,298.06092 C 126.5101,300.58617 127.5202,303.61647 128.02525,304.12152 C 128.5303,304.62657 128.5303,302.60637 129.5404,300.58617 C 130.5505,298.56597 132.5707,296.54576 134.08586,295.53566 C 135.601,294.52556 136.61111,294.52556 137.62121,295.03061 C 138.63131,295.53566 139.64141,296.54576 139.64141,298.56597 C 139.64141,300.58617 138.63131,303.61647 139.64141,304.12152 C 140.65151,304.62657 143.68181,302.60637 144.18687,299.57607 C 144.69191,296.54576 142.67171,292.50536 141.15656,289.47506 C 139.64141,286.44475 138.63131,284.42455 140.14646,283.9195 C 141.66161,283.41445 145.70201,284.42455 147.21717,285.43465 C 148.73232,286.44475 147.72222,287.45485 148.22727,287.95991 C 148.73232,288.46496 150.75252,288.46496 151.76262,287.45485 C 152.77272,286.44475 152.77272,284.42455 153.27777,283.41445 C 153.78282,282.40435 154.79292,282.40435 155.80302,283.41445 C 156.81313,284.42455 157.82323,286.44475 156.81313,288.97001 C 155.80302,291.49526 152.77272,294.52556 151.76262,297.05082 C 150.75252,299.57607 151.76262,301.59627 152.77272,302.10132 C 153.78282,302.60637 154.79292,301.59627 155.80302,300.08112 C 156.81313,298.56597 157.82323,296.54576 159.33838,296.04072 C 160.85353,295.53566 162.87373,296.54576 164.38889,296.54576 C 165.90403,296.54576 166.91414,295.53566 166.91414,294.52556 C 166.91414,293.51546 165.90403,292.50536 164.89393,292.00031 C 163.88383,291.49526 162.87373,291.49526 162.36868,289.98011 C 161.86363,288.46496 161.86363,285.43465 161.35858,283.41445 C 160.85353,281.39425 159.84343,280.38415 160.85353,280.38415 C 161.86363,280.38415 164.89393,281.39425 166.91414,281.8993 C 168.93434,282.40435 169.94444,282.40435 170.95454,283.41445 C 171.96464,284.42455 172.97474,286.44475 172.97474,287.95991 C 172.97474,289.47506 171.96464,290.48516 171.96464,291.49526 C 171.96464,292.50536 172.97474,293.51546 173.98484,293.01041 C 174.99494,292.50536 176.00504,290.48516 177.5202,289.47506 C 179.03535,288.46496 181.05555,288.46496 182.06565,287.95991 C 183.07575,287.45485 183.07575,286.44475 182.06565,285.93971 C 181.05555,285.43465 179.03535,285.43465 177.5202,284.42455 C 176.00504,283.41445 174.99494,281.39425 175.5,280.8892 C 176.00504,280.38415 178.02525,281.39425 179.5404,280.8892 C 181.05555,280.38415 182.06565,278.36395 184.08585,277.8589 C 186.10605,277.35384 189.13636,278.36395 192.16666,277.8589 C 195.19696,277.35384 198.22727,275.33364 199.23737,273.81849 C 200.24747,272.30334 199.23737,271.29324 197.72222,271.79829 C 196.20706,272.30334 194.18686,274.32354 191.15656,274.32354 C 188.12626,274.32354 184.08585,272.30334 180.04545,272.80839 C 176.00504,273.31344 171.96464,276.34374 167.92424,275.8387 C 163.88383,275.33364 159.84343,271.29324 156.30808,270.78819 C 152.77272,270.28314 149.74242,273.31344 146.71212,273.81849 C 143.68181,274.32354 139.44693,272.90744 138.63131,269.77809 C 135.08963,256.18945 134.92207,161.24746 135.50237,146.02052 C 135.63837,142.45187 137.62121,138.44476 139.13636,136.42456 C 140.65151,134.40436 143.68181,134.40436 146.71212,135.41446 C 149.74242,136.42456 152.77272,138.44476 154.28788,140.46496 C 155.80302,142.48517 155.80302,144.50537 156.30808,145.51547 C 156.81313,146.52557 157.82323,146.52557 158.32828,146.02052 C 158.83333,145.51547 158.83333,144.50537 158.83333,142.99022 C 158.83333,141.47506 158.83333,139.45486 157.31818,137.43466 C 155.80302,135.41446 152.77272,133.39426 151.25757,131.87911 C 149.74242,130.36395 149.74242,129.35385 151.25757,128.8488 C 152.77272,128.34375 155.80302,128.34375 157.82323,128.8488 C 159.84343,129.35385 160.85353,130.36395 161.86363,131.37405 L 162.80639,132.45149 C 164.0633,134.33702 165.32053,136.22254 167.31817,136.79493 C 169.31582,137.36732 172.05454,136.62658 173.28888,138.5121 C 174.52356,140.39763 174.2542,144.90941 176.2633,145.49291 C 178.27205,146.07675 182.55959,142.73197 184.6808,145.12254 C 186.80202,147.51311 186.75689,155.63903 189.12525,157.58045 C 191.49326,159.5222 196.2744,155.27977 198.28349,155.85216 C 200.29225,156.42455 199.52928,161.81176 200.96565,164.39324 C 202.40235,166.97439 206.03871,166.75014 207.22828,165.69492 C 208.41817,164.64004 207.16094,162.75452 208.53029,162.38415 C 209.89966,162.01378 213.89494,163.15856 216.15083,163.29324 C 218.40672,163.42792 218.92322,162.5525 219.43939,161.67708 C 219.95555,160.80166 220.47205,159.92624 219.22626,158.04071 C 217.98046,156.15519 214.97238,153.25958 214.60201,151.8791 C 214.23164,150.49864 216.49898,150.63331 216.82423,149.07338 C 217.14982,147.51311 215.53366,144.25857 212.58181,144.30335 C 209.63029,144.34813 205.34276,147.69291 203.83905,146.2451 C 202.33501,144.79728 203.61447,138.55688 200.7414,137.47944 C 197.86801,136.402 190.84242,140.48752 187.71111,139.84779 C 184.57979,139.20806 185.34275,133.84308 183.83905,132.39527 C 182.33501,130.94746 178.56397,133.41682 176.31918,133.28214 C 174.07474,133.14745 173.35622,130.40874 171.86363,128.97237 C 170.37104,127.53567 168.1037,127.40099 165.8367,127.26631 L 159.50673,125.31345 C 156.47643,125.31345 153.44612,125.31345 151.93097,124.8084 C 150.41582,124.30335 150.41582,123.29325 150.92087,122.28315 C 151.42592,121.27304 152.43602,120.26294 153.44612,119.75789 C 154.45622,119.25284 155.46632,119.25284 156.98148,119.25284 C 158.49663,119.25284 160.51683,119.25284 162.53703,119.25284 L 161.86363,119.25284 C 163.88383,120.26294 165.90403,121.27304 167.92424,120.76799 C 169.94444,120.26294 171.96464,118.24274 173.98484,119.25284 C 176.00504,120.26294 178.02525,124.30335 180.04545,123.7983 C 182.06565,123.29325 184.08585,118.24274 187.11616,119.25284 C 190.14646,120.26294 194.18686,127.33365 197.21716,127.8387 C 200.24747,128.34375 202.26767,122.28315 204.28787,121.7781 C 206.30807,121.27304 208.32828,126.32355 210.85353,127.8387 C 213.37878,129.35385 216.40908,127.33365 216.91414,125.8185 C 217.41918,124.30335 215.39898,123.29325 216.40908,122.28315 C 217.41918,121.27304 221.45959,120.26294 223.47979,119.25284 C 225.49999,118.24274 225.49999,117.23264 225.49999,116.22254 C 225.49999,115.21244 225.49999,114.20233 223.47979,113.19223 C 221.45959,112.18213 217.41918,111.17203 216.40908,110.16193 C 215.39898,109.15183 217.41918,108.14173 216.91414,106.62658 C 216.40908,105.11142 213.37878,103.09122 210.85353,104.60638 C 208.32828,106.12153 206.30807,111.17203 204.28787,110.66698 C 202.26767,110.16193 200.24747,104.10132 197.21716,104.60638 C 194.18686,105.11142 190.14646,112.18213 187.11616,113.19223 C 184.08585,114.20233 182.06565,109.15183 180.04545,108.64678 C 178.02525,108.14173 176.00504,112.18213 173.98484,113.19223 C 171.96464,114.20233 169.94444,112.18213 167.92424,111.67708 C 165.90403,111.17203 163.88383,112.18213 161.86363,113.19223 L 162.53703,113.19223 C 160.51683,114.20233 158.49663,115.21244 157.48653,115.21244 C 156.47643,115.21244 156.47643,114.20233 156.98148,113.19223 C 157.48653,112.18213 158.49663,111.17203 160.51683,110.16193 C 162.53703,109.15183 165.56733,108.14173 168.59764,107.13163 L 169.06902,106.66025 C 171.3138,106.34611 173.55824,106.03163 174.91649,104.4717 C 176.27441,102.91176 176.74578,100.1057 178.96801,99.768997 C 181.19023,99.432297 185.16329,101.56496 186.53265,99.993577 C 187.90168,98.422197 186.66733,93.147447 189.73131,92.238357 C 192.79528,91.329267 200.15757,94.785837 202.92996,93.461597 C 205.70201,92.137347 203.88383,86.031627 205.25319,84.460577 C 206.62221,82.889197 211.17911,85.852167 214.11952,85.639027 C 217.05992,85.425567 218.3845,82.036337 217.92424,80.509737 C 217.46397,78.983477 215.21952,79.320177 215.46632,77.917147 C 215.71312,76.514457 218.45185,73.371697 219.52928,71.385167 C 220.60672,69.398627 220.02289,68.568327 219.43939,67.737687 C 218.85588,66.907047 218.27205,66.076747 216.03871,66.401997 C 213.80538,66.727587 209.92188,68.209067 208.51918,67.962267 C 207.11616,67.715127 208.19359,65.740047 206.91414,64.797287 C 205.63467,63.854517 201.99831,63.944087 200.7973,66.637687 C 199.59663,69.331287 200.83097,74.628927 198.87811,75.369677 C 196.92525,76.110407 191.78518,72.294257 189.59663,74.438017 C 187.40807,76.581797 188.17104,84.684827 186.26329,87.255197 C 184.35521,89.825227 179.77609,86.862267 177.82323,87.614117 C 175.87036,88.366307 176.54376,92.832977 175.47744,94.819507 C 174.41144,96.806037 171.60538,96.312427 169.66397,97.064287 C 167.72222,97.816137 166.64477,99.814117 165.56733,101.81176 L 165.56733,104.10132 C 163.54713,105.11142 161.52693,106.12153 161.02188,105.61648 C 160.51683,105.11142 161.52693,103.09122 162.53703,101.07102 L 162.87373,100.59964 C 164.22053,98.804017 165.56733,97.008057 165.42154,94.931967 C 165.27542,92.855527 163.63703,90.498627 164.98383,88.680447 C 166.33063,86.862267 170.66262,85.582807 170.51683,83.506377 C 170.37104,81.430277 165.7468,78.556877 167.2734,75.751157 C 168.79966,72.945427 176.47643,70.206707 177.49764,67.311087 C 178.51918,64.415467 172.88484,61.362937 172.73905,59.286507 C 172.59326,57.210077 177.93535,56.110417 179.86598,53.888187 C 181.79629,51.665967 180.31481,48.321187 178.90067,47.558227 C 177.48653,46.794927 176.13973,48.613107 175.32053,47.445767 C 174.50101,46.278767 174.20942,42.125897 173.56969,39.959907 C 172.92996,37.793917 171.94208,37.614117 170.95454,37.434657 C 169.967,37.255197 168.97912,37.075397 167.63232,38.893577 C 166.28552,40.711757 164.57979,44.527927 163.40134,45.347117 C 162.22289,46.166307 161.57171,43.989197 159.98922,44.224887 C 158.40673,44.460577 155.89292,47.109067 156.94781,49.858897 C 158.00269,52.608727 162.62693,55.459237 161.78518,57.356207 C 160.94343,59.252837 154.63569,60.195597 154.61346,63.270687 C 154.5909,66.346107 160.85353,71.553507 161.32491,74.707387 C 161.79629,77.861257 156.47643,78.960917 155.62356,80.857887 C 154.77036,82.754517 158.38451,85.448127 159.02424,87.614117 C 159.66396,89.780447 157.32929,91.418827 156.48754,93.326907 C 155.64579,95.234997 156.29696,97.412097 156.94781,99.589537 L 156.47643,101.07102 C 156.47643,103.09122 156.47643,105.11142 155.46632,107.63668 C 154.45622,110.16193 152.43602,113.19223 149.91077,116.72759 C 147.38552,120.26294 144.35521,124.30335 142.33501,126.32355 C 140.31481,128.34375 139.30471,128.34375 137.78956,128.34375 C 136.27441,128.34375 134.2542,128.34375 133.2441,127.33365 C 132.234,126.32355 132.234,124.30335 133.2441,122.7882 C 134.2542,121.27304 136.27441,120.26294 137.78956,119.25284 C 139.30471,118.24274 140.31481,117.23264 141.32491,115.71749 C 142.33501,114.20233 143.34511,112.18213 143.85017,110.66698 C 144.35521,109.15183 144.35521,108.14173 144.35521,107.13163 L 141.32491,104.10132 C 141.32491,106.12153 141.32491,108.14173 140.31481,110.16193 C 139.30471,112.18213 137.28451,114.20233 135.2643,115.71749 C 133.2441,117.23264 131.2239,118.24274 130.71885,117.73769 C 130.2138,117.23264 131.2239,115.21244 132.234,113.19223 C 133.2441,111.17203 134.2542,109.15183 134.2542,108.14173 C 134.2542,107.13163 133.2441,107.13163 132.234,106.62658 C 131.2239,106.12153 130.2138,105.11142 129.2037,104.10132 L 128.5303,104.10132 C 130.5505,101.07102 132.5707,98.040717 132.5707,95.010417 C 132.5707,91.980107 130.5505,88.949807 131.5606,86.424557 C 132.5707,83.899297 136.61111,81.879097 136.61111,79.858897 C 136.61111,77.838697 132.5707,75.818497 133.5808,72.788187 C 134.5909,69.757887 140.65151,65.717487 140.65151,62.687177 C 140.65151,59.656877 134.5909,57.636677 134.08586,55.616477 C 133.5808,53.596277 138.63131,51.576067 140.14646,49.050817 C 141.66161,46.525567 139.64141,43.495267 137.62121,42.990207 C 135.601,42.485167 133.5808,44.505367 132.06565,43.495267 C 130.5505,42.485167 129.5404,38.444757 128.5303,36.424557 C 127.5202,34.404357 126.5101,34.404357 125.5,34.404357 C 124.4899,34.404357 123.47979,34.404357 122.46969,36.424557 C 121.45959,38.444757 120.44949,42.485167 118.93434,43.495267 C 117.41919,44.505367 115.39899,42.485167 113.37878,42.990207 C 111.35858,43.495267 109.33838,46.525567 110.85353,49.050817 C 112.36868,51.576067 117.41919,53.596277 116.91414,55.616477 C 116.40909,57.636677 110.34848,59.656877 110.34848,62.687177 C 110.34848,65.717487 116.40909,69.757887 117.41919,72.788187 C 118.42929,75.818497 114.38889,77.838697 114.38889,79.858897 C 114.38889,81.879097 118.42929,83.899297 119.43939,86.424557 C 120.44949,88.949807 118.42929,91.980107 118.42929,95.010417 C 118.42929,98.040717 120.44949,101.07102 122.46969,104.10132 L 122.46969,104.10132 C 121.45959,105.11142 120.44949,106.12153 119.43939,106.62658 C 118.42929,107.13163 117.41919,107.13163 117.41919,108.14173 C 117.41919,109.15183 118.42929,111.17203 119.43939,113.19223 C 120.44949,115.21244 121.45959,117.23264 120.95454,117.73769 C 120.44949,118.24274 118.42929,117.23264 116.40909,115.71749 C 114.38889,114.20233 112.36868,112.18213 111.35858,110.16193 C 110.34848,108.14173 110.34848,106.12153 110.34848,104.10132 L 107.31818,107.13163 C 107.31818,108.14173 107.31818,109.15183 107.82323,110.66698 C 108.32828,112.18213 109.33838,114.20233 110.34848,115.71749 C 111.35858,117.23264 112.36868,118.24274 113.88384,119.25284 C 115.39899,120.26294 117.41919,121.27304 118.42929,122.7882 C 119.43939,124.30335 119.43939,126.32355 118.42929,127.33365 C 117.41919,128.34375 115.39899,128.34375 113.88384,128.34375 C 112.36868,128.34375 111.35858,128.34375 109.33838,126.32355 C 107.31818,124.30335 104.28788,120.26294 101.76263,116.72759 C 99.237367,113.19223 97.217166,110.16193 96.207065,107.63668 C 95.196964,105.11142 95.196964,103.09122 95.196964,101.07102 L 94.052182,99.589537 C 94.703027,97.412097 95.3542,95.234997 94.512452,93.326907 C 93.670699,91.418827 91.336024,89.780447 91.975753,87.614117 C 92.615482,85.448127 96.229625,82.754517 95.376427,80.857887 C 94.523563,78.960917 89.203696,77.861257 89.675077,74.707387 C 90.146459,71.553507 96.409084,66.346107 96.386528,63.270687 C 96.364301,60.195597 90.05656,59.252837 89.214807,57.356207 C 88.373059,55.459237 92.997298,52.608727 94.052182,49.858897 C 95.107065,47.109067 92.59326,44.460577 91.010768,44.224887 C 89.428276,43.989197 88.777097,46.166307 87.598648,45.347117 C 86.420195,44.527927 84.714471,40.711757 83.36767,38.893577 C 82.020868,37.075397 81.03299,37.255197 80.045449,37.434657 C 79.057909,37.614117 78.07003,37.793917 77.430296,39.959907 C 76.790566,42.125897 76.498982,46.278767 75.679456,47.445767 C 74.860261,48.613107 73.51346,46.794927 72.099319,47.558227 C 70.685177,48.321187 69.203696,51.665967 71.133999,53.888187 C 73.064639,56.110417 78.40673,57.210077 78.260938,59.286507 C 78.115146,61.362937 72.4808,64.415467 73.502349,67.311087 C 74.523561,70.206707 82.200332,72.945427 83.726592,75.751157 C 85.253191,78.556877 80.628951,81.430277 80.483159,83.506377 C 80.337367,85.582807 84.669355,86.862267 86.016156,88.680447 C 87.362958,90.498627 85.724572,92.855527 85.578447,94.931967 C 85.432654,97.008057 86.779456,98.804017 88.126257,100.59964 L 89.136358,101.07102 C 90.146459,103.09122 91.15656,105.11142 90.651512,105.61648 C 90.146459,106.12153 88.126257,105.11142 86.106055,104.10132 L 85.432654,101.81176 C 84.355215,99.814117 83.277771,97.816137 81.336023,97.064287 C 79.394609,96.312427 76.588542,96.806037 75.522553,94.819507 C 74.456221,92.832977 75.129622,88.366307 73.17676,87.614117 C 71.223898,86.862267 66.644773,89.825227 64.736693,87.255197 C 62.828949,84.684827 63.591912,76.581797 61.403359,74.438017 C 59.214807,72.294257 54.07474,76.110407 52.121878,75.369677 C 50.169016,74.628927 51.40336,69.331287 50.202686,66.637687 C 49.001676,63.944087 45.365313,63.854517 44.085852,64.797287 C 42.80639,65.740047 43.883831,67.715127 42.480801,67.962267 C 41.078108,68.209067 37.194606,66.727587 34.961276,66.401997 C 32.727936,66.076747 32.144106,66.907047 31.560596,67.737687 C 30.977096,68.568327 30.393256,69.398627 31.470696,71.385167 C 32.548146,73.371697 35.286866,76.514457 35.533666,77.917147 C 35.780465,79.320177 33.536016,78.983477 33.075746,80.509737 C 32.615486,82.036337 33.940056,85.425567 36.880465,85.639027 C 39.820868,85.852167 44.377771,82.889197 45.746794,84.460577 C 47.116155,86.031627 45.297973,92.137347 48.070026,93.461597 C 50.842417,94.785837 58.204706,91.329267 61.268679,92.238357 C 64.332652,93.147447 63.098309,98.422197 64.467332,99.993577 C 65.836693,101.56496 69.809757,99.432297 72.031979,99.768997 C 74.254201,100.1057 74.725581,102.91176 76.083494,104.4717 C 77.441745,106.03163 79.686188,106.34611 81.93097,106.66025 L 83.075752,107.13163 C 86.106055,108.14173 89.136358,109.15183 91.15656,110.16193 C 93.176762,111.17203 94.186863,112.18213 94.691916,113.19223 C 95.196964,114.20233 95.196964,115.21244 94.186863,115.21244 C 93.176762,115.21244 91.15656,114.20233 89.136358,113.19223 L 89.136358,113.19223 C 87.116156,112.18213 85.095954,111.17203 83.075752,111.67708 C 81.05555,112.18213 79.035348,114.20233 77.015146,113.19223 C 74.994942,112.18213 72.97474,108.14173 70.954538,108.64678 C 68.934336,109.15183 66.914134,114.20233 63.883831,113.19223 C 60.853528,112.18213 56.813124,105.11142 53.782821,104.60638 C 50.752518,104.10132 48.732316,110.16193 46.712114,110.66698 C 44.691912,111.17203 42.67171,106.12153 40.146458,104.60638 C 37.621205,103.09122 34.590906,105.11142 34.085856,106.62658 C 33.580806,108.14173 35.601003,109.15183 34.590906,110.16193 C 33.580806,111.17203 29.540396,112.18213 27.520196,113.19223 C 25.499996,114.20233 25.499996,115.21244 25.499996,116.22254 C 25.499996,117.23264 25.499996,118.24274 27.520196,119.25284 C 29.540396,120.26294 33.580806,121.27304 34.590906,122.28315 C 35.601003,123.29325 33.580806,124.30335 34.085856,125.8185 C 34.590906,127.33365 37.621205,129.35385 40.146458,127.8387 C 42.67171,126.32355 44.691912,121.27304 46.712114,121.7781 C 48.732316,122.28315 50.752518,128.34375 53.782821,127.8387 C 56.813124,127.33365 60.853528,120.26294 63.883831,119.25284 C 66.914134,118.24274 68.934336,123.29325 70.954538,123.7983 C 72.97474,124.30335 74.994942,120.26294 77.015146,119.25284 C 79.035348,118.24274 81.05555,120.26294 83.075752,120.76799 C 85.095954,121.27304 87.116156,120.26294 89.136358,119.25284 L 89.136358,119.25284 C 91.15656,119.25284 93.176762,119.25284 94.691916,119.25284 C 96.207065,119.25284 97.217166,119.25284 98.227267,119.75789 C 99.237367,120.26294 100.24747,121.27304 100.75253,122.28315 C 101.25757,123.29325 101.25757,124.30335 99.742417,124.8084 C 98.227267,125.31345 95.196964,125.31345 92.166661,125.31345 L 85.163292,127.26631 C 82.896288,127.40099 80.628951,127.53567 79.136358,128.97237 C 77.643764,130.40874 76.925243,133.14745 74.6808,133.28214 C 72.436019,133.41682 68.664975,130.94746 67.160935,132.39527 C 65.657231,133.84308 66.420194,139.20806 63.288881,139.84779 C 60.157568,140.48752 53.131979,136.402 50.258579,137.47944 C 47.385515,138.55688 48.664976,144.79728 47.160936,146.2451 C 45.657232,147.69291 41.36969,144.34813 38.418175,144.30335 C 35.466326,144.25857 33.850166,147.51311 34.175746,149.07338 C 34.501006,150.63331 36.768343,150.49864 36.397973,151.8791 C 36.027603,153.25958 33.019526,156.15519 31.773726,158.04071 C 30.527936,159.92624 31.044436,160.80166 31.560596,161.67708 C 32.076756,162.5525 32.593256,163.42792 34.849156,163.29324 C 37.105044,163.15856 41.10033,162.01378 42.46969,162.38415 C 43.83905,162.75452 42.581811,164.64004 43.77171,165.69492 C 44.961272,166.75014 48.597636,166.97439 50.034336,164.39324 C 51.4707,161.81176 50.707737,156.42455 52.716491,155.85216 C 54.725582,155.27977 59.506727,159.5222 61.87474,157.58045 C 64.24309,155.63903 64.197972,147.51311 66.319184,145.12254 C 68.440396,142.73197 72.727938,146.07675 74.736692,145.49291 C 76.745784,144.90941 76.476422,140.39763 77.711107,138.5121 C 78.94545,136.62658 81.684168,137.36732 83.681815,136.79493 C 85.679456,136.22254 86.936692,134.33702 88.193595,132.45149 L 89.136358,131.37405 C 90.146459,130.36395 91.15656,129.35385 93.176762,128.8488 C 95.196964,128.34375 98.227267,128.34375 99.742417,128.8488 C 101.25757,129.35385 101.25757,130.36395 99.742417,131.87911 C 98.227267,133.39426 95.196964,135.41446 93.681815,137.43466 C 92.166661,139.45486 92.166661,141.47506 92.166661,142.99022 C 92.166661,144.50537 92.166661,145.51547 92.166661,146.52557 L 95.196964,146.52557 z "
       id="Trunk" />
    <use
       transform="translate(64.64618,1.8359e-5)"
       id="Ollon2"
       x="0"
       y="0"
       width="251"
       height="304.20001"
       xlink:href="#Ollon" />
    <use
       transform="matrix(0.951057,-0.309017,-0.309017,-0.951057,64.53788,270.8191)"
       id="Ollon3"
       x="0"
       y="0"
       width="251"
       height="304.20001"
       xlink:href="#Ollon" />
    <use
       transform="matrix(-1,0,0,1,251.795,0)"
       id="Ollon4"
       x="0"
       y="0"
       width="251"
       height="304.20001"
       xlink:href="#Ollon3" />
    <g
       transform="matrix(0.505045,0,0,0.505048,24.99526,100.0341)"
       id="Ollon">
      <path
         d="M 117.48957,110.74999 L 153.48975,110.74999 C 153.48975,106.74997 153.48975,102.74995 151.48974,98.74993 C 149.48973,94.749905 145.48971,90.749885 141.48969,88.749875 C 137.48967,86.749865 133.48965,86.749865 129.48963,88.749875 C 125.48961,90.749885 121.48959,94.749905 119.48958,98.74993 C 117.48957,102.74995 117.48957,106.74997 117.48957,110.74999 z "
         id="path2772" />
      <path
         d="M 123.4896,105.17307 C 123.4896,111.1731 123.4896,122.75005 124.48961,126.75007 C 125.48961,130.75009 127.48962,132.7501 129.48963,135.75012 C 131.48964,138.75013 133.48965,142.75015 135.48966,142.75015 C 137.48967,142.75015 139.48968,138.75013 141.48969,135.75012 C 143.4897,132.7501 145.48971,130.75009 146.48972,126.75007 C 147.48972,122.75005 147.48972,111.1731 147.48972,105.17307"
         id="path2774" />
    </g>
  </g>
  <path
     d="M 99.659372,222.81152 C 103.36022,228.05037 105.59084,234.1846 106.11953,240.57697 L 106.11953,250.26722 C 118.95015,248.11383 132.04993,248.11383 144.88054,250.26722 L 144.88054,240.57697 C 145.40923,234.1846 147.63985,228.05037 151.3407,222.81152 C 149.76022,221.37444 147.32966,221.43217 145.81918,222.94263 C 144.30871,224.45311 144.25098,226.88368 145.68807,228.46416 L 144.52361,231.02579 C 143.84211,229.69914 142.34088,229.01157 140.8912,229.36216 C 139.44152,229.71272 138.42036,231.0103 138.42038,232.50176 C 138.42038,233.49528 138.87762,234.43354 139.66012,235.04573 C 140.44261,235.65794 141.46331,235.87597 142.42765,235.63692 L 141.65046,237.34689 C 141.30292,238.38969 140.32708,239.09307 139.22789,239.09307 C 138.12871,239.09307 137.15287,238.38969 136.80533,237.34689 L 136.80533,227.65664 C 137.6973,227.65664 138.42038,226.93356 138.42038,226.0416 C 138.42038,225.14963 137.6973,224.42655 136.80533,224.42655 C 135.91337,224.42655 135.19029,225.14963 135.19029,226.0416 C 135.19028,226.76272 135.66834,227.39648 136.36173,227.59456 L 133.57525,237.34689 C 133.20217,238.52386 132.02037,239.24736 130.80248,239.04438 C 129.5846,238.84141 128.70131,237.77371 128.73013,236.53937 L 128.36531,233.43903 C 129.33949,234.19477 130.65896,234.32999 131.76619,233.78756 C 132.87344,233.24514 133.5753,232.11969 133.57525,230.88673 C 133.57525,229.51618 132.71034,228.29487 131.41755,227.83985 C 130.12475,227.38483 128.68556,227.7952 127.82714,228.86361 L 127.62723,227.16476 C 129.29043,226.35205 130.34518,224.66266 130.34516,222.81152 C 130.34512,220.49652 128.70745,218.50496 126.43605,218.05773 L 126.30756,217.15886 C 126.30756,216.71289 125.94602,216.35135 125.50004,216.35135 C 125.05406,216.35135 124.69252,216.71289 124.69252,217.15886 L 124.56402,218.05773 C 122.29264,218.50496 120.65496,220.49652 120.65491,222.81152 C 120.65489,224.66266 121.70965,226.35205 123.37285,227.16476 L 123.17294,228.86361 C 122.31452,227.7952 120.87534,227.38483 119.58254,227.83985 C 118.28975,228.29487 117.42484,229.51618 117.42484,230.88673 C 117.42478,232.11969 118.12664,233.24514 119.23388,233.78756 C 120.34112,234.32999 121.66058,234.19477 122.63477,233.43903 L 122.26995,236.53937 C 122.29877,237.77371 121.41549,238.84141 120.1976,239.04438 C 118.9797,239.24736 117.79792,238.52386 117.42484,237.34689 L 114.63834,227.59456 C 115.33174,227.39648 115.8098,226.76272 115.80979,226.0416 C 115.80979,225.14963 115.0867,224.42655 114.19476,224.42655 C 113.30278,224.42655 112.57971,225.14963 112.57971,226.0416 C 112.57971,226.93356 113.30278,227.65664 114.19476,227.65664 L 114.19476,237.34689 C 113.84721,238.38969 112.87138,239.09307 111.77218,239.09307 C 110.673,239.09307 109.69717,238.38969 109.34962,237.34689 L 108.57243,235.63692 C 109.53677,235.87597 110.55747,235.65794 111.33997,235.04573 C 112.12247,234.43354 112.57969,233.49528 112.57971,232.50176 C 112.57973,231.0103 111.55856,229.71272 110.10888,229.36216 C 108.65921,229.01157 107.15797,229.69914 106.47646,231.02579 L 105.31202,228.46416 C 106.74909,226.88368 106.69137,224.45311 105.1809,222.94263 C 103.67042,221.43217 101.23985,221.37444 99.659372,222.81152 z "
     style="fill:#ffcd50;stroke:#003d8f;stroke-width:1"
     id="Crown" />
  <use
     transform="translate(-2.629395e-6,-35)"
     id="Crown-2"
     x="0"
     y="0"
     width="251"
     height="304.20001"
     xlink:href="#Crown" />
  <use
     transform="translate(-2.629395e-6,-70)"
     id="Crown-3"
     x="0"
     y="0"
     width="251"
     height="304.20001"
     xlink:href="#Crown" />
  <path
     d="M 249.55062,1.4395041 L 125.50012,1.4395041 L 1.449569,1.4395041 L 1.449569,174.9361 C 0.68232904,268.65698 81.739009,302.75585 125.5001,302.75585 C 168.49395,302.75585 250.31785,268.65698 249.55062,174.9361 L 249.55062,1.4395041 z "
     style="fill:none;fill-opacity:0;stroke:#000000;stroke-width:1.88832211;stroke-linecap:round"
     id="Frame" />
</svg>
