<?xml version="1.0" encoding="UTF-8" standalone="no"?>
<!-- Created with Inkscape (http://www.inkscape.org/) -->
<svg
   xmlns:dc="http://purl.org/dc/elements/1.1/"
   xmlns:cc="http://web.resource.org/cc/"
   xmlns:rdf="http://www.w3.org/1999/02/22-rdf-syntax-ns#"
   xmlns:svg="http://www.w3.org/2000/svg"
   xmlns="http://www.w3.org/2000/svg"
   version="1.0"
   width="251"
   height="304.20001"
   id="svg4166">
  <defs
     id="defs4168" />
  <metadata
     id="metadata1880"><rdf:RDF><cc:Work
         rdf:about=""><dc:title>Dalsland vapen</dc:title><dc:date>2009-09-28</dc:date><dc:creator><cc:Agent><dc:title>Lokal_Profil</dc:title></cc:Agent></dc:creator><cc:license
         rdf:resource="http://creativecommons.org/licenses/by-sa/2.5/" /><dc:rights><cc:Agent><dc:title>cc-by-sa-2.5</dc:title></cc:Agent></dc:rights><dc:format>image/svg+xml</dc:format><dc:type
         rdf:resource="http://purl.org/dc/dcmitype/StillImage" /></cc:Work><cc:License
         rdf:about="http://creativecommons.org/licenses/by-sa/2.5/"><cc:permits
         rdf:resource="http://web.resource.org/cc/Reproduction" /><cc:permits
         rdf:resource="http://web.resource.org/cc/Distribution" /><cc:requires
         rdf:resource="http://web.resource.org/cc/Notice" /><cc:requires
         rdf:resource="http://web.resource.org/cc/Attribution" /><cc:permits
         rdf:resource="http://web.resource.org/cc/DerivativeWorks" /><cc:requires
         rdf:resource="http://web.resource.org/cc/ShareAlike" /></cc:License></rdf:RDF>
  </metadata>
  <path
     d="M 249.55058,1.4395041 L 1.4495291,1.4395041 L 1.4495291,174.9361 C 0.68228908,268.65698 81.738969,302.75585 125.50006,302.75585 C 168.49391,302.75585 250.31781,268.65698 249.55058,174.9361 L 249.55058,1.4395041 z "
     style="fill:#eeeeee;stroke:none"
     id="Shield" />
  <g
     transform="matrix(0.413943,0,0,0.517688,1.317004,-63.70781)"
     style="fill:#d40000;stroke:#eeeeee;stroke-width:4.17157078px;stroke-linecap:butt;stroke-linejoin:miter"
     id="Bull">
    <path
       d="M 211.37878,566.45162 C 210.34352,576.14005 211.09461,585.82844 204.66497,595.51687 L 178.40931,594.97711 L 188.47159,564.05697 L 178.40931,594.97711 L 150.53433,594.97711 C 158.0915,582.75187 161.95584,571.69553 174.0911,564.05697 L 209.86925,565.13653 L 174.0911,564.05697 M 505.04269,565.62498 C 514.10429,528.20993 504.58498,581.47656 500.99314,589.57931 L 472.5784,589.23307 L 482.83421,567.44842 L 473.31168,588.15351 L 447.74858,587.26747 C 449.84926,580.52008 455.17848,573.77273 463.0348,567.02534 L 505.04269,565.62498 z "
       style="fill:#ffcd50"
       id="Hoofs-2-4" />
    <path
       d="M 387.52766,567.29565 L 423.49928,568.91497 L 386.4481,566.75585 C 376.91614,574.48352 370.99263,583.11333 367.20956,592.27823 L 394.35126,592.81799 C 392.01356,584.49045 396.91574,576.16295 404.60707,567.83541 C 397.42513,576.16295 390.28924,584.49045 394.35126,592.81799 L 423.3058,593.35779 C 424.60637,584.67041 423.84535,575.98303 423.84556,567.29565"
       style="fill:#ffcd50"
       id="Hoof-3" />
    <path
       d="M 117.99486,521.8015 C 117.99486,521.8015 96.197529,540.11174 84.182319,548.59692 C 90.594942,559.44363 96.321466,570.97644 108.27886,576.27838 L 126.43783,561.35809 L 101.69189,536.07235 L 126.43783,561.35809 L 147.83545,545.898 C 137.88858,534.95054 127.94172,528.66603 117.99486,523.42082"
       style="fill:#ffcd50"
       id="Hoof-1" />
    <path
       d="M 44.085972,280.68345 C -27.141476,278.7674 53.328171,235.3957 12.086268,199.21763 C 71.850822,202.15525 36.721272,232.14884 53.262176,278.52437 L 44.085972,280.68345 z "
       style="fill:#ffcd50"
       id="Horn-1" />
    <path
       d="M 158.09125,431.00667 L 110.43798,436.75072 C 101.59617,439.21278 91.53609,437.77634 89.580124,462.2731 C 86.437554,506.49513 65.132298,502.12583 77.358714,537.45507 L 84.182319,548.59692 C 84.182319,548.59692 117.99486,523.42082 117.99486,523.42082 L 136.6936,519.10258 C 130.49055,512.0701 120.92602,507.27855 110.43798,503.10273 C 116.95268,495.67625 120.29419,485.71115 119.61418,472.52887 C 152.32084,474.45471 173.48548,467.00908 196.7618,463.54614 L 158.09125,431.00667 z "
       id="path76656" />
    <path
       d="M 371.1031,437.69933 C 347.71936,460.70338 348.73392,472.6173 346.89151,485.82984 L 395.97058,453.83013 C 392.461,484.64824 407.7438,498.73309 434.64113,488.52872 L 452.26034,468.21066 C 391.81724,544.92072 389.80112,518.04796 387.52766,567.29565 L 423.49928,568.91497 L 426.00469,556.1538 L 436.88456,566.21609 C 439.68539,537.10182 448.55824,507.91296 479.59552,477.38687 L 417.36824,418.05199 L 371.1031,437.69933 z "
       id="path75769" />
    <path
       d="M 508.89635,551.10228 L 505.04269,565.62498 L 462.32259,566.94937 C 464.78803,520.94045 504.07722,537.9786 502.95878,484.94379 C 426.38688,481.26497 410.73356,435.77929 406.76615,382.27384 L 413.78328,427.03471 C 384.63922,433.34876 274.48659,491.30824 217.42614,464.97198 C 237.53361,441.21276 229.72322,419.44767 231.46038,397.00061 C 230.82309,420.0631 235.93857,442.71469 216.34657,467.1311 C 226.49175,480.26751 220.14533,496.2946 212.02833,500.88937 C 209.21089,531.20464 218.31639,540.13672 225.79235,564.01859 L 207.90365,557.03985 L 211.37878,566.45162 C 211.37878,566.45162 174.0911,564.05697 174.0911,564.05697 L 174.0911,564.05697 C 184.66061,548.04615 188.394,523.65197 184.57047,501.88392 C 168.14228,489.76621 174.34916,465.59075 180.56843,459.22794 C 162.64302,433.1522 170.21747,420.03119 176.25018,400.43281 C 170.51115,420.48764 162.50578,433.33283 180.56843,458.68814 C 156.95125,437.57894 132.73077,407.42028 110.43798,406.17686 C 140.8348,393.74841 153.42377,373.48455 147.83545,345.22261 C 153.39006,373.47191 140.65179,393.80423 110.78426,405.87133 C 99.711535,410.83116 92.182767,415.79104 88.307044,420.75087 C 76.447518,430.32141 70.726083,436.05924 48.750455,432.97228 C 30.074999,430.3489 16.650717,406.83889 43.739689,389.29096 C 50.51236,315.35487 22.681265,318.08667 46.784811,295.41022 C 37.619828,291.83977 33.674106,277.73577 48.134273,266.64924 C 58.627401,259.82505 72.986824,265.67977 87.960762,271.50724 C 87.960762,271.50724 87.400603,271.85348 87.400603,271.85348 C 89.549713,281.7391 93.912244,293.69249 112.51626,288.58611 C 133.35822,289.0832 152.31012,287.69027 175.71043,290.74573 C 160.14629,320.3127 145.7525,332.96975 118.53466,305.12627 C 145.45719,332.6082 160.66248,320.29389 176.25018,290.74573 L 112.74982,288.58665 C 191.81607,257.41864 182.21299,250.59178 269.43837,281.22325 C 332.08648,303.22374 334.75499,311.4595 384.28898,308.90471 C 437.6379,297.6559 419.52736,292.5484 461.24307,297.76286 C 502.95878,302.97732 516.52715,327.61608 526.32204,327.06368 C 591.46976,323.38936 559.72531,233.72695 488.57825,267.189 C 468.10218,276.09309 448.06245,286.74265 420.60688,267.72876 L 389.68678,268.26856 L 406.22639,255.85363 L 349.20339,278.52437 C 365.92584,253.83884 385.3214,220.95652 431.63672,242.35918 C 452.1989,251.86114 473.03489,260.96418 500.30061,247.4107 C 551.66604,221.87752 581.02043,257.61787 585.8504,288.58661 C 595.73277,351.95061 569.00585,370.4068 529.7542,359.60315 C 538.9224,382.08003 532.61861,428.33812 525.90092,446.07894 C 521.40334,457.95657 546.17229,467.96513 564.45279,471.4493 C 548.26133,494.89541 528.08582,510.34908 520.22337,564.3348 L 508.89635,551.10228 z "
       id="path74880" />
    <path
       d="M 46.015989,295.40981 C 71.838514,298.48117 76.801809,268.00066 63.324464,264.07354 L 75.079493,267.86179 C 60.517748,296.60579 89.498862,310.22455 100.35225,290.0593"
       id="path80204" />
    <path
       d="M 82.97953,425.31557 C 84.346512,412.59165 86.8097,396.75562 59.176338,390.03038 L 71.42115,342.27728"
       style="fill:none"
       id="path81093" />
    <path
       d="M 69.262028,349.81076 C 71.009875,340.26186 75.184783,319.9416 111.93407,313.61604 L 104.79372,315.35863 C 121.23972,356.6002 75.111572,360.48794 70.734718,344.82948 L 69.262028,349.81076 z "
       id="Bull-Eye-1" />
    <path
       d="M 75.592721,333.66423 C 82.274451,341.53816 84.906838,339.15231 90.389784,338.89196 C 88.259947,333.31382 87.57485,327.44672 89.040322,321.14952 C 83.478242,323.86125 81.154802,326.08724 75.592721,333.66423 z "
       id="Bull-Eye-2" />
    <path
       d="M 52.182615,418.05199 C 58.577509,412.00655 59.808623,411.68362 67.642708,414.27354"
       style="fill:none"
       id="path85532" />
    <path
       d="M 87.960762,271.50724 C 119.12261,249.54025 60.399484,209.80904 109.01214,191.66074 C 105.08197,232.4215 164.18771,252.00798 113.13686,288.04685 C 95.53469,292.47428 88.675036,287.43008 87.960762,271.50724 z "
       style="fill:#ffcd50"
       id="Horn-2" />
  </g>
  <path
     d="M 249.55062,1.4395041 L 1.449569,1.4395041 L 1.449569,174.9361 C 0.68232904,268.65698 81.739009,302.75585 125.5001,302.75585 C 168.49395,302.75585 250.31785,268.65698 249.55062,174.9361 L 249.55062,1.4395041 z "
     style="fill:none;fill-opacity:0;stroke:#000000;stroke-width:1.88832211;stroke-linecap:round"
     id="Frame" />
</svg>
