<?xml version="1.0" encoding="UTF-8" standalone="no"?>
<!-- Created with Inkscape (http://www.inkscape.org/) -->
<svg
   xmlns:svg="http://www.w3.org/2000/svg"
   xmlns="http://www.w3.org/2000/svg"
   version="1.0"
   width="251"
   height="304.20001"
   id="svg4166">
  <defs
     id="defs4168" />
  <path
     d="M 1.84676,1.921915 L 125.5,1.921915 L 249.15334,1.921915 L 249.15334,174.86298 C 249.91811,268.28378 169.121,302.27344 125.50005,302.27344 C 82.64387,302.27344 1.08197,268.28378 1.84676,174.86298 L 1.84676,1.921915 z "
     style="color:#000000;fill:#eeeeee;fill-opacity:1;fill-rule:nonzero;stroke:none;stroke-width:0.75532883;stroke-linecap:round;stroke-linejoin:bevel;marker:none;marker-start:none;marker-mid:none;marker-end:none;stroke-miterlimit:4;stroke-dashoffset:0;stroke-opacity:1;visibility:visible;display:block"
     id="Shield" />
  <g
     transform="matrix(0.4801213,0,0,0.4801213,9.5395397,19.607776)"
     id="Layer_x0020_1">
    <g
       style="fill:#ffcd50;stroke:none"
       id="g8651">
      <path
         d="M 173.4723,93.43649 C 161.3422,97.49909 132.85402,83.589011 132.85402,83.589011 L 129.88529,77.637671 L 129.884,77.6376 C 82.2991,78.92113 41.5822,41.5542 65.0154,19.4587 C 68.09439,38.755 76.3897,55.7575 95.1752,56.4268 C 100.40768,55.898138 105.6402,53.90822 108.2426,51.33379 C 97.8825,36.16109 91.6143,26.34669 97.6209,18.96779 C 110.226,29.72899 116.9864,51.01119 135.4368,51.25129 C 157.8322,51.723826 185.7804,9.82009 199.9931,14.67669 C 194.83943,24.99769 179.4569,37.36439 184.5321,45.63979 C 195.9705,48.83756 210.9161,19.30339 237.2597,19.87119 C 227.3784,41.69339 197.9162,46.27279 206.7391,61.08099 C 234.3256,63.28209 255.4826,15.21579 279.8546,19.46269 C 264.8777,35.71319 259.4006,38.42109 260.5036,51.25979 C 270.15586,55.55541 282.1464,30.33359 307.5806,24.40039 C 299.2011,48.54449 287.0223,44.63239 291.5019,56.79419 C 309.1799,57.5706 328.4045,49.10408 322.2145,22.40789 C 334.4066,26.66723 337.5633,35.38429 336.5065,46.65889 C 342.06411,45.59958 347.232,40.35152 349.6726,31.49919 C 365.1739,60.27459 308.6414,98.88529 282.3163,99.70219 C 259.6493,100.40575 185.6024,89.37389 173.4723,93.43649 z "
         id="path2335" />
      <path
         d="M 165.798,526.014 C 170.06301,521.30197 182.9907,510.7165 186.8288,495.5509 C 191.15674,488.42035 218.303,492.04416 215.3451,499.13163 C 198.4704,521.24753 180.9302,528.75053 165.798,526.01403 L 165.798,526.014 z "
         id="path2329" />
      <path
         d="M 342.026,527.475 C 346.29101,522.76297 364.187,503.9939 363.9336,493.5046 C 368.55407,479.6522 394.5311,493.50517 391.5731,500.59264 C 374.6984,522.70854 357.1582,530.21154 342.026,527.47504 L 342.026,527.475 z "
         id="path2331" />
      <path
         d="M 149.473,467.749 C 140.66603,453.5829 126.6453,441.1963 112.7065,434.0941 C 109.76045,430.26563 133.6784,412.589 135.751,415.6672 C 149.6513,438.1598 153.1282,454.9166 149.473,467.749 z "
         id="path2333" />
      <path
         d="M 249.675,516.954 C 253.94001,512.24197 271.836,493.4729 271.5826,482.9836 C 276.20307,469.1312 302.1801,482.98417 299.2221,490.07164 C 282.3474,512.18754 264.8072,519.69054 249.675,516.95404 L 249.675,516.954 z "
         id="path2339" />
    </g>
    <path
       d="M 173.4723,93.43649 C 164.70644,96.37262 159.5508,102.06742 159.8252,107.69849 C 179.4322,96.84779 217.4513,152.28889 227.4573,152.05189 C 242.3188,145.96874 260.253,148.21605 279.7271,158.35218 C 296.3035,166.98 309.8313,188.27128 332.3033,196.63268 C 340.26214,199.59404 392.2019,204.89653 425.6213,225.28838 C 457.2324,244.57728 478.8557,282.49838 460.1076,301.07748 C 458.2373,283.64578 455.83862,273.36488 450.0724,267.62408 C 461.9133,288.59848 450.5404,309.56838 448.63155,331.90848 C 446.62916,355.34618 467.26345,365.53018 466.88525,375.57448 C 466.47338,386.51958 429.26355,425.26498 405.24645,459.31878 C 391.98455,478.12238 409.44966,496.93338 396.12597,512.80088 C 395.47145,491.35618 381.52617,490.58608 366.01667,489.42948 C 364.2008,481.65518 383.01807,470.04478 399.20697,448.24658 C 407.68682,436.82888 410.40357,419.78838 416.37447,410.51148 C 418.59853,398.00218 417.0236,386.07768 416.03318,374.73768 C 379.45118,359.91388 349.34978,325.43438 345.33908,298.75358 C 342.65354,280.48968 347.37152,261.83598 359.49418,242.79368 C 345.49698,256.32148 341.10778,275.34198 341.14068,297.44398 C 319.75358,297.4933 240.17368,346.63758 234.28568,331.75538 C 233.54583,309.93228 232.77425,294.73428 225.69698,287.97258 C 231.43062,296.29482 232.36605,329.26378 229.23462,332.81328 C 218.94002,345.76788 218.34932,363.89778 219.77257,383.10188 C 221.60035,396.38278 220.99175,408.20298 215.02482,416.80778 L 215.26718,483.72868 C 216.13713,492.15013 218.85783,497.77468 225.02772,504.32468 C 216.65757,502.89857 205.54972,494.22318 201.39582,493.18398 C 196.44086,491.94411 193.36867,494.2345 186.28942,493.80448 C 186.0343,488.06007 190.55301,481.43948 198.09172,478.03388 L 196.57944,417.57848 C 191.07484,402.60498 187.00797,378.18308 190.07733,369.44558 C 175.25323,346.30038 164.33813,313.41308 158.91523,286.25778 L 156.44824,286.76887 C 158.68166,302.49097 163.06913,318.69747 169.60184,333.34497 C 165.92105,330.57297 157.48174,317.66147 154.43644,307.00377 C 153.18041,309.51357 154.44154,319.71437 153.12485,318.23947 C 141.63435,305.36707 140.00865,294.77767 143.04035,280.93297 C 136.6006,280.02985 131.91435,284.97178 127.22845,286.11442 C 127.02379,273.99462 138.80145,275.02612 136.25879,256.76932 C 130.51721,261.64208 125.65239,262.13105 119.03409,267.00382 C 120.49847,258.11238 130.43849,251.26672 131.90309,238.57632 C 122.16863,242.13834 118.57179,249.49962 110.59109,251.89292 C 109.47225,241.16462 133.77939,211.73222 109.28063,217.95452 C 110.15172,211.59641 112.11443,203.33822 114.93235,198.62422 C 119.62908,190.76743 124.62486,187.03792 115.66567,176.44112 C 108.79959,178.54726 105.26617,204.73822 98.557773,212.41482 C 97.56678,209.29274 96.576073,206.17066 94.708603,204.80238 C 89.294713,207.05536 87.387843,227.13568 83.143203,232.01898 C 83.659109,215.27358 74.761723,201.06268 74.546853,188.45698 C 74.326884,175.55108 83.399453,165.73928 70.350153,149.23058 C 61.987373,149.37855 57.569253,160.96148 48.589953,162.46558 C 45.597133,162.96675 40.927903,158.90668 37.775253,159.46766 C 35.263473,159.6624 32.459443,158.78593 26.732853,162.97525 C 22.586043,164.15163 26.116034,160.5196 23.594613,159.12041 C 17.372283,156.40709 15.827963,144.62261 22.643022,120.01761 C 28.395652,107.79721 67.566222,89.440011 132.85402,83.589011"
       style="fill:#d40000;fill-opacity:1;stroke:#eeeeee;stroke-width:0.99212599"
       id="path2581" />
    <ellipse
       cx="21.1891"
       cy="145.979"
       rx="5.2209401"
       ry="8.5848703"
       style="fill:#d40000;fill-opacity:1;stroke:#eeeeee;stroke-width:0.99212599"
       id="ellipse2337" />
    <path
       d="M 63.9649,330.589 C 64.5409,318.5205 109.4051,298.956 137.6192,291.3096 C 138.91945,303.5074 144.4782,315.2196 154.5403,324.6754 C 156.43299,322.90743 155.97378,319.66233 156.22153,319.28078 C 157.11048,322.23306 162.99208,332.69148 166.74823,335.26678 C 159.33875,337.33352 148.13593,341.44376 139.89303,340.60102 C 131.96339,339.79059 126.85053,338.38489 124.37333,338.3282 C 118.04016,337.36527 115.57629,342.75932 109.79583,341.5203 C 97.90793,342.33384 92.56143,336.49135 88.78143,330.2118 C 89.133493,336.01404 93.27945,338.29366 98.34836,344.2133 C 102.26046,359.3424 99.254313,387.5185 108.42776,396.2407 C 117.7665,405.11995 140.64896,402.66883 141.97356,411.2723 C 128.86786,415.8786 117.32856,424.2621 107.90876,436.9755 C 106.48945,436.2144 111.00306,422.2246 105.90325,414.8528 C 91.38585,393.8668 63.67295,337.6773 63.96465,330.5892 L 63.9649,330.589 z "
       style="fill:#d40000;fill-opacity:1;stroke:#eeeeee;stroke-width:0.99212599"
       id="path2341" />
    <path
       d="M 306.353,315.001 C 310.45105,308.77611 330.803,302.134 342.1634,300.059 C 343.44126,314.1401 352.3568,327.9256 364.2898,341.9585 C 385.0201,366.3367 408.7442,374.5541 407.2038,383.57 C 406.79618,391.19889 363.506,411.2775 349.9573,424.0941 C 328.8877,440.8398 302.4614,464.5133 303.2412,474.4811 C 302.8401,487.0805 315.6388,491.0099 315.189,494.725 C 300.6325,495.99294 300.213,484.1963 292.0963,482.4048 C 283.93819,480.60423 273.1903,484.23882 272.5644,477.14143 C 285.7798,460.58143 299.9309,448.58093 315.221,433.28573 C 331.0329,417.46873 353.387,384.45613 351.2015,376.29483 C 352.20326,362.59893 309.3859,356.94213 306.3531,315.00093 L 306.353,315.001 z "
       style="fill:#d40000;fill-opacity:1;stroke:#eeeeee;stroke-width:0.99212599"
       id="path2343" />
    <ellipse
       cx="0"
       cy="0"
       rx="6.76829"
       ry="2.2288799"
       transform="matrix(0.46451,0.885568,-0.885568,0.46451,141.893,442.571)"
       style="fill:#eeeeee;stroke:#eeeeee;stroke-width:0.99212599"
       id="ellipse2345" />
    <ellipse
       cx="0"
       cy="0"
       rx="6.76829"
       ry="2.2288799"
       transform="matrix(0.735367,1.1505e-2,-1.76347e-2,0.479761,192.71,497.215)"
       style="fill:#eeeeee;stroke:#eeeeee;stroke-width:0.99212599"
       id="ellipse2347" />
    <ellipse
       cx="0"
       cy="0"
       rx="6.76829"
       ry="2.2288799"
       transform="matrix(0.726023,0.117422,-8.66301e-2,0.472204,278.047,484.356)"
       style="fill:#eeeeee;stroke:#eeeeee;stroke-width:0.99212599"
       id="ellipse2349" />
    <ellipse
       cx="0"
       cy="0"
       rx="6.76829"
       ry="2.2288799"
       transform="matrix(-0.591178,-8.12206e-2,0.155198,-1.09894,370.059,494.53)"
       style="fill:#eeeeee;stroke:#eeeeee;stroke-width:0.99212599"
       id="ellipse2351" />
    <line
       x1="293.246"
       y1="458.22299"
       x2="328.05301"
       y2="424.47"
       id="line2353"
       style="fill:none;stroke:#eeeeee;stroke-width:0.99212599" />
    <path
       d="M 376.573,399.156 C 380.79209,394.58542 392.3946,383.6862 401.8875,379.1153"
       style="fill:none;stroke:#eeeeee;stroke-width:0.99212599"
       id="path2355" />
    <line
       x1="181.44"
       y1="348.52701"
       x2="190.933"
       y2="361.18399"
       id="line2357"
       style="fill:none;stroke:#eeeeee;stroke-width:0.99212599" />
    <line
       x1="190.783"
       y1="378.94299"
       x2="195.26601"
       y2="392.065"
       id="line2359"
       style="fill:none;stroke:#eeeeee;stroke-width:0.70866197" />
    <path
       d="M 123.427,177.654 C 127.73368,175.80836 132.71897,169.08855 141.2184,167.4102 C 149.08058,165.85766 160.2122,151.4826 167.7275,138.6275"
       style="fill:none;stroke:#eeeeee;stroke-width:1.98424995"
       id="path2361" />
    <ellipse
       cx="20.7826"
       cy="145.979"
       rx="4.8144798"
       ry="8.5848703"
       style="fill:none;stroke:#eeeeee;stroke-width:0.99212599"
       id="ellipse2363" />
    <path
       d="M 35.8812,154.449 C 41.42095,147.99451 47.046,143.0724 52.7576,139.6822"
       style="fill:none;stroke:#eeeeee;stroke-width:0.99212599"
       id="path2365" />
    <path
       d="M 362.861,317.938 C 366.23593,324.92314 367.36072,331.1574 379.7374,341.143"
       style="fill:none;stroke:#eeeeee;stroke-width:0.99212599"
       id="path2367" />
    <path
       d="M 348.895,313.282 C 353.01459,319.08792 354.82083,322.90251 365.3368,332.8881"
       style="fill:none;stroke:#eeeeee;stroke-width:0.99212599"
       id="path2369" />
    <line
       x1="448.297"
       y1="387.55301"
       x2="462.009"
       y2="371.73199"
       id="line2371"
       style="fill:none;stroke:#eeeeee;stroke-width:0.99212599" />
    <line
       x1="416.65399"
       y1="411.81299"
       x2="422.983"
       y2="406.539"
       id="line2373"
       style="fill:none;stroke:#eeeeee;stroke-width:0.99212599" />
    <line
       x1="417.70901"
       y1="395.991"
       x2="422.983"
       y2="392.827"
       id="line2375"
       style="fill:none;stroke:#eeeeee;stroke-width:0.99212599" />
    <path
       d="M 79.1269,147.065 C 94.2653,159.2591 99.3697,157.0353 102.3319,143.90068"
       style="fill:none;stroke:#eeeeee;stroke-width:0.70866197"
       id="path2377" />
    <path
       d="M 78.7403,163.852 C 81.24301,168.67345 88.31942,174.8635 94.5247,163.9566 C 95.87229,161.58825 99.39066,171.68895 102.16691,169.2401 C 104.33031,167.33153 103.94707,160.69647 106.5042,158.2992"
       style="fill:none;stroke:#eeeeee;stroke-width:0.36850399"
       id="path2379" />
    <ellipse
       cx="102.851"
       cy="97.900902"
       rx="2.7764001"
       ry="1.94779"
       style="fill:#eeeeee;stroke:#eeeeee;stroke-width:0.99212599"
       id="ellipse2381" />
    <path
       d="M 109.427,101.456 C 112.44675,100.8715 113.71327,100.14072 115.27204,96.04919"
       style="fill:none;stroke:#eeeeee;stroke-width:0.36850399"
       id="path2383" />
    <line
       x1="291.13599"
       y1="191.366"
       x2="289.02701"
       y2="200.85899"
       id="line2385"
       style="fill:none;stroke:#eeeeee;stroke-width:0.36850399" />
    <path
       d="M 264.767,235.666 C 267.93132,235.666 271.09563,229.33737 274.25995,226.17305"
       style="fill:none;stroke:#eeeeee;stroke-width:0.36850399"
       id="path2387" />
    <path
       d="M 159.975,106.463 L 135.0298,91.1621 C 153.6642,76.5333 176.1653,68.875 191.9875,71.1214 L 159.975,106.4629 L 159.975,106.463 z "
       style="fill:#d40000;fill-opacity:1;stroke:#d40000;stroke-width:0.99212599;stroke-opacity:1"
       id="path2389" />
    <path
       d="M 135.03,91.1623 C 153.6644,76.5335 176.1655,68.8752 191.9877,71.1216 L 159.8587,106.3917"
       style="fill:none;stroke:#eeeeee;stroke-width:0.99212599"
       id="path2391" />
    <path
       d="M 143.468,100.655 C 156.8283,89.4043 173.0011,79.5601 191.9875,71.1214"
       style="fill:#d40000;fill-opacity:1;stroke:#eeeeee;stroke-width:0.99212599"
       id="path2393" />
    <line
       x1="127.839"
       y1="139.30299"
       x2="126.962"
       y2="143.394"
       id="line2395"
       style="fill:none;stroke:#eeeeee;stroke-width:0.36850399" />
    <line
       x1="197.21201"
       y1="419.56601"
       x2="199.91"
       y2="427.46301"
       id="line2397"
       style="fill:none;stroke:#eeeeee;stroke-width:0.70866197" />
  </g>
  <path
     d="M -85.531037 136.76897 A 9.2793112 9.2793112 0 1 1  -104.08966,136.76897 A 9.2793112 9.2793112 0 1 1  -85.531037 136.76897 z"
     transform="translate(119.83629,70.502735)"
     style="fill:#003d8f;fill-opacity:1;stroke:none;stroke-width:0.245;stroke-linecap:round;stroke-miterlimit:4;stroke-dasharray:none;stroke-opacity:1"
     id="use2477" />
  <path
     d="M -85.531037 136.76897 A 9.2793112 9.2793112 0 1 1  -104.08966,136.76897 A 9.2793112 9.2793112 0 1 1  -85.531037 136.76897 z"
     transform="translate(171.79646,64.63779)"
     style="fill:#003d8f;fill-opacity:1;stroke:none;stroke-width:0.245;stroke-linecap:round;stroke-miterlimit:4;stroke-dasharray:none;stroke-opacity:1"
     id="use2481" />
  <path
     d="M -85.531037 136.76897 A 9.2793112 9.2793112 0 1 1  -104.08966,136.76897 A 9.2793112 9.2793112 0 1 1  -85.531037 136.76897 z"
     transform="translate(324.0098,-34.126697)"
     style="fill:#003d8f;fill-opacity:1;stroke:none;stroke-width:0.245;stroke-linecap:round;stroke-miterlimit:4;stroke-dasharray:none;stroke-opacity:1"
     id="use2487" />
  <path
     d="M -85.531037 136.76897 A 9.2793112 9.2793112 0 1 1  -104.08966,136.76897 A 9.2793112 9.2793112 0 1 1  -85.531037 136.76897 z"
     transform="translate(238.17435,68.387672)"
     style="fill:#003d8f;fill-opacity:1;stroke:none;stroke-width:0.245;stroke-linecap:round;stroke-miterlimit:4;stroke-dasharray:none;stroke-opacity:1"
     id="use2489" />
  <path
     d="M -85.531037 136.76897 A 9.2793112 9.2793112 0 1 1  -104.08966,136.76897 A 9.2793112 9.2793112 0 1 1  -85.531037 136.76897 z"
     transform="translate(176.16737,121.54011)"
     style="fill:#003d8f;fill-opacity:1;stroke:none;stroke-width:0.245;stroke-linecap:round;stroke-miterlimit:4;stroke-dasharray:none;stroke-opacity:1"
     id="use2493" />
  <path
     d="M -85.531037 136.76897 A 9.2793112 9.2793112 0 1 1  -104.08966,136.76897 A 9.2793112 9.2793112 0 1 1  -85.531037 136.76897 z"
     transform="translate(250.80241,138.52289)"
     style="fill:#003d8f;fill-opacity:1;stroke:none;stroke-width:0.245;stroke-linecap:round;stroke-miterlimit:4;stroke-dasharray:none;stroke-opacity:1"
     id="use2497" />
  <path
     d="M -85.531037 136.76897 A 9.2793112 9.2793112 0 1 1  -104.08966,136.76897 A 9.2793112 9.2793112 0 1 1  -85.531037 136.76897 z"
     transform="translate(302.96549,-99.829311)"
     style="fill:#003d8f;fill-opacity:1;stroke:none;stroke-width:0.245;stroke-linecap:round;stroke-miterlimit:4;stroke-dasharray:none;stroke-opacity:1"
     id="use2499" />
  <path
     d="M -85.531037 136.76897 A 9.2793112 9.2793112 0 1 1  -104.08966,136.76897 A 9.2793112 9.2793112 0 1 1  -85.531037 136.76897 z"
     transform="translate(279.90725,97.414494)"
     style="fill:#003d8f;fill-opacity:1;stroke:none;stroke-width:0.245;stroke-linecap:round;stroke-miterlimit:4;stroke-dasharray:none;stroke-opacity:1"
     id="use2501" />
  <path
     d="M -85.531037 136.76897 A 9.2793112 9.2793112 0 1 1  -104.08966,136.76897 A 9.2793112 9.2793112 0 1 1  -85.531037 136.76897 z"
     transform="translate(134.24075,13.356571)"
     style="fill:#003d8f;fill-opacity:1;stroke:none;stroke-width:0.245;stroke-linecap:round;stroke-miterlimit:4;stroke-dasharray:none;stroke-opacity:1"
     id="use2503" />
  <path
     d="M -85.531037 136.76897 A 9.2793112 9.2793112 0 1 1  -104.08966,136.76897 A 9.2793112 9.2793112 0 1 1  -85.531037 136.76897 z"
     transform="translate(262.00174,-54.873715)"
     style="fill:#003d8f;fill-opacity:1;stroke:none;stroke-width:0.245;stroke-linecap:round;stroke-miterlimit:4;stroke-dasharray:none;stroke-opacity:1"
     id="use2505" />
  <path
     d="M -85.531037 136.76897 A 9.2793112 9.2793112 0 1 1  -104.08966,136.76897 A 9.2793112 9.2793112 0 1 1  -85.531037 136.76897 z"
     transform="translate(114.66711,-112.78224)"
     style="fill:#003d8f;fill-opacity:1;stroke:none;stroke-width:0.245;stroke-linecap:round;stroke-miterlimit:4;stroke-dasharray:none;stroke-opacity:1"
     id="use2507" />
  <path
     d="M 1.4495187,1.4395021 L 125.50002,1.4395021 L 249.55056,1.4395021 L 249.55056,174.9361 C 250.3178,268.65698 169.26112,302.75585 125.50004,302.75585 C 82.50619,302.75585 0.68228966,268.65698 1.4495187,174.9361 L 1.4495187,1.4395021 z "
     style="fill-opacity:0;stroke:#000000;stroke-width:1.88832211;stroke-linecap:round"
     id="Frame" />
</svg>
