<?xml version="1.0" encoding="UTF-8" standalone="no"?>
<!-- Created with Inkscape (http://www.inkscape.org/) -->
<svg
   xmlns:dc="http://purl.org/dc/elements/1.1/"
   xmlns:cc="http://web.resource.org/cc/"
   xmlns:rdf="http://www.w3.org/1999/02/22-rdf-syntax-ns#"
   xmlns:svg="http://www.w3.org/2000/svg"
   xmlns="http://www.w3.org/2000/svg"
   xmlns:xlink="http://www.w3.org/1999/xlink"
   version="1.0"
   width="251"
   height="304.20001"
   id="svg4166">
  <defs
     id="defs4168" />
  <metadata
     id="metadata1880"><rdf:RDF><cc:Work
         rdf:about=""><dc:title>Lappland landskapsvapen</dc:title><dc:date>26-01-2008</dc:date><dc:creator><cc:Agent><dc:title>Lokal_Profil</dc:title></cc:Agent></dc:creator><cc:license
         rdf:resource="http://creativecommons.org/licenses/by-sa/2.5/" /><dc:rights><cc:Agent><dc:title>cc-by-sa-2.5</dc:title></cc:Agent></dc:rights><dc:format>image/svg+xml</dc:format><dc:type
         rdf:resource="http://purl.org/dc/dcmitype/StillImage" /></cc:Work><cc:License
         rdf:about="http://creativecommons.org/licenses/by-sa/2.5/"><cc:permits
         rdf:resource="http://web.resource.org/cc/Reproduction" /><cc:permits
         rdf:resource="http://web.resource.org/cc/Distribution" /><cc:requires
         rdf:resource="http://web.resource.org/cc/Notice" /><cc:requires
         rdf:resource="http://web.resource.org/cc/Attribution" /><cc:permits
         rdf:resource="http://web.resource.org/cc/DerivativeWorks" /><cc:requires
         rdf:resource="http://web.resource.org/cc/ShareAlike" /></cc:License></rdf:RDF>
  </metadata>
  <path
     d="M 249.55058,1.4395041 L 1.4495291,1.4395041 L 1.4495291,174.9361 C 0.68228908,268.65698 81.738969,302.75585 125.50006,302.75585 C 168.49391,302.75585 250.31781,268.65698 249.55058,174.9361 L 249.55058,1.4395041 z "
     style="fill:#eeeeee;stroke:none"
     id="Shield" />
  <g
     transform="matrix(0.306396,0,0,0.306396,-0.773905,-68.05146)"
     id="Vildman">
    <g
       style="fill:#ffcd50;stroke:#ffcd50;stroke-width:0.89740002;stroke-linecap:round"
       id="Klubba">
      <path
         d="M 218.179,430.097 C 218.179,430.097 229.845,415.739 333.939,399.587 L 341.118,432.789 C 341.118,432.789 318.69052,444.81531 222.67252,454.23731 C 219.98052,445.26331 213.12523,432.30257 213.12523,432.30257 L 218.179,430.097 z M 456.878,392.856 C 456.878,392.856 485.593,374.011 507.13,376.704 C 507.13,376.704 515.655,379.845 530.013,370.422 C 530.013,370.422 553.344,337.669 582.509,358.756 C 582.509,358.756 595.072,366.383 613.019,353.372 C 613.019,353.372 635.454,330.938 658.336,348.885 C 658.336,348.885 663.72,356.064 675.834,352.474 C 675.834,352.474 697.819,347.987 697.819,365.934 C 697.819,365.934 696.025,374.459 707.242,378.946 C 707.242,378.946 731.022,408.559 694.23,420.674 C 694.23,420.674 675.834,422.469 664.617,435.481 C 664.617,435.481 650.26,460.158 626.03,433.686 C 626.03,433.686 610.775,420.674 588.79,435.032 C 588.79,435.032 563.215,454.774 542.576,435.032 C 542.576,435.032 526.423,424.712 506.232,432.34 C 506.232,432.34 488.285,438.621 456.878,432.34 L 456.878,392.856 L 456.878,392.856 z "
         id="path113" />
      <path
         d="M 123.956,450.288 C 123.956,450.288 110.496,443.109 109.598,456.569 C 109.598,456.569 107.803,467.786 116.777,474.516 C 116.777,474.516 126.648,485.285 135.622,473.619 L 151.775,470.927 L 185.875,461.056 C 185.875,461.056 197.092,449.839 185.426,444.455 L 184.793,451.06 L 179.593,457.915 L 172.344,454.008 L 165.236,461.055 L 158.849,457.306 L 154.467,463.747 L 144.94,460.895 L 141.456,466.888 L 131.48,465.383 L 123.956,450.288 L 123.956,450.288 z "
         id="path117" />
    </g>
    <g
       style="fill:#d40000"
       id="Skin">
      <path
         d="M 346.502,371.768 L 378.358,360.551 L 411.561,362.794 L 435.341,370.422 L 453.736,381.639 L 451.942,416.636 L 436.238,440.417 L 416.833,458.881 L 393.997,458.064 L 364.897,444.455 L 349.643,422.918 L 346.502,371.768 z "
         id="polygon119" />
      <g
         id="Fingers">
        <path
           d="M 165.641,415.392 C 168.649,414.296 172.646,417.689 174.567,422.97 L 181.312,441.499 C 183.234,446.78 182.353,451.948 179.345,453.042 C 176.336,454.138 172.34,450.744 170.417,445.463 L 163.672,426.934 C 161.751,421.654 162.631,416.487 165.641,415.392 L 165.641,415.392 z "
           id="path131" />
        <path
           d="M 151.996,419.5 C 154.541,418.573 158.162,422.103 160.083,427.383 L 166.647,445.418 C 168.569,450.699 168.065,455.731 165.52,456.656 C 162.975,457.581 159.356,454.052 157.433,448.772 L 150.869,430.737 C 148.947,425.458 149.452,420.425 151.996,419.5 L 151.996,419.5 z "
           id="path133" />
        <path
           d="M 140.234,426.877 L 140.234,426.877 C 143.08,425.841 146.945,429.282 148.866,434.563 L 153.978,448.61 C 155.901,453.891 155.152,459.012 152.306,460.048 L 152.306,460.048 C 149.46,461.084 145.595,457.642 143.672,452.361 L 138.56,438.313 C 136.64,433.034 137.388,427.913 140.234,426.877 L 140.234,426.877 z "
           id="path135" />
        <path
           d="M 128.258,435.8 L 128.258,435.8 C 131.027,434.792 134.83,438.256 136.751,443.536 L 139.941,452.301 C 141.864,457.582 141.177,462.678 138.407,463.686 L 138.407,463.686 C 135.638,464.694 131.835,461.23 129.914,455.952 L 126.724,447.187 C 124.802,441.906 125.489,436.808 128.258,435.8 L 128.258,435.8 z "
           id="path137" />
      </g>
      <path
         d="M 175.897,411.99 L 195.744,417.983 L 210.102,430.546 L 217.281,445.801 L 220.87,455.672 L 214.589,474.517 L 196.762,494.259 L 198.557,498.746 L 202.923,499.643 L 213.692,520.282 L 225.808,535.649 L 228.409,538.949 L 230.237,536.147 L 231.871,533.641 L 236.486,526.564 C 241.422,507.719 260.715,501.438 260.715,501.438 L 270.586,484.388 C 271.035,468.236 287.636,457.467 287.636,457.467 L 301.097,451.185 L 320.479,450.288 L 337.529,445.801 L 478.415,449.391 L 484.696,446.041 L 508.203,446.817 L 521.787,454.775 L 529.982,466.441 L 536.744,482.593 L 554.691,501.438 L 571.741,527.461 L 584.304,552.587 L 588.791,567.842 L 595.97,592.071 L 594.953,601.942 C 591.932,611.813 557.383,640.529 557.383,640.529 L 517.002,664.758 L 510.721,676.424 L 506.234,682.705 L 489.184,680.91 L 474.377,691.679 L 468.544,688.089 L 464.98158,681.24704 L 455.981,681.808 C 455.981,681.808 450.63053,679.4608 450.63053,672.89609 L 443.417,671.039 L 443.417,671.039 L 440.22002,662.73809 L 430.60151,662.79507 L 425.022,655.336 C 426.28444,651.29618 435.92771,642.07151 435.92771,642.07151 C 445.77478,637.52671 460.10256,636.57456 460.10256,636.57456 L 475.75753,631.95313 L 481.899,623.766 C 496.6,609.25 494.567,627.965 494.567,627.965 L 506.233,622.581 L 521.488,599.249 L 537.641,585.789 L 538.177,575.02 L 523.282,568.738 L 510.719,557.97 L 503.539,541.817 L 499.95,527.459 L 493.669,526.562 L 495.463,569.635 L 488.284,601.94 L 484.14,615.239 L 479.06447,621.43744 L 473.58896,632.95598 L 462.708,636.32189 L 439.57251,640.80889 L 426.76498,650.7144 L 428.055,658.761 C 428.055,658.761 428.72527,662.96793 434.785,662.96793 L 440.21802,662.4826 C 440.21802,662.4826 438.19811,670.5292 445.52029,671.53915 C 445.52029,671.53915 450.20015,672.04413 450.70513,676.33644 L 455.50242,685.843 L 419.187,681.357 L 369.77502,680.4884 C 348.86207,680.4884 318.42951,671.85044 318.42951,671.85044 C 316.58425,668.77501 315.092,622.13 315.092,622.13 L 303.426,581.3 L 303.426,551.238 L 307.015,531.496 L 306.118,526.112 L 302.08,526.561 L 297.593,544.957 L 291.76,566.494 L 271.12,588.928 L 255.865,605.08 L 242.853,618.989 L 234.328,625.27 L 223.56,622.129 L 195.293,591.619 L 170.615,542.264 L 164.786,514 L 164.337,501.437 L 160.748,493.361 L 150.877,487.528 L 140.108,482.144 L 138.314,477.208 L 160.748,471.824 L 178.247,467.786 L 189.913,464.197 L 195.297,456.12 L 193.502,446.249 L 186.323,439.07 L 183.077,429.937 L 178.247,425.161 L 175,416.477 L 175.897,411.99 L 175.897,411.99 z "
         style="stroke:#eeeeee"
         id="path139" />
      <path
         d="M 297.238,753.596 C 297.238,753.596 278.533,802.899 286.379,872.946 C 286.379,872.946 290.866,882.817 286.379,889.098 C 286.379,889.098 278.303,894.483 282.79,907.045 C 282.79,907.045 289.071,917.814 282.79,924.992 C 282.79,924.992 269.673,935.599 274.608,1016.81 C 274.608,1016.81 276.508,1038.957 263.945,1049.725 L 238.37,1070.814 C 238.37,1070.814 232.986,1084.274 244.203,1076.647 C 244.203,1076.647 251.83,1070.365 247.792,1080.236 C 247.792,1080.236 243.754,1091.005 251.83,1085.172 C 251.83,1085.172 258.56,1081.134 257.663,1089.21 C 257.663,1089.21 252.622,1100.715 263.047,1095.043 C 263.047,1095.043 271.123,1087.415 270.674,1097.735 C 270.674,1097.735 267.982,1108.952 278.751,1100.426 C 278.751,1100.426 287.276,1081.133 284.135,1101.773 C 284.135,1101.773 293.109,1121.515 300.737,1100.426 L 302.531,1090.107 L 308.662,1083.377 L 312.851,1070.365 L 320.03,1062.738 C 320.03,1062.738 325.863,1056.008 319.133,1042.996 C 319.133,1042.996 310.608,1032.676 320.479,1012.934 C 320.479,1012.934 349.987,970.148 340.564,931.112 C 340.564,931.112 340.221,916.467 346.951,907.045 L 359.066,868.01 C 360.92,860.818 364.999,859.184 368.26,852.66 C 368.26,852.66 380.497,843.686 386.435,822.693 C 386.435,822.693 394.511,810.13 397.652,781.863 L 401.241,775.133 L 404.83,782.312 C 404.83,782.312 412.802,839.583 426.711,863.362 C 426.711,863.362 425.364,880.861 433.89,888.489 L 435.685,906.436 C 435.685,906.436 423.122,962.073 445.556,1008.735 C 445.556,1008.735 454.53,1029.375 445.212,1054.214 C 445.212,1054.214 429.508,1096.839 456.878,1095.044 C 456.878,1095.044 478.414,1096.839 487.837,1087.865 C 487.837,1087.865 496.811,1081.135 506.233,1089.211 C 506.233,1089.211 511.618,1095.941 534.949,1094.596 C 534.949,1094.596 567.703,1097.737 573.087,1087.866 C 573.087,1087.866 582.958,1068.572 553.794,1078.892 L 551.999,1075.751 L 563.216,1073.059 L 571.292,1073.956 C 571.292,1073.956 573.087,1066.328 562.318,1066.328 L 556.012,1066.615 L 552.448,1066.777 C 552.448,1066.777 556.784,1065.571 558.176,1063.923 C 559.539,1062.311 558.007,1060.263 552.897,1059.597 C 552.897,1059.597 519.246,1065.43 495.017,1023.254 C 495.017,1023.254 490.53,1002.166 499.055,963.131 C 499.055,963.131 507.131,928.34 493.671,927.892 L 476.516,924.383 C 476.516,924.383 468.888,920.793 476.172,919.609 L 494.568,921.852 C 494.568,921.852 503.093,923.647 500.85,911.533 C 500.85,911.533 497.26,875.189 502.644,867.113 C 502.644,867.113 513.862,856.794 508.926,775.134 L 507.579,765.711 L 297.238,753.596 L 297.238,753.596 z "
         id="path141" />
    </g>
    <path
       d="M 384.966,352.471 L 382.056,345.198 L 387.389,341.803 L 387.389,336.953 L 391.753,335.498 L 393.208,327.739 C 393.208,327.739 354.416,326.284 347.145,340.348 L 342.781,335.984 C 342.781,335.984 312.402,339.463 332.598,380.112 C 332.598,380.112 352.962,388.357 355.388,378.657 L 351.508,376.233 L 352.479,372.838 C 352.479,372.838 389.814,382.537 386.421,371.383 C 386.421,371.383 367.59,356.063 388.845,366.533 L 403.485,365.933 L 402.588,371.317 L 424.573,370.42 L 428.163,371.317 L 426.816,378.047 L 428.611,381.188 L 445.661,381.637 L 450.597,380.74 L 448.802,385.676 L 446.559,389.714 L 454.635,392.855 L 464.058,390.163 C 464.058,390.163 473.032,381.638 471.237,374.01 C 474.378,373.562 470.34,352.025 470.34,352.025 C 470.34,352.025 468.994,347.538 464.059,346.641 C 464.059,346.641 451.945,334.975 447.009,335.872 L 446.56,340.808 L 442.522,342.602 C 442.522,342.602 445.663,326.45 401.243,327.347 L 400.018,335.423 L 394.634,338.564 L 393.737,343.5 L 391.493,344.846 L 390.147,351.127 L 384.966,352.471 L 384.966,352.471 z "
       style="fill:#225500;stroke:#225500;stroke-width:0.89740002;stroke-linecap:round"
       id="Krans-huvud" />
    <path
       d="M 340.66314,377.57679 L 333.95196,382.96607 L 336.59576,390.59242 L 333.95196,399.54066 C 324.97795,439.47366 331.20648,439.09595 331.20648,439.09595 L 336.18902,437.26563 L 335.27386,455.2638 C 332.13387,470.9678 337.51092,478.9563 337.51092,478.9563 L 342.9002,475.39734 C 345.14419,494.69135 351.44171,496.54772 351.44171,496.54773 L 357.23773,485.26074 C 355.44372,509.93775 363.13543,512.20717 363.13543,512.20715 L 368.01629,503.25891 C 366.67028,524.79591 371.16851,525.62951 371.16851,525.62952 L 375.23589,513.12231 C 377.03088,532.41532 382.35381,533.25586 382.35381,533.25586 L 387.33636,522.98572 C 387.33636,539.13872 395.36944,540.47546 395.36944,540.47546 L 396.79302,527.0531 C 400.38302,513.5921 404.41936,528.78173 404.41936,528.78174 L 405.74126,543.11926 C 414.26627,537.73526 413.3676,525.22277 413.3676,525.22278 L 419.16362,531.52722 C 426.34262,527.93722 425.06136,509.05493 425.06133,509.05493 L 432.68767,521.66382 C 438.07266,517.62582 436.65337,501.83533 436.65337,501.83533 L 440.72075,508.13977 C 444.31075,504.10177 442.04262,494.20898 442.04265,494.20899 L 450.17742,497.36121 C 455.11343,484.79821 449.66899,470.92322 449.66899,470.92322 L 455.5667,473.16028 C 458.70769,465.98128 455.05827,455.67054 455.05827,455.67054 C 456.85326,461.50354 462.68462,458.31434 462.68462,458.31434 C 465.37661,401.78033 456.8886,392.82948 456.8886,392.82948 C 452.8506,386.09948 446.51677,389.67726 446.51677,389.67726 L 446.51677,415.30177 C 429.46676,447.60677 418.2485,428.72413 418.24846,428.72413 C 410.17246,419.75113 404.8261,426.9955 404.8261,426.99549 C 400.33909,432.82849 394.9627,427.80897 394.9627,427.80897 C 388.68071,420.62997 380.11678,431.46961 380.11675,431.46961 C 358.58074,440.44361 355.71246,414.79334 355.71246,414.79334 L 354.89898,385.50819 L 352.35687,381.44081 L 340.66314,377.57679 z M 399.13177,440.31617 C 403.7008,440.12325 409.10554,440.79564 414.99456,443.26502 C 414.99459,443.26502 417.75885,449.22809 411.02886,447.43409 C 411.02886,447.43409 397.52463,445.23235 390.79363,447.02735 C 390.79363,447.02734 381.38018,451.48702 386.4212,443.26502 C 386.4212,443.26502 391.51671,440.6377 399.13177,440.31617 z "
       style="fill:#d40000;stroke:#eeeeee;stroke-width:2"
       id="Beard" />
    <g
       style="fill:#eeeeee"
       id="Features">
      <path
         d="M 329.99,522.83 C 341.118,527.497 350.808,531.804 361.936,536.829 C 365.166,537.548 370.55,533.599 371.988,538.983 C 371.988,543.65 367.321,542.572 364.45,542.213 C 360.501,541.856 356.553,538.266 352.246,538.266 C 343.51155,535.41549 336.06645,529.11159 327.12,527.498 C 319.223,523.909 309.53,516.011 300.916,522.114 C 300.199,522.471 300.199,523.19 299.121,522.831 C 296.967,521.755 296.609,519.242 296.967,517.447 C 302.351,514.576 309.53,514.576 315.274,516.371 C 319.94,518.881 325.324,520.318 329.99,522.83 L 329.99,522.83 z "
         id="path147" />
      <path
         d="M 509.104,528.574 C 508.747,533.599 503.001,531.087 499.773,530.728 C 490.799,533.24 481.826,527.139 472.491,531.087 C 458.134,537.188 444.137,544.726 428.342,547.24 C 426.547,546.881 425.11,544.367 426.547,542.213 C 428.342,540.418 430.855,542.213 433.007,542.213 C 443.45474,539.44576 452.46964,533.10065 462.799,530.727 C 469.62,527.497 478.594,523.548 486.491,524.624 C 492.233,526.059 499.412,527.497 505.157,523.907 C 506.951,524.625 509.104,526.06 509.104,528.574 L 509.104,528.574 z "
         id="path149" />
      <path
         d="M 353.681,571.647 C 354.757,571.647 356.552,570.571 357.27,572.366 C 358.346,573.442 357.27,574.878 356.911,575.955 C 355.476,577.031 353.322,577.75 351.527,577.031 C 348.656,574.877 345.424,573.801 343.989,570.211 C 341.478,569.493 338.964,566.262 336.451,568.417 C 334.656,568.776 331.067,568.417 331.067,565.544 C 332.862,559.084 338.246,564.108 341.836,561.955 L 346.861,564.828 C 348.03283,568.79556 350.23403,570.10873 353.681,571.647 z "
         id="path151" />
      <path
         d="M 477.874,561.238 C 477.517,562.674 476.44,564.468 474.285,565.187 C 467.824,565.544 461.364,568.417 457.774,573.801 C 457.056,574.518 455.261,576.312 453.466,575.237 C 448.8,573.083 454.185,570.929 454.904,568.417 C 460.645,564.468 468.543,563.75 472.851,558.725 C 474.646,559.443 477.517,558.725 477.874,561.238 L 477.874,561.238 z "
         id="path153" />
      <path
         d="M 345.066,590.311 C 347.218,589.596 348.296,591.03 349.732,592.106 C 353.321,592.825 357.27,592.825 359.782,596.056 C 359.782,598.566 357.27,598.208 355.835,599.285 C 351.886,595.338 345.784,596.414 341.478,592.825 C 338.964,590.69227 339.324,590.311 337.17,590.673 C 335.016,588.878 331.067,592.107 330.35,588.159 C 331.786,584.93 333.939,583.851 337.529,584.93 C 340.04,587.083 342.912,587.44 345.066,590.311 L 345.066,590.311 z "
         id="path155" />
      <path
         d="M 473.928,588.516 C 468.183,594.62 457.414,592.467 453.467,600.365 C 452.029,600.722 450.596,601.441 449.877,600.004 C 448.801,599.647 449.52,597.49 450.235,596.414 C 456.48048,591.64998 465.82387,585.43145 472.851,586.004 L 473.928,588.516 L 473.928,588.516 z "
         id="path157" />
      <path
         d="M 348.296,615.08 C 352.245,617.951 355.116,623.335 361.218,621.184 C 363.013,622.618 361.935,624.412 360.859,625.849 C 357.27,625.849 354.04,628.001 351.526,625.488 C 351.885,623.697 349.732,621.902 348.655,620.466 C 344.347,618.671 340.758,615.8 335.373,616.519 C 334.297,615.081 334.297,612.569 336.809,612.569 C 339.682,611.85 341.476,612.569 343.988,613.288 C 345.424,614.003 346.502,615.798 348.296,615.08 L 348.296,615.08 z "
         id="path159" />
      <path
         d="M 474.285,615.798 C 471.771,620.103 468.182,615.798 465.311,618.669 C 459.208,620.103 456.337,627.285 450.235,625.848 C 448.44,624.772 449.877,622.977 450.953,621.901 C 457.414,617.951 463.878,613.643 471.057,611.133 C 472.133,612.567 475.722,612.927 474.285,615.798 L 474.285,615.798 z "
         id="path161" />
      <path
         d="M 407.88,656.359 C 406.804,659.229 403.933,661.024 401.42,662.462 C 397.83,663.538 396.754,659.948 395.319,658.154 C 395.676,655.64 394.241,654.207 394.6,652.408 C 394.241,648.462 397.471,647.386 398.908,645.233 C 403.933,647.385 407.522,651.332 407.88,656.359 L 407.88,656.359 z "
         id="path163" />
      <g
         style="fill:none;stroke:#eeeeee;stroke-width:3.58949995"
         id="g2377">
        <path
           d="M 228.393,535.826 C 244.097,545.697 247.686,553.325 251.725,566.336 L 252.174,584.732"
           id="path165" />
        <path
           d="M 433.89,826.571 C 435.236,847.659 444.659,856.633 452.735,870.542 M 452.734,896.565 C 454.529,908.231 457.22,911.82 461.708,919.896 M 457.221,1008.735 C 458.568,1015.017 459.913,1030.72 459.913,1038.348 C 459.913,1048.667 454.529,1053.603 454.529,1060.783 C 454.529,1067.512 458.118,1071.551 463.503,1072.448 M 322.616,958.483 C 319.475,972.84 318.129,984.506 314.54,999.761 L 314.54,1010.53 M 338.769,856.183 C 313.194,868.746 333.385,927.075 299.285,927.075 C 296.144,927.075 293.452,924.832 290.311,924.384 M 308.259,893.873 L 303.772,893.873 M 337.872,902.846 L 329.796,922.588 M 369.279,831.057 C 365.241,839.133 364.343,844.069 363.895,853.492"
           id="path183" />
      </g>
    </g>
    <path
       d="M 406.625,678.218 C 406.625,678.218 360.859,680.909 318.684,670.59 L 317.338,662.514 C 317.338,662.514 295.833,656.233 296.281,680.012 C 296.281,680.012 296.73,697.063 287.307,708.28 C 287.307,708.28 277.885,715.01 283.718,745.072 C 283.718,745.072 276.508,755.84 301.634,763.917 C 301.634,763.917 385.987,817.759 509.374,771.096 C 509.374,771.096 521.04,767.506 519.694,744.175 C 519.694,744.175 525.975,696.614 513.412,695.717 C 513.412,695.717 506.233,694.82 508.028,687.641 C 508.028,687.641 508.82,683.89 501.298,683.155 C 501.298,683.155 491.683,679.225 489.184,680.911 C 486.874,682.468 482.868,686.519 479.762,688.09 C 473.929,688.987 470.293,692.897 468.544,688.09 C 469.596,688.879 464.506,682.706 464.506,682.706 C 462.252,681.942 446.146,684.003 444.242,683.352 C 440.077,681.928 437.137,680.912 437.137,680.912 L 406.625,678.218 L 406.625,678.218 z "
       style="fill:#225500;stroke:#225500;stroke-width:0.89740002;stroke-linecap:round"
       id="Krans-land" />
    <g
       style="fill:none;stroke:#eeeeee;stroke-width:3.58949995"
       id="Hand">
      <path
         d="M 440.171,663.25 C 439.274,672.672 445.107,672.224 450.491,672.224 C 460.361,672.224 463.951,666.839 471.579,664.596 M 450.491,672.672 C 449.594,682.094 455.427,681.646 460.81,681.646 C 470.681,681.646 472.027,675.365 479.655,673.122"
         id="path187" />
      <path
         d="M 465.746,680.749 C 464.849,690.172 470.829,690.971 476.065,689.723 C 485.488,687.48 484.59,681.647 492.217,679.404 C 498.499,680.301 507.024,683.442 513.306,682.545"
         id="path189" />
      <path
         d="M 474.271,631.842 C 478.01747,626.35669 478.309,627.804 474.271,631.842 C 471.58,634.534 461.259,637.226 454.081,637.226 C 442.415,637.226 429.852,645.303 425.814,653.379 C 425.365,661.455 430.3,663.25 433.89,663.25 C 437.479,663.25 461.708,654.276 461.708,653.827"
         id="path191" />
    </g>
    <path
       d="M 401.584,394.042 C 401.584,394.042 402.481,417.822 409.212,420.963 C 409.212,420.963 414.597,419.617 416.84,423.207 C 416.84,423.207 417.169,421.084 408.953,416.382 C 408.953,416.382 406.519,417.822 403.828,396.286 L 403.379,393.145 L 401.584,394.042 L 401.584,394.042 z "
       style="fill:#eeeeee;stroke:#eeeeee;stroke-width:0.89740002"
       id="Nose" />
    <g
       id="Eye">
      <path
         d="M 390.72961,386.53435 C 385.01644,385.46313 382.33838,392.78313 363.77058,387.42703"
         style="fill:none;stroke:#eeeeee;stroke-width:3.25390601px;stroke-linecap:round"
         id="use2405" />
      <path
         d="M 385.15293,398.83107 C 385.15293,401.07627 383.33074,402.89845 381.08557,402.89845 C 378.84036,402.89845 377.01817,401.07627 377.01817,398.83107 C 377.01817,396.58588 378.84036,394.76371 381.08557,394.76371 C 383.33074,394.76371 385.15293,396.58588 385.15293,398.83107 z "
         style="fill:#eeeeee"
         id="path2407" />
    </g>
    <use
       transform="matrix(-1,0,0,1,797.349,0)"
       id="Eye-2"
       x="0"
       y="0"
       width="251"
       height="304.20001"
       xlink:href="#Eye" />
  </g>
  <path
     d="M 249.55062,1.4395041 L 1.449569,1.4395041 L 1.449569,174.9361 C 0.68232904,268.65698 81.739009,302.75585 125.5001,302.75585 C 168.49395,302.75585 250.31785,268.65698 249.55062,174.9361 L 249.55062,1.4395041 z "
     style="fill:none;fill-opacity:0;stroke:#000000;stroke-width:1.88832211;stroke-linecap:round"
     id="Frame" />
</svg>
