<?xml version="1.0" encoding="UTF-8" standalone="no"?>
<!-- Created with Inkscape (http://www.inkscape.org/) -->
<svg
   xmlns:dc="http://purl.org/dc/elements/1.1/"
   xmlns:cc="http://web.resource.org/cc/"
   xmlns:rdf="http://www.w3.org/1999/02/22-rdf-syntax-ns#"
   xmlns:svg="http://www.w3.org/2000/svg"
   xmlns="http://www.w3.org/2000/svg"
   version="1.0"
   width="251"
   height="304.20001"
   id="svg4166">
  <defs
     id="defs4168" />
  <metadata
     id="metadata1880"><rdf:RDF><cc:Work
         rdf:about=""><dc:title>Medelpad landskapsvapen</dc:title><dc:date>23-10-2007</dc:date><dc:creator><cc:Agent><dc:title>Lokal_Profil</dc:title></cc:Agent></dc:creator><cc:license
         rdf:resource="http://creativecommons.org/licenses/by-sa/2.5/" /><dc:rights><cc:Agent><dc:title>cc-by-sa-2.5</dc:title></cc:Agent></dc:rights><dc:format>image/svg+xml</dc:format><dc:type
         rdf:resource="http://purl.org/dc/dcmitype/StillImage" /></cc:Work><cc:License
         rdf:about="http://creativecommons.org/licenses/by-sa/2.5/"><cc:permits
         rdf:resource="http://web.resource.org/cc/Reproduction" /><cc:permits
         rdf:resource="http://web.resource.org/cc/Distribution" /><cc:requires
         rdf:resource="http://web.resource.org/cc/Notice" /><cc:requires
         rdf:resource="http://web.resource.org/cc/Attribution" /><cc:permits
         rdf:resource="http://web.resource.org/cc/DerivativeWorks" /><cc:requires
         rdf:resource="http://web.resource.org/cc/ShareAlike" /></cc:License></rdf:RDF>
  </metadata>
  <path
     d="M 249.55058,1.4395041 L 1.4495291,1.4395041 L 1.4495291,174.9361 C 0.68228908,268.65698 81.738969,302.75585 125.50006,302.75585 C 168.49391,302.75585 250.31781,268.65698 249.55058,174.9361 L 249.55058,1.4395041 z "
     style="color:#000000;fill:#003d8f;fill-opacity:1;stroke:none"
     id="Shield" />
  <path
     d="M 32.21875,44.0625 C 15.918695,44.062508 10.666529,53.527419 1.4375,59.5625 L 1.4375,138.8125 C 4.2745302,138.8125 248.69558,138.8125 249.5625,138.8125 L 249.5625,56 C 242.81062,50.391052 236.85036,44.0625 223.53125,44.0625 C 199.61486,44.062509 199.63512,64.5 175.71875,64.5 C 151.80237,64.499989 151.82263,44.0625 127.90625,44.0625 C 103.98986,44.062509 103.97888,64.5 80.0625,64.5 C 56.14611,64.499989 56.135126,44.0625 32.21875,44.0625 z "
     style="color:#000000;fill:#eeeeee;fill-opacity:1;fill-rule:nonzero;stroke:none;stroke-width:1.88832211;stroke-linecap:round;stroke-linejoin:bevel;marker:none;marker-start:none;marker-mid:none;marker-end:none;stroke-miterlimit:4;stroke-dashoffset:0;stroke-opacity:1;visibility:visible;display:block"
     id="wave-divider-2" />
  <path
     d="M 32.21875,102.71875 C 15.918695,102.71876 10.666529,112.18367 1.4375,118.21875 L 1.4375,174.9375 C 1.372511,182.87611 1.9319747,190.37019 2.96875,197.46875 C 8.7198691,197.46875 244.20191,197.46875 248.03125,197.46875 C 249.07746,190.37073 249.62748,182.87543 249.5625,174.9375 L 249.5625,114.65625 C 242.81062,109.0473 236.85036,102.71875 223.53125,102.71875 C 199.61486,102.71876 199.63512,123.15625 175.71875,123.15625 C 151.80237,123.15624 151.82263,102.71875 127.90625,102.71875 C 103.98986,102.71876 103.97888,123.15625 80.0625,123.15625 C 56.14611,123.15624 56.135126,102.71875 32.21875,102.71875 z "
     style="color:#000000;fill:#d40000;fill-opacity:1;fill-rule:nonzero;stroke:none;stroke-width:1.88832211;stroke-linecap:round;stroke-linejoin:bevel;marker:none;marker-start:none;marker-mid:none;marker-end:none;stroke-miterlimit:4;stroke-dashoffset:0;stroke-opacity:1;visibility:visible;display:block"
     id="wave-divider" />
  <path
     d="M 32.21875,161.40625 C 15.918696,161.40626 10.667273,170.87117 1.4375,176.90625 C 1.5183886,196.38682 5.1744175,213.26388 11.28125,227.75 C 16.417829,223.61715 22.249243,220.06251 32.21875,220.0625 C 56.135126,220.0625 56.14611,240.49999 80.0625,240.5 C 103.97888,240.5 103.98986,220.06251 127.90625,220.0625 C 151.82263,220.0625 151.80237,240.49999 175.71875,240.5 C 199.63512,240.5 199.61486,220.06251 223.53125,220.0625 C 231.18792,220.0625 236.41115,222.15443 240.75,225 C 246.42346,210.63931 249.71881,194.03211 249.5625,174.9375 L 249.5625,173.34375 C 242.81107,167.7348 236.85036,161.40625 223.53125,161.40625 C 199.61486,161.40626 199.63512,181.84375 175.71875,181.84375 C 151.80237,181.84374 151.82263,161.40625 127.90625,161.40625 C 103.98986,161.40626 103.97888,181.84375 80.0625,181.84375 C 56.14611,181.84374 56.135126,161.40625 32.21875,161.40625 z "
     style="color:#000000;fill:#eeeeee;fill-opacity:1;fill-rule:nonzero;stroke:none;stroke-width:1.88832211;stroke-linecap:round;stroke-linejoin:bevel;marker:none;marker-start:none;marker-mid:none;marker-end:none;stroke-miterlimit:4;stroke-dashoffset:0;stroke-opacity:1;visibility:visible;display:block"
     id="wave-divider-3" />
  <path
     d="M 249.55062,1.4395041 L 1.449569,1.4395041 L 1.449569,174.9361 C 0.68232904,268.65698 81.739009,302.75585 125.5001,302.75585 C 168.49395,302.75585 250.31785,268.65698 249.55062,174.9361 L 249.55062,1.4395041 z "
     style="fill:none;fill-opacity:0;stroke:#000000;stroke-width:1.88832211;stroke-linejoin:bevel"
     id="Frame" />
</svg>
