<?xml version="1.0" encoding="UTF-8" standalone="no"?>
<!-- Created with Inkscape (http://www.inkscape.org/) -->
<svg
   xmlns:dc="http://purl.org/dc/elements/1.1/"
   xmlns:cc="http://web.resource.org/cc/"
   xmlns:rdf="http://www.w3.org/1999/02/22-rdf-syntax-ns#"
   xmlns:svg="http://www.w3.org/2000/svg"
   xmlns="http://www.w3.org/2000/svg"
   xmlns:xlink="http://www.w3.org/1999/xlink"
   version="1.0"
   width="251"
   height="304.20001"
   id="svg4166">
  <defs
     id="defs4168" />
  <metadata
     id="metadata1880"><rdf:RDF><cc:Work
         rdf:about=""><dc:title>Narke landskapsvapen</dc:title><dc:date>29-10-2007</dc:date><dc:creator><cc:Agent><dc:title>Lokal_Profil</dc:title></cc:Agent></dc:creator><cc:license
         rdf:resource="http://creativecommons.org/licenses/by-sa/2.5/" /><dc:rights><cc:Agent><dc:title>cc-by-sa-2.5</dc:title></cc:Agent></dc:rights><dc:format>image/svg+xml</dc:format><dc:type
         rdf:resource="http://purl.org/dc/dcmitype/StillImage" /></cc:Work><cc:License
         rdf:about="http://creativecommons.org/licenses/by-sa/2.5/"><cc:permits
         rdf:resource="http://web.resource.org/cc/Reproduction" /><cc:permits
         rdf:resource="http://web.resource.org/cc/Distribution" /><cc:requires
         rdf:resource="http://web.resource.org/cc/Notice" /><cc:requires
         rdf:resource="http://web.resource.org/cc/Attribution" /><cc:permits
         rdf:resource="http://web.resource.org/cc/DerivativeWorks" /><cc:requires
         rdf:resource="http://web.resource.org/cc/ShareAlike" /></cc:License></rdf:RDF>
  </metadata>
  <path
     d="M 249.55058,1.4395041 L 1.4495291,1.4395041 L 1.4495291,174.9361 C 0.68228908,268.65698 81.738969,302.75585 125.50006,302.75585 C 168.49391,302.75585 250.31781,268.65698 249.55058,174.9361 L 249.55058,1.4395041 z "
     style="fill:#d40000;stroke:none"
     id="Shield" />
  <g
     transform="matrix(0.382542,-0.320991,0.320991,0.382542,-90.09626,98.67347)"
     id="Pil">
    <g
       style="fill:#eeeeee;stroke:#d40000;stroke-width:3"
       id="Spets">
      <path
         d="M 275.7168,33.870317 C 275.7168,33.870317 268.33152,56.07009 260.96886,81.156891 C 253.6062,106.2437 243.57672,134.21753 243.57672,134.21753 C 249.87464,119.59643 258.43115,117.61912 268.30299,110.10166 L 282.22492,109.98487 C 291.20133,120.43347 300.88403,120.05628 307.59869,135.11228 C 307.59869,135.11228 297.83665,108.32132 290.19256,83.010825 C 282.54847,57.700338 275.7168,33.870317 275.7168,33.870317 z "
         id="path2849" />
      <path
         d="M 268.64085,111.04954 L 266.97864,125.28908 L 284.13392,125.13424 L 282.25204,111.07832 L 268.64085,111.04954 z "
         id="path2856" />
    </g>
    <path
       d="M -614.16232,269.9565 L -126.74087,269.9565 L -126.75714,281.54531 L -614.17859,281.54531 L -614.16232,269.9565 z "
       transform="matrix(-1.166679e-4,-1,0.999992,-4.072233e-3,0,0)"
       style="fill:#ffcd50;stroke:#d40000;stroke-width:3"
       id="Skaft" />
    <g
       style="fill:#ffcd50;stroke:#d40000;stroke-width:3"
       id="Fletch">
      <path
         d="M 268.40958,594.68656 L 242.63843,612.83527 L 244.56003,540.42553 L 268.40243,520.6114 L 268.40958,594.68656 z "
         id="path3783" />
      <path
         d="M 283.34995,594.31458 L 309.1211,612.46329 L 307.1995,540.05355 L 283.3571,520.23942 L 283.34995,594.31458 z "
         id="path1930" />
    </g>
  </g>
  <use
     transform="matrix(-1,0,0,1,250.9998,0)"
     id="Pil-2"
     x="0"
     y="0"
     width="251"
     height="304.20001"
     xlink:href="#Pil" />
  <g
     transform="matrix(0.405095,0,0,0.405155,85.06543,32.87932)"
     style="fill:#eeeeee;stroke:#d40000;stroke-width:2.4732132"
     id="Rose">
    <g
       id="g2344">
      <path
         d="M 197.32069,111.1417 C 189.1313,106.78882 176.15609,97.460484 168.42731,86.782708 L 133.05236,87.83619 L 129.45211,98.819066 L 162.02083,115.52815 C 178.05306,112.27174 187.96198,109.38515 197.32069,111.1417 z "
         id="path2122" />
      <path
         d="M 100.00147,177.25134 C 101.7425,168.14187 106.82423,152.99096 114.74419,142.45421 L 103.29363,108.96717 L 91.737395,108.76998 L 85.388678,144.82007 C 93.233255,159.17622 98.916672,167.7912 100.00147,177.25134 z "
         id="path2124" />
      <path
         d="M 2.3094696,113.03009 C 11.550738,112.24734 27.510972,113.05035 39.794557,117.83183 L 68.947203,97.766434 L 66.017425,86.586013 L 29.591896,90.204868 C 17.886414,101.6337 11.125536,109.43176 2.3094696,113.03009 z "
         id="path2126" />
      <path
         d="M 161.79539,2.5455957 C 154.15681,7.8054365 139.89658,15.01789 126.85796,16.952692 L 111.48186,48.828585 L 119.56755,57.087339 L 149.41144,35.891647 C 153.91409,20.16388 155.92153,10.040173 161.79539,2.5455957 z "
         id="path2128" />
      <path
         d="M 38.758,3.4743694 C 42.972427,11.735866 48.255674,26.817682 48.466649,39.997384 L 78.054914,59.414683 L 87.301248,52.479934 L 70.195533,20.117769 C 55.192702,13.594612 45.418985,10.278945 38.758,3.4743694 z "
         id="path2130" />
    </g>
    <g
       id="g2326">
      <path
         d="M 79.431709,6.1722026 C 72.829097,6.1120795 67.44217,9.0977457 64.243533,17.547553 C 62.83182,24.975476 62.235266,31.998456 65.60706,37.034626 C 77.851676,56.601501 84.313394,63.712906 92.341027,74.197049 C 94.496671,62.824373 96.987523,53.459123 97.896137,34.604265 C 98.804749,53.459161 101.2956,62.824363 103.45125,74.197049 C 112.53494,61.894709 121.76976,49.66793 130.19153,37.034626 C 133.56331,31.998456 132.96045,24.975476 131.54874,17.547553 C 127.61195,7.1477902 120.36187,5.0258494 111.60716,6.6709 C 106.82053,7.9596097 103.35502,9.9948483 98.016077,9.8461504 L 98.0053,9.8469048 L 97.784358,9.8469048 L 97.78251,9.8461504 C 92.443566,9.9948483 88.971756,7.9596097 84.185116,6.6709 C 82.543607,6.362453 80.955389,6.186077 79.431709,6.1722026 z "
         id="path2134" />
      <path
         d="M 97.896137,34.604265 C 96.987523,53.459123 94.496671,62.824373 92.341027,74.197049 C 92.309599,74.156004 92.277717,74.118051 92.246338,74.077109 L 92.258963,74.316989 L 103.36287,74.316989 L 103.38812,73.868793 C 101.24712,62.643893 98.795938,53.276299 97.896137,34.604265 z "
         id="path2136" />
      <path
         d="M 20.213219,77.410383 C 18.206638,83.700996 19.468986,89.729238 26.597959,95.279766 C 33.278102,98.821341 39.81199,101.46454 45.619094,99.729727 C 67.928648,93.807082 76.630671,89.732674 89.017391,85.157794 C 78.787912,79.740926 70.575349,74.596393 52.829006,68.162186 C 71.111843,72.860165 80.794994,73.244992 92.297207,74.542712 C 83.224702,62.232106 74.269004,49.799416 64.684882,38.023532 C 60.868529,33.315298 53.980567,31.818058 46.466927,30.974084 C 35.368474,31.665343 31.200824,37.965905 30.188109,46.816084 C 30.006338,51.769832 30.927834,55.68171 29.209669,60.738822 L 29.207208,60.749342 L 29.141985,60.960436 L 29.140719,60.961979 C 27.706696,66.106886 24.737258,68.823155 22.09293,73.016037 C 21.313644,74.493335 20.676276,75.958704 20.213219,77.410383 z "
         id="path2138" />
      <path
         d="M 52.829006,68.162186 C 70.575349,74.596393 78.787912,79.740926 89.017391,85.157794 C 88.968898,85.175704 88.923225,85.194961 88.874845,85.212857 L 89.107759,85.271607 L 92.385711,74.662557 L 91.964944,74.506121 C 80.608255,73.238037 70.93453,72.8146 52.829006,68.162186 z "
         id="path2140" />
      <path
         d="M 158.86408,130.70045 C 164.13492,126.72348 166.58547,121.073 163.97059,112.42471 C 160.56202,105.67575 156.75407,99.744677 151.01129,97.807555 C 129.37741,89.75971 119.92015,88.060919 107.16565,84.642908 C 112.389,94.972526 116.12299,103.91509 126.89568,119.41605 C 114.68237,105.02275 106.99918,99.11683 98.358072,91.415153 C 98.655915,106.70476 98.787896,122.02658 99.812216,137.17508 C 100.20905,143.22276 104.96783,148.42273 110.61465,153.45067 C 120.07471,159.29537 127.11562,156.55823 133.05314,149.91768 C 136.06219,145.97837 137.56887,142.25254 141.89194,139.11606 L 141.90002,139.10889 L 142.07517,138.97422 L 142.0771,138.97369 C 146.21888,135.60145 150.21173,135.09863 154.79185,133.20255 C 156.28117,132.44649 157.64773,131.61821 158.86408,130.70045 z "
         id="path2142" />
      <path
         d="M 126.89568,119.41605 C 116.12299,103.91509 112.389,94.972526 107.16565,84.642908 C 107.21559,84.656289 107.264,84.666943 107.31383,84.680273 L 107.1576,84.497805 L 98.355024,91.266201 L 98.608205,91.636899 C 107.14762,99.230344 114.80082,105.16235 126.89568,119.41605 z "
         id="path2144" />
      <path
         d="M 70.902906,154.77894 C 76.349274,158.51194 82.485682,159.03891 89.85393,153.81018 C 95.169069,148.43279 99.581772,142.93677 99.592613,136.87609 C 100.34494,113.80602 98.948889,104.29934 98.134581,91.119912 C 90.001532,99.356308 82.710062,105.73963 71.438257,120.88157 C 81.20186,104.72591 84.358686,95.563709 88.913543,84.922365 C 74.5119,90.065714 60.026981,95.062048 45.99009,100.84932 C 40.382344,103.14827 36.965107,109.31336 33.993299,116.26573 C 31.45944,127.09315 36.293046,132.89854 44.476757,136.4168 C 49.168342,138.01733 53.179879,138.2613 57.528042,141.36291 L 57.537407,141.36829 L 57.72078,141.49154 L 57.721893,141.4932 C 62.235949,144.34797 63.982108,147.9738 67.235956,151.71348 C 68.426283,152.88515 69.646054,153.91748 70.902906,154.77894 z "
         id="path2146" />
      <path
         d="M 71.438257,120.88157 C 82.710062,105.73963 90.001532,99.356308 98.134581,91.119912 C 98.13777,91.17151 98.143059,91.220793 98.146265,91.272278 L 98.269596,91.066145 L 89.053798,84.872118 L 88.782826,85.230019 C 84.298252,95.740537 81.107167,104.88259 71.438257,120.88157 z "
         id="path2148" />
      <path
         d="M 164.27449,40.103305 C 162.2179,33.828877 157.66494,29.681145 148.63586,29.35567 C 141.14689,30.395981 134.3025,32.078928 130.61067,36.885418 C 115.993,54.749235 111.32425,63.147356 103.96149,74.108632 C 115.42577,72.51036 125.09557,71.872254 143.24914,66.697465 C 125.67724,73.593869 117.60217,78.951528 107.51796,84.634232 C 122.08071,89.301864 136.62026,94.136856 151.28467,98.071449 C 157.13518,99.653696 163.59563,96.834446 170.18079,93.119279 C 178.77312,86.060597 178.4626,78.512764 174.10166,70.745318 C 171.34852,66.623085 168.31104,63.991431 166.74287,58.885823 L 166.73871,58.875854 L 166.66798,58.666539 L 166.66811,58.664546 C 164.81819,53.654137 165.63498,49.713518 165.32364,44.766224 C 165.0904,43.112355 164.74909,41.551249 164.27449,40.103305 z "
         id="path2150" />
      <path
         d="M 143.24902,66.69768 C 125.09541,71.872466 115.4256,72.510569 103.96129,74.108835 C 103.99011,74.065922 104.01586,74.023569 104.0446,73.980735 L 103.82139,74.069483 L 107.37584,84.589127 L 107.80853,84.469578 C 117.75745,78.848052 125.8475,73.527203 143.24902,66.69768 z "
         id="path2154" />
    </g>
    <path
       d="M 123.58473,81.914274 C 123.58859,95.567144 112.2331,106.63697 98.224075,106.63697 C 84.215043,106.63697 72.859559,95.567144 72.86341,81.914274 C 72.859559,68.261405 84.215043,57.191578 98.224075,57.191578 C 112.2331,57.191578 123.58859,68.261405 123.58473,81.914274 L 123.58473,81.914274 z "
       id="path2156" />
  </g>
  <use
     transform="translate(-4.341011e-6,158.3375)"
     id="Rose-2"
     x="0"
     y="0"
     width="251"
     height="304.20001"
     xlink:href="#Rose" />
  <use
     transform="translate(-67.5,74.50545)"
     id="Rose-3"
     x="0"
     y="0"
     width="251"
     height="304.20001"
     xlink:href="#Rose" />
  <use
     transform="translate(67.5,74.50545)"
     id="Rose-4"
     x="0"
     y="0"
     width="251"
     height="304.20001"
     xlink:href="#Rose" />
  <path
     d="M 249.55062,1.4395041 L 1.449569,1.4395041 L 1.449569,174.9361 C 0.68232904,268.65698 81.739009,302.75585 125.5001,302.75585 C 168.49395,302.75585 250.31785,268.65698 249.55062,174.9361 L 249.55062,1.4395041 z "
     style="fill:none;fill-opacity:0;stroke:#000000;stroke-width:1.88832211;stroke-linejoin:bevel"
     id="Frame" />
</svg>
