<?xml version="1.0" encoding="UTF-8" standalone="no"?>
<!-- Created with Inkscape (http://www.inkscape.org/) -->
<svg
   xmlns:dc="http://purl.org/dc/elements/1.1/"
   xmlns:cc="http://web.resource.org/cc/"
   xmlns:rdf="http://www.w3.org/1999/02/22-rdf-syntax-ns#"
   xmlns:svg="http://www.w3.org/2000/svg"
   xmlns="http://www.w3.org/2000/svg"
   xmlns:xlink="http://www.w3.org/1999/xlink"
   version="1.0"
   width="252"
   height="303.20468"
   id="svg1903">
  <defs
     id="defs1906" />
  <metadata
     id="metadata1880"><rdf:RDF><cc:Work
         rdf:about=""><dc:title>Vasterbotten landskapsvapen</dc:title><dc:date>26-01-2008</dc:date><dc:creator><cc:Agent><dc:title>Lokal_Profil</dc:title></cc:Agent></dc:creator><cc:license
         rdf:resource="http://creativecommons.org/licenses/by-sa/2.5/" /><dc:rights><cc:Agent><dc:title>cc-by-sa-2.5</dc:title></cc:Agent></dc:rights><dc:format>image/svg+xml</dc:format><dc:type
         rdf:resource="http://purl.org/dc/dcmitype/StillImage" /></cc:Work><cc:License
         rdf:about="http://creativecommons.org/licenses/by-sa/2.5/"><cc:permits
         rdf:resource="http://web.resource.org/cc/Reproduction" /><cc:permits
         rdf:resource="http://web.resource.org/cc/Distribution" /><cc:requires
         rdf:resource="http://web.resource.org/cc/Notice" /><cc:requires
         rdf:resource="http://web.resource.org/cc/Attribution" /><cc:permits
         rdf:resource="http://web.resource.org/cc/DerivativeWorks" /><cc:requires
         rdf:resource="http://web.resource.org/cc/ShareAlike" /></cc:License></rdf:RDF>
  </metadata>
  <path
     d="M 249.05058,0.9441611 L 125.00008,0.9441611 L 0.9495291,0.9441611 L 0.9495291,174.44076 C 0.18228908,268.16164 81.238969,302.26051 125.00006,302.26051 C 167.99391,302.26051 249.81781,268.16164 249.05058,174.44076 L 249.05058,0.9441611 z "
     style="fill:#003d8f;stroke:none"
     id="Shield" />
  <g
     transform="matrix(0.949025,0,0,0.949025,245.097,9.3913)"
     style="fill:#eeeeee"
     id="Reindeer">
    <path
       d="M -105.03045,231.96151 C -103.26726,229.85967 -100.26171,229.86187 -99.084257,231.96586 C -97.798297,234.26373 -96.244197,232.95835 -95.491947,228.94847 C -94.746877,224.97692 -90.042157,218.42545 -81.400327,209.32546 C -76.114487,203.75937 -75.134587,202.13874 -74.580317,198.04589 C -74.224317,195.41713 -72.997247,191.091 -71.853497,188.43228 L -69.773947,183.59824 L -72.838417,178.76607 C -74.523877,176.10837 -75.902887,173.38773 -75.902887,172.72019 C -75.902887,171.14315 -85.802517,173.61948 -87.125677,175.52751 C -87.625057,176.24763 -87.755167,182.65225 -87.417947,189.91381 L -86.810127,203.00216 L -90.301537,209.7005 C -95.385697,219.45455 -99.078287,223.63086 -107.70974,229.38913 C -107.70974,229.38913 -105.03045,231.96151 -105.03045,231.96151 z "
       id="Back-left" />
    <path
       d="M -175.92163,92.338518 C -175.92163,92.338516 -192.40731,92.872339 -192.40731,92.872339 C -190.95293,93.396816 -192.5906,94.06193 -198.43635,95.384442 C -202.85774,96.384711 -209.24447,98.60344 -212.62973,100.28304 C -216.01499,101.96264 -219.06956,103.32896 -219.41241,103.32896 C -220.83466,103.32896 -232.87727,110.92256 -233.35458,112.12132 C -233.63969,112.83738 -233.42726,113.14818 -232.88356,112.81215 C -232.31542,112.46102 -231.91012,113.49216 -231.91012,115.23005 C -231.91012,118.7317 -229.70907,120.31199 -224.71922,120.37986 L -221.39069,120.41126 L -224.37381,121.66731 C -226.60546,122.61911 -226.9614,123.10068 -225.78687,123.55139 C -224.92829,123.88086 -222.26947,123.26939 -219.88343,122.20113 C -216.13734,120.52395 -214.21259,120.33752 -205.84705,120.91368 L -196.17546,121.60451 L -195.98705,136.80273 C -195.86845,146.95835 -195.2842,153.79065 -194.25998,157.40197 C -193.41642,160.37634 -192.47409,163.94009 -192.1561,165.31509 C -191.83811,166.6901 -191.03683,168.28204 -190.36622,168.83204 C -182.17127,176.78815 -179.86071,176.94104 -171.83947,176.39974 C -171.79738,176.63311 -171.5841,177.60394 -171.39985,178.56643 C -171.2156,179.52893 -171.54289,180.3249 -172.09068,180.3249 C -173.23176,180.3249 -183.17582,187.9531 -189.58119,193.73325 C -191.7418,195.68297 -193.14473,197.83876 -194.19718,199.8565 C -195.51761,201.15707 -196.61714,202.53844 -197.40011,203.93867 C -197.74198,204.87796 -201.41213,210.42097 -205.56444,216.27937 C -211.30229,224.37476 -214.29494,227.72724 -218.03075,230.15874 C -219.64158,231.20717 -221.21469,232.36694 -222.67814,233.39307 C -227.76425,236.95921 -221.2421,235.80779 -219.1298,237.28683 C -218.30196,235.01234 -212.74976,231.19931 -211.12247,231.7916 C -210.46784,232.02986 -209.1051,230.73461 -208.10795,228.90269 C -204.28118,221.87228 -199.41047,215.52231 -194.51119,210.84695 C -193.57047,209.94924 -192.72203,209.00133 -191.87348,208.05224 C -191.21499,207.49152 -190.49652,206.86615 -189.7068,206.07396 C -184.92564,201.27786 -185.23242,200.38525 -181.66807,198.69465 C -179.32981,197.58558 -173.79016,194.8498 -169.39017,192.60281 C -164.99016,190.3558 -158.55705,187.94529 -155.07118,187.26459 C -150.99793,186.4692 -148.51011,185.46842 -148.1315,184.43847 C -143.51414,184.09607 -131.32183,185.24091 -120.90659,183.84185 C -110.63061,182.08761 -106.39613,180.63305 -93.399066,174.35866 C -87.899058,171.7035 -82.104552,169.22077 -80.52454,168.86344 C -77.935497,168.27791 -77.716271,167.91657 -78.200846,165.03248 C -78.49657,163.27242 -79.078866,160.98302 -79.488298,159.94547 C -80.023919,158.58817 -79.836405,158.17565 -78.860272,158.50101 C -78.114108,158.74974 -76.788763,161.83908 -75.908552,165.37789 C -72.951878,177.26504 -70.900947,180.18953 -58.575045,190.0593 C -58.575045,190.0593 -57.559392,192.58643 -55.246509,193.51344 C -55.246187,193.51462 -55.215108,193.67045 -55.215108,193.67045 C -41.710507,195.73343 -37.953226,199.48783 -29.309051,213.48466 C -24.204197,221.75057 -24.042518,222.21263 -24.441852,227.08141 C -24.66984,229.86109 -25.471965,232.5254 -26.231725,232.98485 C -26.231715,232.98484 -20.579494,231.00657 -20.579494,231.00657 C -21.573353,229.28517 -21.69116,227.56342 -20.924909,225.91957 C -19.863405,223.64228 -19.60717,223.49217 -17.878984,224.2553 C -14.105254,225.92168 -16.513667,220.40417 -26.639942,204.28408 C -36.149496,189.14574 -36.630975,188.56702 -40.739117,186.63656 C -42.455536,185.83 -43.70791,185.15122 -44.97829,184.03026 C -45.692712,180.84485 -45.944535,175.93616 -46.328545,165.81751 C -46.620753,158.11754 -47.293735,150.38711 -47.804405,148.64101 C -48.869497,144.99923 -48.45928,144.33904 -45.292303,144.33904 C -44.041426,144.33904 -42.743303,143.8842 -42.403385,143.3342 C -42.063457,142.7842 -41.074694,142.32935 -40.205295,142.32935 C -38.692246,142.32934 -36.001412,139.66272 -35.934721,138.09018 C -35.917227,137.67767 -37.421484,137.33655 -39.294658,137.33655 C -41.167822,137.33656 -48.496208,136.1659 -55.560522,134.76165 C -69.549828,131.98081 -77.161981,132.03498 -89.913523,135.01286 C -95.143942,136.23432 -99.153016,136.37915 -110.41856,135.70368 C -118.11856,135.24201 -129.35138,134.97575 -135.38258,135.10706 C -156.355,135.56363 -161.86485,131.54714 -169.95539,109.92323 C -171.99379,104.47512 -171.98938,104.46345 -176.07864,104.64782 C -178.33091,104.74936 -180.3632,104.34608 -180.56902,103.76858 C -180.78257,103.16945 -179.5014,102.73234 -177.5859,102.73234 C -175.5256,102.73234 -172.46545,101.5676 -169.67278,99.717819 L -165.11959,96.703296 L -169.51577,95.415843 C -174.72326,93.878256 -179.69693,94.590607 -183.30093,97.425525 C -184.73702,98.555137 -186.45586,99.304668 -187.10049,99.089793 C -189.40534,98.321502 -181.12099,93.324558 -175.92163,92.338518 z "
       id="Body" />
    <path
       d="M -208.65289,107.0503 C -211.59336,105.7036 -211.5159,103.56189 -208.47663,102.17711 C -205.42059,100.78468 -200.90289,101.84885 -200.90289,103.96114 C -200.90289,105.06676 -201.5192,105.39755 -202.90427,105.03535 C -204.00503,104.7475 -204.68498,104.86902 -204.41528,105.30541 C -203.42587,106.9063 -206.34384,108.10781 -208.65289,107.0503 z "
       style="fill:#003d8f"
       id="Eye" />
    <g
       style="fill:#d40000"
       id="Antlers">
      <path
         d="M -198.90289,93.446779 C -196.26964,93.203799 -195.42403,92.195017 -195.91686,92.017121 C -197.03951,91.611885 -198.38471,90.841373 -198.87541,90.834018 C -201.34879,90.796945 -205.3797,90.175805 -208.28576,89.421348 C -213.78931,87.992546 -219.17934,83.95756 -221.79046,79.311715 C -224.50391,74.483773 -226.14181,74.176644 -225.71686,78.575459 C -225.22263,83.691363 -228.72728,83.516815 -233.27929,78.198815 C -235.59364,75.495026 -236.90289,74.559894 -236.90289,75.610664 C -236.90289,78.404754 -230.97392,84.187855 -224.26002,87.942481 C -216.66247,92.191271 -201.13089,93.652365 -198.90289,93.446779 z "
         id="Antler-1" />
      <path
         d="M -162.3279,74.392262 C -161.36814,72.837215 -161.34309,69.35812 -161.60282,68.364912 C -161.86255,67.371704 -161.36132,65.178861 -160.48897,63.491929 C -158.02095,58.719295 -158.37379,57.050338 -161.69651,57.780131 C -163.88987,58.261873 -165.01794,57.831027 -166.94651,55.774998 C -169.19793,53.374786 -169.3934,52.412383 -169.28922,44.24087 C -169.17608,35.367215 -169.86925,33.52558 -171.89657,37.313652 C -173.62866,40.550092 -177.1273,40.752168 -182.6834,37.936683 C -188.29557,35.092782 -191.45275,31.651404 -192.39803,27.347597 C -192.74641,25.761429 -193.73435,23.880295 -194.59346,23.167299 C -195.98342,22.013729 -196.07616,22.340364 -195.43544,26.132786 C -194.54507,31.402856 -195.53399,32.745288 -202.61287,35.875903 C -205.52238,37.162627 -207.90289,38.742648 -207.90289,39.387061 C -207.90289,40.161778 -207.14062,40.299936 -205.65289,39.794863 C -204.41539,39.374741 -199.74395,38.896271 -195.27191,38.731597 C -187.55469,38.447424 -186.87468,38.600069 -181.90844,41.731376 C -176.15469,45.359216 -171.53951,51.413253 -169.71153,57.730851 C -167.75202,64.503016 -168.17201,74.146187 -170.67381,79.825459 L -172.32867,85.173999 C -169.8391,83.530882 -167.85225,81.620036 -167.85225,81.620036 C -165.58192,79.145036 -163.43703,76.843553 -162.3279,74.392262 z "
         id="Antler-2" />
      <path
         d="M -192.40289,92.859224 C -191.30289,93.255905 -178.8454,92.883493 -175.93486,92.33152 C -173.02432,91.779547 -169.13504,90.395984 -167.29202,89.256937 C -164.11948,87.2962 -159.81425,86.643157 -155.4412,87.459333 C -152.46247,88.015277 -152.41015,84.909111 -155.34875,81.970509 C -156.75353,80.565731 -157.90289,78.360987 -157.90289,77.07108 C -157.90289,73.121208 -152.81741,66.464205 -147.90847,63.988172 C -140.67186,60.338072 -138.90289,58.961049 -138.90289,56.977921 C -138.90289,55.588929 -139.35055,55.298219 -140.65289,55.841479 C -146.42892,58.250907 -147.77209,58.589628 -149.27043,58.014659 C -152.49193,56.778454 -153.13728,52.500455 -151.32842,44.372264 C -149.1577,34.618012 -148.47324,28.325457 -149.58296,28.325457 C -150.06776,28.325457 -150.97398,29.675457 -151.59679,31.325457 C -153.00087,35.045295 -155.11246,35.145782 -157.88225,31.624569 C -159.59105,29.452177 -159.95117,27.801767 -159.72261,23.190117 C -159.56633,20.036656 -159.73802,17.156995 -160.10414,16.790869 C -161.03969,15.855324 -162.90289,17.177868 -162.90289,18.777485 C -162.90289,21.56618 -165.93792,21.068657 -171.13513,17.427997 C -177.25104,13.143785 -182.05823,11.185399 -183.80646,12.265863 C -185.3397,13.213453 -184.09144,14.24077 -177.20999,17.694794 C -169.48494,21.572244 -161.65939,29.687594 -159.13225,36.441991 C -151.84652,55.914842 -158.67513,78.564241 -174.30183,86.757033 C -180.20894,89.854025 -190.05448,90.305416 -195.20255,87.715272 C -201.61304,84.489967 -205.81503,79.322847 -208.10641,71.847594 C -209.48061,67.364459 -210.41264,65.548599 -210.68413,66.825457 C -212.06797,73.334036 -217.91591,73.671581 -224.13206,67.601674 C -226.20602,65.576512 -227.90289,64.426362 -227.90289,65.045784 C -227.90289,67.15522 -222.6741,72.394211 -219.06282,73.9031 C -217.08243,74.730561 -212.07378,78.678684 -207.9325,82.676707 C -203.79121,86.674731 -199.05289,90.439074 -197.40289,91.041914 C -195.75289,91.644754 -193.50289,92.462543 -192.40289,92.859224 z "
         id="Antler-3" />
    </g>
    <path
       d="M -146.05897,185.78245 C -146.85486,185.78642 -147.55428,185.80245 -148.13145,185.84525 C -148.51007,186.8752 -150.99788,187.87597 -155.07114,188.67136 C -156.37833,188.92662 -158.09292,189.41375 -159.96974,190.05302 C -160.14353,190.31718 -160.32251,190.54707 -160.50356,190.86945 C -162.04035,193.60586 -163.1264,196.02235 -163.8949,197.80914 C -166.98961,200.4028 -166.42237,206.8228 -160.88037,207.26092 C -156.14067,207.63561 -151.58729,207.64957 -150.76916,207.32372 C -149.95103,206.99787 -144.89045,207.19655 -139.5275,207.76334 C -128.20959,208.9595 -120.74957,211.6846 -116.54176,216.17889 C -116.54175,216.17888 -118.01762,208.79958 -118.01762,208.79958 C -120.59783,209.69976 -122.57155,208.21965 -122.13119,205.72226 C -121.80934,203.89688 -122.13416,203.62995 -124.58049,203.83818 C -126.92973,204.03814 -135.4224,202.1446 -144.3005,200.72946 C -148.12417,200.11996 -152.06171,200.09731 -155.29095,198.78258 C -152.05606,194.38711 -148.86986,192.56651 -146.9382,190.42983 C -145.15725,188.45984 -143.59815,186.81291 -142.69903,185.81385 C -143.91909,185.78751 -145.09857,185.77764 -146.05897,185.78245 z "
       id="Front-left" />
    <g
       style="fill:#d40000"
       id="Hoofs">
      <path
         d="M -19.548927,229.34544 C -21.372774,226.18644 -23.613385,230.38944 -25.191674,231.34392 C -26.769954,232.29842 -29.193854,243.75192 -27.891421,244.10092 C -27.420241,244.22717 -26.376433,242.81818 -25.571847,240.96982 C -24.003761,237.36744 -22.541906,235.80691 -23.265634,238.50791 C -23.925392,240.97015 -22.616472,242.52098 -20.775602,241.45816 C -18.498704,240.14358 -17.725075,232.50445 -19.548927,229.34544 z "
         id="path4844" />
      <path
         d="M -219.28444,237.84525 C -219.00432,236.79978 -219.94441,235.34667 -224.23347,235.17595 C -230.28673,239.91526 -230.46057,241.19517 -227.76296,239.95497 C -226.69562,239.46427 -225.59846,238.36454 -225.32484,237.51113 C -225.0354,236.60839 -224.76036,236.49463 -224.66717,237.23907 C -224.57907,237.94287 -225.22453,239.28401 -226.10153,240.21939 C -228.14278,242.39653 -226.80233,242.74833 -222.87528,241.06612 C -221.18045,240.34011 -219.56458,238.89073 -219.28444,237.84525 z "
         id="path4846" />
      <path
         d="M -118.02226,208.78855 C -120.36906,209.60729 -120.68977,211.76209 -116.55324,216.18025 C -112.41671,220.5984 -111.64108,221.12552 -111.38804,219.6905 C -111.26246,218.97828 -112.38543,217.57265 -113.88354,216.56686 C -115.38164,215.56108 -116.53377,214.32077 -116.44381,213.81061 C -116.35386,213.30046 -115.072,213.80499 -113.59523,214.9318 C -111.09777,216.83742 -110.89158,216.85786 -110.64354,215.22448 C -110.25927,212.69396 -115.67545,207.96981 -118.02226,208.78855 z "
         id="path4850" />
      <path
         d="M -105.03045,231.96151 C -104.27561,231.06169 -104.01309,228.79368 -107.70974,229.38913 C -114.87861,234.17166 -122.28809,241.32546 -120.07269,241.32546 C -119.53599,241.32546 -117.67809,239.63796 -115.94401,237.57546 C -113.70632,234.91396 -113.13493,234.55112 -113.97552,236.32546 C -114.62692,237.70046 -115.87453,239.6436 -116.74799,240.64354 C -118.25594,242.36987 -118.11691,242.44557 -113.99325,242.14354 C -109.93807,241.84653 -109.54287,241.55297 -108.02665,237.71151 C -107.13358,235.44883 -105.78529,232.86133 -105.03045,231.96151 z "
         id="path4852" />
    </g>
  </g>
  <g
     id="Stars">
    <path
       d="M 64.315653,83.769716 L 61.52585,78.457063 L 55.530054,78.697349 L 58.736049,73.624976 L 55.530054,68.552612 L 61.52585,68.792898 L 64.315653,63.48024 L 67.105456,68.792898 L 73.101253,68.552612 L 69.895258,73.624976 L 73.101253,78.697349 L 67.105456,78.457063 L 64.315653,83.769716 z "
       style="fill:#ffcd50"
       id="6-pt-star-dull" />
    <use
       transform="translate(157.8045,-22.78822)"
       id="use2978"
       x="0"
       y="0"
       width="252"
       height="303.20468"
       xlink:href="#6-pt-star-dull" />
    <use
       transform="translate(83.22446,124.3869)"
       id="use2980"
       x="0"
       y="0"
       width="252"
       height="303.20468"
       xlink:href="#6-pt-star-dull" />
    <use
       transform="translate(96.96878,183.1486)"
       id="use2982"
       x="0"
       y="0"
       width="252"
       height="303.20468"
       xlink:href="#6-pt-star-dull" />
    <use
       transform="translate(20.18031,172.8429)"
       id="use2984"
       x="0"
       y="0"
       width="252"
       height="303.20468"
       xlink:href="#6-pt-star-dull" />
    <use
       transform="translate(59.98897,206.3959)"
       id="use2986"
       x="0"
       y="0"
       width="252"
       height="303.20468"
       xlink:href="#6-pt-star-dull" />
    <use
       transform="translate(168.6098,52.27954)"
       id="use2988"
       x="0"
       y="0"
       width="252"
       height="303.20468"
       xlink:href="#6-pt-star-dull" />
    <use
       transform="translate(-19.05966,126.7786)"
       id="use2990"
       x="0"
       y="0"
       width="252"
       height="303.20468"
       xlink:href="#6-pt-star-dull" />
    <use
       transform="translate(-38.39529,78.43954)"
       id="use2992"
       x="0"
       y="0"
       width="252"
       height="303.20468"
       xlink:href="#6-pt-star-dull" />
    <use
       transform="translate(55.43941,43.18042)"
       id="use2994"
       x="0"
       y="0"
       width="252"
       height="303.20468"
       xlink:href="#6-pt-star-dull" />
    <use
       transform="translate(114.5838,34.64999)"
       id="use2996"
       x="0"
       y="0"
       width="252"
       height="303.20468"
       xlink:href="#6-pt-star-dull" />
    <use
       transform="translate(79.8933,-5.158673)"
       id="use2998"
       x="0"
       y="0"
       width="252"
       height="303.20468"
       xlink:href="#6-pt-star-dull" />
    <use
       transform="translate(-42.37616,-16.53257)"
       id="use3000"
       x="0"
       y="0"
       width="252"
       height="303.20468"
       xlink:href="#6-pt-star-dull" />
    <use
       transform="translate(-15.64749,-52.92907)"
       id="use3002"
       x="0"
       y="0"
       width="252"
       height="303.20468"
       xlink:href="#6-pt-star-dull" />
    <use
       transform="translate(104.3472,-48.3795)"
       id="use3004"
       x="0"
       y="0"
       width="252"
       height="303.20468"
       xlink:href="#6-pt-star-dull" />
    <use
       transform="translate(131.99,151.8577)"
       id="use2000"
       x="0"
       y="0"
       width="252"
       height="303.20468"
       xlink:href="#6-pt-star-dull" />
  </g>
  <path
     d="M 249.05062,0.9441611 L 125.00012,0.9441611 L 0.949569,0.9441611 L 0.949569,174.44076 C 0.18232904,268.16164 81.239009,302.26051 125.0001,302.26051 C 167.99395,302.26051 249.81785,268.16164 249.05062,174.44076 L 249.05062,0.9441611 z "
     style="fill:none;fill-opacity:0;stroke:#000000;stroke-width:1.88832211;stroke-linecap:round"
     id="Frame" />
</svg>
