<?xml version="1.0" encoding="UTF-8" standalone="no"?>
<!-- Created with Inkscape (http://www.inkscape.org/) -->
<svg
   xmlns:dc="http://purl.org/dc/elements/1.1/"
   xmlns:cc="http://web.resource.org/cc/"
   xmlns:rdf="http://www.w3.org/1999/02/22-rdf-syntax-ns#"
   xmlns:svg="http://www.w3.org/2000/svg"
   xmlns="http://www.w3.org/2000/svg"
   version="1.0"
   width="251"
   height="304.20001"
   id="svg4166">
  <defs
     id="defs4168" />
  <metadata
     id="metadata1880"><rdf:RDF><cc:Work
         rdf:about=""><dc:title>Oland landskapsvapen</dc:title><dc:date>29-10-2007</dc:date><dc:creator><cc:Agent><dc:title>Lokal_Profil</dc:title></cc:Agent></dc:creator><cc:license
         rdf:resource="http://creativecommons.org/licenses/by-sa/2.5/" /><dc:rights><cc:Agent><dc:title>cc-by-sa-2.5</dc:title></cc:Agent></dc:rights><dc:format>image/svg+xml</dc:format><dc:type
         rdf:resource="http://purl.org/dc/dcmitype/StillImage" /></cc:Work><cc:License
         rdf:about="http://creativecommons.org/licenses/by-sa/2.5/"><cc:permits
         rdf:resource="http://web.resource.org/cc/Reproduction" /><cc:permits
         rdf:resource="http://web.resource.org/cc/Distribution" /><cc:requires
         rdf:resource="http://web.resource.org/cc/Notice" /><cc:requires
         rdf:resource="http://web.resource.org/cc/Attribution" /><cc:permits
         rdf:resource="http://web.resource.org/cc/DerivativeWorks" /><cc:requires
         rdf:resource="http://web.resource.org/cc/ShareAlike" /></cc:License></rdf:RDF>
  </metadata>
  <path
     d="M 249.55058,1.4395041 L 1.4495291,1.4395041 L 1.4495291,174.9361 C 0.68228908,268.65698 81.738969,302.75585 125.50006,302.75585 C 168.49391,302.75585 250.31781,268.65698 249.55058,174.9361 L 249.55058,1.4395041 z "
     style="fill:#003d8f;stroke:none"
     id="Shield" />
  <g
     transform="matrix(0.607511,0,0,0.607512,-24.51586,-3.32466)"
     id="Deer">
    <path
       d="M 168.00084,78.00039 C 168.00084,72.00036 168.00084,66.00033 171.00086,61.000305 C 174.00087,56.00028 180.0009,52.00026 188.00094,49.000245 C 196.00098,46.00023 206.00103,44.00022 212.00106,42.00021 C 218.00109,40.0002 220.0011,38.00019 222.00111,36.00018 C 222.00111,38.00019 222.00111,40.0002 220.0011,43.000215 C 218.00109,46.00023 214.00107,50.00025 207.00104,53.000265 C 200.001,56.00028 190.00095,58.00029 185.00093,61.000305 C 180.0009,64.00032 180.0009,68.00034 181.00091,70.00035 C 182.00091,72.00036 184.00092,72.00036 190.00095,71.000355 C 196.00098,70.00035 206.00103,68.00034 214.00107,67.000335 C 222.00111,66.00033 228.00114,66.00033 232.00116,64.00032 C 236.00118,62.00031 238.00119,58.00029 241.00121,54.00027 C 244.00122,50.00025 248.00124,46.00023 255.00128,44.00022 C 262.00131,42.00021 272.00136,42.00021 279.0014,40.0002 C 286.00143,38.00019 290.00145,34.00017 294.00147,30.00015 C 294.00147,32.00016 294.00147,34.00017 292.00146,37.000185 C 290.00145,40.0002 286.00143,44.00022 279.0014,47.000235 C 272.00136,50.00025 262.00131,52.00026 256.00128,56.00028 C 250.00125,60.0003 248.00124,66.00033 252.00126,67.000335 C 256.00128,68.00034 266.00133,64.00032 274.00137,63.000315 C 282.00141,62.00031 288.00144,64.00032 292.00146,61.000305 C 296.00148,58.00029 298.00149,50.00025 308.00154,45.000225 C 318.00159,40.0002 336.00168,38.00019 346.00173,36.00018 C 356.00178,34.00017 358.00179,32.00016 360.0018,30.00015 C 360.0018,32.00016 360.0018,34.00017 358.00179,36.00018 C 356.00178,38.00019 352.00176,40.0002 344.00172,42.00021 C 336.00168,44.00022 324.00162,46.00023 318.00159,50.00025 C 312.00156,54.00027 312.00156,60.0003 316.00158,62.00031 C 320.0016,64.00032 328.00164,62.00031 334.53501,63.000315 C 341.00171,64.00032 346.00173,68.00034 350.00175,67.000335 C 354.00177,66.00033 357.00179,60.0003 361.46847,56.00028 C 366.00183,52.00026 372.00186,50.00025 379.0019,50.00025 C 386.00193,50.00025 394.00197,52.00026 400.002,52.00026 C 406.00203,52.00026 410.00205,50.00025 414.00207,48.00024 C 414.00207,50.00025 414.00207,52.00026 411.00206,54.00027 C 408.00204,56.00028 402.00201,58.00029 395.00198,59.000295 C 388.00194,60.0003 380.0019,60.0003 374.00187,62.00031 C 368.00184,64.00032 364.00182,68.00034 365.00183,71.000355 C 366.00183,74.00037 372.00186,76.00038 379.0019,76.00038 C 386.00193,76.00038 394.00197,74.00037 401.00201,75.000375 C 408.00204,76.00038 414.00207,80.0004 418.00209,83.000415 C 422.00211,86.00043 424.00212,88.00044 426.00213,90.00045 L 420.0021,90.00045 C 412.00206,88.00044 404.00202,86.00043 395.24664,85.778429 C 386.4906,85.555761 376.97988,87.111769 367.31317,85.97843 C 357.64645,84.845091 347.82374,81.022405 338.06836,78.600393 C 328.31297,76.178381 318.62359,75.155709 308.95688,74.733707 C 299.29016,74.311705 289.64611,74.489039 279.8234,75.755712 C 270.00135,77.022385 260.0013,79.378397 252.3346,79.933733 C 244.66789,80.489069 239.33453,79.245063 229.66782,79.622398 C 220.0011,80.0004 206.00103,82.00041 192.00096,84.00042"
       style="fill:#d40000;stroke:#d40000;stroke-width:4"
       id="Antler-2" />
    <path
       d="M 342.00171,285.00143 L 288.00144,270.00135 C 286.00143,276.00138 284.00142,282.00141 280.0014,291.00146 C 276.00138,300.0015 270.00135,312.00156 271.00135,322.00161 C 272.00136,332.00166 280.0014,340.0017 284.00142,348.00174 C 288.00144,356.00178 288.00144,364.00182 285.00143,372.00186 C 282.00141,380.0019 276.00138,388.00194 270.00135,395.00198 C 264.00132,402.00201 258.00129,408.00204 253.00127,412.00206 C 248.00124,416.00208 244.00122,418.00209 240.0012,421.00211 C 236.00118,424.00212 232.00116,428.00214 230.53449,430.53549 C 223.38239,446.8319 245.46789,449.00225 245.46789,449.00225 C 247.00124,445.00223 245.00123,440.0022 245.00123,436.53552 C 245.00123,433.00217 247.00124,431.00216 249.00125,429.46881 C 251.00126,428.00214 253.00127,427.00214 255.00128,429.00215 C 257.00129,431.00216 259.0013,436.00218 260.53464,436.53552 C 262.00131,437.00219 263.00132,433.00217 264.00132,429.00215 C 265.00133,425.00213 266.00133,421.00211 270.00135,415.46874 C 274.00137,410.00205 281.00141,403.00202 288.53478,397.46865 C 296.00148,392.00196 304.00152,388.00194 308.00154,385.00193 C 312.00156,382.00191 312.00156,380.0019 311.00156,378.00189 C 310.00155,376.00188 308.00154,374.00187 307.00154,367.00184 C 306.00153,360.0018 306.00153,348.00174 310.00155,338.00169 C 314.00157,328.00164 322.00161,320.0016 328.00164,315.00158 C 334.00167,310.00155 338.00169,308.00154 340.0017,303.46818 C 342.00171,299.0015 342.00171,292.00146 342.00171,285.00143 z "
       style="fill:#ffcd50;stroke:#ffcd50;stroke-width:4"
       id="Leg-3" />
    <path
       d="M 198.00099,276.00138 L 156.00078,252.00126 C 156.00078,262.00131 156.00078,272.00136 156.00078,283.00142 C 156.00078,294.00147 156.00078,306.00153 157.00079,315.00158 C 158.00079,324.00162 160.0008,330.00165 160.0008,337.00169 C 160.0008,344.00172 158.00079,352.00176 158.00079,358.00179 C 158.00079,364.00182 160.0008,368.00184 161.00081,374.00187 C 162.00081,380.0019 162.00081,388.00194 160.0008,397.00199 C 158.00079,406.00203 154.00077,416.00208 150.00075,426.00213 C 119.14669,425.10153 155.00078,444.00222 155.00078,444.00222 C 156.00078,440.0022 156.00078,436.00218 157.00079,433.00217 C 158.00079,430.00215 160.0008,428.00214 161.46747,427.00214 C 163.00082,426.00213 164.00082,426.00213 165.00083,428.00214 C 166.00083,430.00215 167.00084,434.00217 168.93418,435.11351 C 170.80085,436.22418 173.60087,434.44684 173.60087,430.44682 C 173.60087,426.4468 170.80085,420.2241 170.40085,408.11337 C 170.00085,396.00198 172.00086,378.00189 174.00087,370.00185 C 176.00088,362.00181 178.00089,364.00182 179.0009,360.0018 C 180.0009,356.00178 180.0009,346.00173 182.00091,333.00167 C 184.00092,320.0016 188.00094,304.00152 191.00096,294.00147 C 194.00097,284.00142 196.00098,280.0014 198.00099,276.00138 z "
       style="fill:#ffcd50;stroke:#ffcd50;stroke-width:4"
       id="Leg-2" />
    <path
       d="M 336.37853,420.0021 C 336.37853,420.0021 349.00175,425.00213 349.00175,425.00213 C 350.00175,422.00211 352.00176,418.00209 354.00177,418.00209 C 356.00178,418.00209 358.00179,422.00211 360.0018,424.00212 C 362.00181,426.00213 364.00182,426.00213 365.00183,425.00213 C 366.00183,424.00212 366.00183,422.00211 367.00184,414.00207 C 368.00184,406.00203 370.00185,392.00196 373.00187,382.00191 C 376.00188,372.00186 380.0019,366.00183 384.00192,359.0018 C 388.00194,352.00176 392.00196,344.00172 392.00196,340.0017 C 392.00196,336.00168 388.00194,336.00168 385.00193,331.00166 C 382.00191,326.00163 380.0019,316.00158 382.00191,301.46817 C 384.00192,287.00144 390.00195,268.00134 388.53528,253.00127 C 387.00194,238.00119 378.00189,227.00114 371.46852,221.00111 C 365.00183,215.00108 361.00181,214.00107 355.00178,214.53441 C 349.00175,215.00108 341.00171,217.00109 333.00167,219.0011 L 300.0015,264.00132 C 304.00152,266.00133 308.00154,268.00134 310.00155,271.00135 C 312.00156,274.00137 312.00156,278.00139 314.00157,281.00141 C 316.00158,284.00142 320.0016,286.00143 322.00161,289.00144 C 324.00162,292.00146 324.00162,296.00148 327.00164,300.0015 C 330.00165,304.00152 336.00168,308.00154 343.00172,314.00157 C 350.00175,320.0016 358.00179,328.00164 362.00181,336.00168 C 366.00183,344.00172 366.00183,352.00176 364.00182,364.00182 C 362.00181,376.00188 358.00179,392.00196 353.00177,402.00201 C 348.00174,412.00206 342.37856,416.00208 336.37853,420.0021 z "
       style="fill:#ffcd50;stroke:#ffcd50;stroke-width:4"
       id="Leg-4" />
    <path
       d="M 135.5625,57.4375 C 134.40398,57.444583 133.2065,57.493167 132,57.5625 C 127.17398,57.839166 122.66669,58.625326 119,60 C 115.33332,61.374675 111.7866,63.603321 108.28125,66 C 104.7759,68.39668 101.75001,70.625326 99,72 C 96.249987,73.374674 93.21826,74.18233 90.40625,74.875 C 87.593573,75.568333 85.37467,76.083329 84,77 C 82.625324,77.916673 81.82617,79.415659 81.6875,80.875 C 81.549504,82.334337 82.08333,83.541331 83,84 C 83.916671,84.458668 85.40199,84.258335 87,83.875 C 88.598008,83.49166 90.08333,83 91,83 C 91.916673,83.000002 92.4375,83.46433 92.4375,84.125 C 92.4375,84.785006 91.91667,85.54133 91,86 C 90.083333,86.458659 88.59801,86.72267 87,87 C 85.401988,87.277329 83.91667,87.54133 83,88 C 82.083331,88.458661 81.54492,89.20132 81.40625,90 C 81.267578,90.798674 81.54133,91.54133 82,92 C 82.458661,92.458658 83.20916,92.73634 84.5625,92.875 C 85.915179,93.01367 87.70798,93 90,93 C 92.292013,92.999998 95.52732,92.98633 99,93.125 C 102.47268,93.263656 105.70798,93.54133 108,94 C 110.29201,94.458661 112.08999,95.20524 112.75,96.28125 C 113.41067,97.357257 112.86668,98.62532 111,100 C 109.13332,101.37467 105.71735,103.12532 102,105 C 98.282642,106.87468 94.86668,108.62532 93,110 C 91.133318,111.37467 90.59908,112.65641 90.84375,113.59375 C 91.088424,114.53176 92.08333,115 93,115 C 93.916668,115 94.92399,114.522 96,114 C 97.076003,113.47799 98.08333,113 99,113 C 99.916667,113 100.91424,113.47408 102.40625,113.71875 C 103.89759,113.96342 105.70798,113.91667 108,113 C 110.29201,112.08333 113.54099,110.13009 116.875,108.21875 C 120.20902,106.30674 123.13332,104.73142 125,104.46875 C 126.86668,104.27275 127.88058,105.34866 128.78125,107 C 129.68191,108.65068 130.35191,110.62532 131.53125,112 C 132.64392,113.37467 134.49582,114.39266 136.5625,115 C 138.62919,115.60733 140.62532,115.72725 142,115.53125 C 143.37467,115.26858 144.40341,114.65317 145.21875,114.0625 C 146.03409,113.47116 146.54133,113 147,113 C 147.45867,113 148.08474,113.08458 148.96875,113.28125 C 149.85276,113.47859 151,114.46665 150,117 C 149,119.53335 146.62159,121.40917 144.90625,122.0625 C 143.19091,122.71651 141.56059,123 139.53125,123 C 137.43525,123 134.80194,122.27975 131.78125,121.84375 C 128.76124,121.40708 125.75001,121.35608 123,122.46875 C 120.24999,123.64809 117.23193,126.20799 114.28125,129.75 C 111.3299,133.29268 108.86668,137.33332 107,141 C 105.13332,144.66669 103.63851,148.68164 102.5625,153.125 C 101.48583,157.56769 101,161.87464 101,166 C 101,170.12534 101.46824,174.89664 102.40625,180 C 103.34359,185.10335 104.62532,189.87464 106,194 C 107.37467,198.12535 109.11557,202.41864 111.40625,207 C 113.69693,211.58136 116.24999,215.87464 119,220 C 121.75001,224.12536 125.24481,228.89664 129.6875,234 C 134.13086,239.10335 138.95864,243.87464 144,248 C 149.04136,252.12534 155.29346,256.41081 162.6875,260.4375 C 170.08153,264.46484 177.66663,267.70798 185,270 C 192.33336,272.29201 200.86537,274.09783 209.71875,275.3125 C 218.57213,276.52718 226.5833,277 233,277 C 239.4167,277 245.51063,276.53176 252,275.59375 C 258.48936,274.65641 264.5833,273.37467 271,272 C 277.4167,270.62533 285.41029,268.86685 294.125,266.4375 C 302.83972,264.00815 311.12529,261.20801 318,258 C 324.87469,254.79198 331.45187,250.52653 340.78125,243.5625 C 350.11063,236.59914 357,231 357,231 L 345,201 C 345,201 347.27648,201.09749 350.3125,201.6875 C 353.3485,202.27751 355.43524,203.13332 357.53125,205 C 359.5606,206.86668 361.95157,209.8144 364.15625,212.59375 C 366.36158,215.37376 368.08333,217.54133 369,218 C 369.91667,218.45866 370.2135,217.30167 370.4375,215.875 C 370.6615,214.44832 370.81058,213 371.53125,213 C 372.18524,213 373.55141,214.43174 375.21875,216.34375 C 376.88542,218.2551 378.62532,220.35191 380,221.53125 C 381.37467,222.64392 382.65641,223.06633 383.59375,222.875 C 384.53175,222.68301 385,221.91667 385,221 C 384.99999,220.08334 384.522,218.82984 384,217.5625 C 383.47798,216.29449 383,215.18942 383,214.46875 C 383.00001,213.81476 383.46824,213.40917 384.40625,213.0625 C 385.34359,212.71584 386.62532,212.45866 388,212 C 389.37468,211.54133 391.13899,210.78793 392.875,209.78125 C 394.61168,208.77458 396.08333,207.64809 397,206.46875 C 397.91668,205.35608 398.44141,203.97743 398.71875,202.46875 C 398.99609,201.02676 399,199.64809 399,198.46875 C 398.99999,197.35608 398.99608,196.2225 398.71875,195.5625 C 398.44142,194.90182 397.91667,194.81058 397,195.53125 C 396.08334,196.18525 394.59409,197.76632 392.71875,199.625 C 390.84408,201.48368 388.86668,203.35608 387,204.46875 C 385.13332,205.64809 383.14809,206.31933 380.71875,206.25 C 378.28941,206.18066 375.75001,205.37467 373,204 C 370.24998,202.62532 366.75977,200.41034 362.59375,197.875 C 358.4284,195.33965 354.12535,192.86668 350,191 C 345.87464,189.13331 341.10853,187.63459 335.3125,186.28125 C 329.51581,184.92791 323.4167,183.91667 317,183 C 310.58331,182.08333 302.58122,181.07992 293.3125,180.28125 C 284.04313,179.48191 274.70804,179 266,179 C 257.29196,178.99999 247.47888,179.47799 237.6875,180 C 227.89679,180.522 219.4167,181 213,181 C 206.5833,181 200.97002,180.51809 196.25,179.71875 C 191.52999,178.92009 188.29201,177.91667 186,177 C 183.70798,176.08333 181.90217,175.06817 180.6875,173.4375 C 179.47282,171.8075 179,169.75001 179,167 C 178.99999,164.24998 179.48191,160.27494 180.28125,155.65625 C 181.07992,151.03822 182.08333,146.39811 183,142.46875 C 183.91667,138.60607 184.93766,134.6791 185.875,130.84375 C 186.81234,127.00773 187.54133,123.75001 188,121 C 188.45866,118.24999 188.71875,115.47419 188.71875,112.4375 C 188.71875,109.40082 188.45866,106.47726 188,103.53125 C 187.54133,100.51856 186.80843,96.89552 185.59375,92.9375 C 184.37907,88.979477 182.86668,85.208015 181,82 C 179.13332,78.791981 176.6701,75.495599 173.71875,72.40625 C 170.76808,69.316237 167.75001,66.866676 165,65 C 162.24999,63.133327 159.2241,61.620923 155.71875,60.40625 C 152.21339,59.191576 148.66669,58.458669 145,58 C 142.24999,57.655997 139.03805,57.41625 135.5625,57.4375 z M 129,69 C 135.62745,69 141,71.686277 141,75 C 141,78.313723 135.62745,80.999999 129,81 C 122.37255,81 117,78.313723 117,75 C 117,71.686277 122.37255,69 129,69 z "
       transform="translate(21,15)"
       style="fill:#ffcd50;stroke:#ffcd50;stroke-width:4"
       id="Main-body" />
    <path
       d="M 204.00102,108.00054 C 206.00103,110.00055 208.00104,112.00056 210.00105,114.00057 C 212.00106,116.00058 214.00107,118.00059 215.00108,121.00061 C 216.00108,124.00062 216.00108,128.00064 220.0011,134.00067 C 224.00112,140.0007 232.00116,148.00074 236.00118,153.00077 C 240.0012,158.00079 240.0012,160.0008 240.0012,163.00082 C 240.0012,166.00083 240.0012,170.00085 240.0012,174.00087 C 242.00121,170.00085 244.00122,166.00083 245.00123,162.00081 C 246.00123,158.00079 246.00123,154.00077 243.00122,148.00074 C 240.0012,142.00071 234.00117,134.00067 231.00116,129.00065 C 228.00114,124.00062 228.00114,122.00061 231.00116,122.00061 C 234.00117,122.00061 240.0012,124.00062 245.00123,126.00063 C 250.00125,128.00064 254.00127,130.00065 256.00128,136.00068 C 258.00129,142.00071 258.00129,152.00076 264.00132,157.00079 C 270.00135,162.00081 282.00141,162.00081 289.00144,165.00083 C 296.00148,168.00084 298.00149,174.00087 300.0015,180.0009 C 300.0015,176.00088 300.0015,172.00086 298.00149,168.00084 C 296.00148,164.00082 292.00146,160.0008 288.00144,157.00079 C 284.00142,154.00077 280.0014,152.00076 277.00139,150.00075 C 274.00137,148.00074 272.00136,146.00073 271.00135,143.00072 C 270.00135,140.0007 270.00135,136.00068 277.00139,136.00068 C 284.00142,136.00068 298.00149,140.0007 306.00153,145.00073 C 314.00157,150.00075 316.00158,156.00078 320.0016,160.0008 C 324.00162,164.00082 330.00165,166.00083 336.00168,166.00083 C 342.00171,166.00083 348.00174,164.00082 354.00177,164.00082 C 360.0018,164.00082 366.00183,166.00083 372.00186,168.00084 C 370.00185,166.00083 368.00184,164.00082 365.00183,162.00081 C 362.00181,160.0008 358.00179,158.00079 352.00176,157.00079 C 346.00173,156.00078 338.00169,156.00078 333.00167,154.00077 C 328.00164,152.00076 326.00163,148.00074 326.53497,145.46739 C 327.00164,143.00072 330.00165,142.00071 336.53502,141.00071 C 343.00172,140.0007 353.00177,139.0007 361.46847,141.46737 C 370.00185,144.00072 377.00189,150.00075 385.46859,151.00076 C 394.00197,152.00076 404.00202,148.00074 411.00206,146.00073 C 418.00209,144.00072 422.00211,144.00072 423.00212,143.00072 C 424.00212,142.00071 422.00211,140.0007 416.00208,140.0007 C 410.00205,140.0007 400.002,142.00071 392.00196,141.00071 C 384.00192,140.0007 378.00189,136.00068 376.00188,132.00066 C 374.00187,128.00064 376.00188,124.00062 382.00191,120.0006 C 388.00194,116.00058 398.00199,112.00056 408.00204,108.00054 L 420.0021,102.00051 C 414.00207,102.00051 408.00204,102.00051 402.00201,103.00052 C 396.00198,104.00052 390.00195,106.00053 383.00192,110.00055 C 376.00188,114.00057 368.00184,120.0006 358.00179,124.00062 C 348.00174,128.00064 336.00168,130.00065 323.00162,130.00065 C 310.00155,130.00065 296.00148,128.00064 285.00143,126.00063 C 274.00137,124.00062 266.00133,122.00061 257.00129,118.00059 C 248.00124,114.00057 238.00119,108.00054 231.00116,104.00052 C 224.00112,100.0005 220.0011,98.00049 216.00108,96.00048"
       style="fill:#d40000;stroke:#d40000;stroke-width:2"
       id="Antler-1" />
    <path
       d="M 180.0009,264.00132 L 150.00075,234.00117 C 146.00073,238.00119 142.00071,242.00121 139.0007,245.00123 C 136.00068,248.00124 134.00067,250.00125 130.00065,254.00127 C 126.00063,258.00129 120.0006,264.00132 114.00057,268.00134 C 108.00054,272.00136 102.00051,274.00137 97.000485,277.00139 C 92.00046,280.0014 88.00044,284.00142 84.00042,287.00144 C 80.0004,290.00145 76.00038,292.00146 75.000375,298.00149 C 74.00037,304.00152 76.00038,314.00157 75.000375,324.00162 C 74.00037,334.00167 70.00035,344.00172 69.000345,353.00177 C 68.00034,362.00181 70.00035,369.14913 72.00036,377.14917 C 72.00036,377.14917 89.58446,373.25468 85.000425,361.00181 C 84.00042,358.00179 84.00042,356.00178 86.00043,356.00178 C 88.00044,356.00178 92.00046,358.00179 94.00047,358.00179 C 96.00048,358.00179 96.00048,356.00178 94.00047,353.00177 C 92.00046,350.00175 88.00044,346.00173 87.000435,338.00169 C 86.00043,330.00165 88.00044,318.00159 92.00046,310.00155 C 96.00048,302.00151 102.00051,298.00149 109.00055,295.00148 C 116.00058,292.00146 124.00062,290.00145 133.00067,289.00144 C 142.00071,288.00144 152.00076,288.00144 160.0008,287.00144 C 168.00084,286.00143 174.00087,284.00142 177.00089,280.0014 C 180.0009,276.00138 180.0009,270.00135 180.0009,264.00132 z "
       style="fill:#ffcd50;stroke:#ffcd50;stroke-width:4"
       id="Leg-1" />
    <path
       d="M 192.00096,90.00045 C 194.00097,90.00045 196.00098,90.00045 200.001,89.000445 C 204.00102,88.00044 210.00105,86.00043 217.00109,87.000435 C 224.00112,88.00044 232.00116,92.00046 236.00118,94.00047 C 240.0012,96.00048 240.0012,96.00048 236.00118,99.000495 C 232.00116,102.00051 224.00112,108.00054 217.00109,110.00055 C 210.00105,112.00056 204.00102,110.00055 198.00099,108.00054 C 192.00096,106.00053 186.00093,104.00052 180.0009,102.00051"
       style="fill:#ffcd50;stroke:#003d8f;stroke-width:2"
       id="Ear" />
    <path
       d="M 121.69134,113.77025 C 108.61189,112.69066 83.833928,124.47482 75.530173,109.47619 C 74.367495,107.3761 72.309627,107.32915 70.162595,109.47619 C 68.015564,111.62322 65.868533,115.91728 65.868533,119.13783 C 65.868533,122.35837 68.015564,124.5054 72.309627,125.57892 C 76.603689,126.65243 83.044782,126.65243 89.485876,125.57892 C 95.926969,124.5054 102.36806,122.35837 108.80916,120.21134 C 115.25025,118.06431 121.69134,115.91728 128.13244,113.77025"
       style="fill:#d40000;stroke:none"
       id="Tongue" />
    <path
       d="M 337.72262,313.49382 C 332.72259,309.4938 327.72257,305.49378 325.25589,301.49376 C 322.72254,297.49374 322.72254,293.49372 320.72253,290.4937 C 318.72252,287.49369 314.7225,285.49368 312.72249,282.49367 C 310.72248,279.49365 310.72248,275.49363 308.72247,272.49361 C 306.72246,269.4936 302.72244,267.49359 298.72242,265.49358"
       style="fill:none;stroke:#003d8f;stroke-width:2"
       id="Leg-line-4" />
    <path
       d="M 275.37733,293.34644 C 282.37736,292.34643 295.34646,289.4278 300.87982,287.89446 C 306.34651,286.42779 309.28063,285.06732 313.28065,283.06731"
       style="fill:none;stroke:#003d8f;stroke-width:2"
       id="Leg-line-3" />
    <path
       d="M 209.57469,289.06734 C 203.57466,287.06733 197.57463,285.06732 193.57461,283.06731 C 189.57459,281.0673 187.57458,279.06729 185.57457,277.06728"
       style="fill:none;stroke:#003d8f;stroke-width:2"
       id="Leg-line-2" />
    <path
       d="M 153.00077,291.00146 C 154.00077,290.00145 155.00078,289.00144 159.46746,288.53478 C 164.00082,288.00144 172.00086,288.00144 178.00089,284.00142 C 184.00092,280.0014 188.00094,272.00136 192.00096,264.00132"
       style="fill:none;stroke:#003d8f;stroke-width:2"
       id="Leg-line-1" />
    <path
       d="M 227.34103,433.46955 C 216.75303,437.52967 214.13155,446.71058 204.90953,454.25607 C 204.90953,454.25607 247.52937,454.62562 247.52937,454.62562 C 249.24913,450.13933 247.00598,438.55402 247.00598,434.6659 C 247.00598,434.6659 227.34103,433.46955 227.34103,433.46955 z "
       style="fill:#d40000;stroke:none"
       id="Hoof-3" />
    <path
       d="M 70.248298,377.82068 C 73.465069,388.88711 80.630776,391.27507 88.286198,405.4788 C 88.286198,405.4788 91.25243,367.55912 91.25243,367.55912 C 89.488725,365.79541 87.083671,360.98531 85.881145,357.37774 C 85.881145,357.37774 67.810521,369.43417 70.248298,377.82068 z "
       style="fill:#d40000;stroke:none"
       id="Hoof-1" />
    <path
       d="M 136.36954,426.87034 C 130.35187,433.76392 127.86328,440.51611 121.58606,445.46788 C 121.58606,445.46788 154.50853,450.95893 154.50853,450.95893 C 155.81454,448.92736 156.68522,446.60557 157.26567,444.28378 C 158.42656,439.64019 158.42656,434.99661 159.58746,431.51393 C 159.58746,431.51393 136.36954,426.87034 136.36954,426.87034 z "
       style="fill:#d40000;stroke:none"
       id="Hoof-2" />
    <path
       d="M 336.77075,417.28875 C 325.35242,422.5042 323.87776,434.24681 317.27709,440.84749 C 317.27709,440.84749 345.42288,434.93037 351.01634,431.53434 C 351.01634,429.16008 351.18088,426.83649 352.20348,423.22442 C 353.17601,419.78922 336.77075,417.28875 336.77075,417.28875 z "
       style="fill:#d40000;stroke:none"
       id="Hoof-4" />
    <path
       d="M 169.34874,130.0316 C 169.33616,130.19561 169.28493,130.85707 169.11421,131.28956 C 168.38807,133.12913 164.21647,135.04614 165.37513,135.25386 L 209.66329,143.19362 C 209.66329,143.19362 210.71275,138.02683 211.26111,135.21908 L 169.34874,130.0316 z "
       style="fill:#d40000;stroke:none"
       id="Halsband" />
    <path
       d="M 146.90626,93.075998 C 145.16208,92.283271 144.39001,90.224615 145.18291,88.480789 C 145.97579,86.736963 148.03487,85.965055 149.77905,86.757784 C 151.52323,87.550508 152.29529,89.609164 151.5024,91.352993 C 150.72879,93.054411 148.75805,93.836447 147.02799,93.12854"
       style="fill:#ffcd50;stroke:none"
       id="Eye" />
  </g>
  <path
     d="M 249.55062,1.4395041 L 1.449569,1.4395041 L 1.449569,174.9361 C 0.68232904,268.65698 81.739009,302.75585 125.5001,302.75585 C 168.49395,302.75585 250.31785,268.65698 249.55062,174.9361 L 249.55062,1.4395041 z "
     style="fill:none;fill-opacity:0;stroke:#000000;stroke-width:1.88832211;stroke-linejoin:bevel"
     id="Frame" />
</svg>
