<?xml version="1.0" encoding="UTF-8" standalone="no"?>
<!-- Created with Inkscape (http://www.inkscape.org/) -->

<svg
   xmlns:dc="http://purl.org/dc/elements/1.1/"
   xmlns:cc="http://web.resource.org/cc/"
   xmlns:rdf="http://www.w3.org/1999/02/22-rdf-syntax-ns#"
   xmlns:svg="http://www.w3.org/2000/svg"
   xmlns="http://www.w3.org/2000/svg"
   version="1.0"
   width="251"
   height="304.20001"
   id="svg4166">
  <defs
     id="defs4168" />
  <metadata 
     id="metadata1880"><rdf:RDF><cc:Work
         rdf:about=""><dc:title>Askersund kommunsvapen</dc:title><dc:date>2010-03-18</dc:date><dc:creator><cc:Agent><dc:title>Lokal_Profil</dc:title></cc:Agent></dc:creator><cc:license
         rdf:resource="http://creativecommons.org/licenses/by-sa/2.5/" /><dc:rights><cc:Agent><dc:title>cc-by-sa-2.5</dc:title></cc:Agent></dc:rights><dc:format>image/svg+xml</dc:format><dc:type
         rdf:resource="http://purl.org/dc/dcmitype/StillImage" /></cc:Work><cc:License
         rdf:about="http://creativecommons.org/licenses/by-sa/2.5/"><cc:permits
         rdf:resource="http://web.resource.org/cc/Reproduction" /><cc:permits
         rdf:resource="http://web.resource.org/cc/Distribution" /><cc:requires
         rdf:resource="http://web.resource.org/cc/Notice" /><cc:requires
         rdf:resource="http://web.resource.org/cc/Attribution" /><cc:permits
         rdf:resource="http://web.resource.org/cc/DerivativeWorks" /><cc:requires
         rdf:resource="http://web.resource.org/cc/ShareAlike" /></cc:License></rdf:RDF>
  </metadata>
  <path
     d="m 249.55058,1.4395041 -124.0505,0 -124.0505509,0 0,173.4965959 C 0.68228908,268.65698 81.738969,302.75585 125.50006,302.75585 c 42.99385,0 124.81775,-34.09887 124.05052,-127.81975 l 0,-173.4965959 z"
     id="Shield"
     style="fill:#eeeeee" />
  <g
     transform="matrix(1.6075392,0,0,1.6075392,-25.984016,-16.778921)"
     id="Smed"
     style="stroke:#eeeeee">
    <g
       id="Strumpor"
       style="fill:#ffff00">
      <path
         d="m 75.87754,174.82053 c 1.30538,-3.26343 1.30538,-33.86718 1.30538,-33.86718 0,0 11.38575,-1.88554 11.60331,-0.7252 0.21756,1.16033 3.26344,4.71384 2.24814,10.80558 -1.01529,6.09175 -3.48099,9.0651 -4.06116,13.34382 -0.58016,4.27872 -0.94277,12.40104 -0.94277,12.40104 0,0 -2.4657,2.17563 -5.58409,1.30538 -3.11839,-0.87025 -4.56881,-3.19092 -4.56881,-3.26344 z"
         id="path3260" />
      <path
         d="m 96.76351,139.79302 c 1.3779,2.75579 10.51551,20.16076 11.60332,24.1494 1.08781,3.98864 2.03058,8.84753 1.66798,10.37047 -0.36261,1.52293 0.32928,2.7948 1.77969,1.77951 1.45042,-1.01529 7.57548,-3.73757 7.79304,-5.04294 0.21757,-1.30538 -3.62603,-6.01922 -4.27872,-10.80559 -0.65269,-4.78637 0.0725,-13.19878 -1.59546,-17.25994 -1.66797,-4.06116 -4.49628,-9.21013 -6.09174,-9.57273 -1.59545,-0.36261 -10.87811,6.38182 -10.87811,6.38182 z"
         id="path3262" />
    </g>
    <path
       d="m 76.16762,46.89396 c 4.78637,1.30538 5.07646,0.72521 6.96199,-2.4657 1.88554,-3.19091 4.78637,-4.35124 2.32067,-5.36653 -2.46571,-1.0153 -8.26737,-3.91612 -8.55745,-2.90083 -0.29008,1.01529 -1.59545,2.90083 -1.01529,5.07645 0.58017,2.17562 0.29008,5.65661 0.29008,5.65661 z"
       id="Hand-2"
       style="fill:#eebb99" />
    <g
       id="Hammare"
       style="fill:#000000">
      <path
         d="m 50.78537,23.83237 c 0,0 100.80382,28.71821 100.94886,30.16863 0.14504,1.45041 -1.30538,7.25207 -3.19092,6.52686 C 146.65778,59.80265 49.04487,28.4737 47.7395,27.89353 46.43412,27.31337 47.30437,22.81708 50.78537,23.83237 z"
         id="path3272" />
      <path
         d="m 139.11562,38.19148 c -8.12232,24.65705 -9.86282,25.38225 -9.28265,26.83267 0.58016,1.45041 9.86282,7.54215 11.45827,6.52686 1.59546,-1.01529 11.15301,-26.786379 11.45828,-27.84796 0.33632,-1.169581 0.96214,-2.113879 -1.59546,-2.90083 -3.77108,-1.16033 -11.31323,-5.22149 -12.03844,-2.61074 z"
         id="path3270" />
    </g>
    <g
       id="Skor"
       style="fill:#000000">
      <path
         d="m 60.64819,183.88563 c 0,0 -0.79773,-2.24815 0.79773,-2.39319 1.59545,-0.14504 8.775,0.58017 11.38575,-3.48099 2.61075,-4.06116 2.24814,-3.40848 3.33595,-2.39319 1.08782,1.01529 8.41241,2.17562 10.15291,0.72521 1.74049,-1.45042 1.52293,1.88554 1.59545,3.91612 0.0725,2.03058 0,3.40847 0,3.40847 -2.360211,1.77016 -25.694316,2.3811 -27.26779,0.21757 z"
         id="path3258" />
      <path
         d="m 102.05753,181.71 c 4.64132,-1.16033 4.2062,-0.21756 5.65661,-2.61074 1.45042,-2.39319 1.45042,-5.51158 2.1031,-4.78637 0.65269,0.72521 2.57343,1.62713 5.47426,0.0317 2.90083,-1.59545 3.2303,-2.09209 3.72674,-2.92332 0.67037,-1.12244 1.25309,-2.05656 2.12334,-0.82371 0.87025,1.23286 5.57299,5.45586 2.96225,7.26887 -2.61075,1.81302 -9.0651,5.36653 -9.35518,5.80166 -0.83528,1.25295 -14.5325,1.96893 -15.61426,0.24547 -0.781355,-1.7897 1.61401,-1.83573 2.92314,-2.20356 z"
         id="path3264" />
    </g>
    <g
       id="Hand-1"
       style="fill:#eebb99">
      <path
         d="m 58.215868,41.930442 c 1.7405,-4.93141 0.619242,-7.142172 2.432312,-10.120792 2.03059,-3.33595 2.61075,-6.09174 5.65663,-5.65661 3.04587,0.43512 8.12232,3.04587 8.12232,4.2062 0,1.16033 -2.46571,0.87025 -2.75579,3.62603 -0.29008,2.75579 4.35124,1.45042 0,4.06116 -3.11923,1.87154 -4.93141,1.7405 -5.9467,3.33596 -1.01529,1.59545 -7.508772,0.257972 -7.508772,0.548052 z"
         id="path3298" />
      <path
         d="m 77.32796,30.64932 c 0.14504,2.4657 -0.11846,1.06849 0.58016,2.46571 0.43513,0.87024 7.54216,2.75578 7.97728,1.74049 0.43513,-1.01529 0,-2.75579 -0.87025,-3.04587 -0.87024,-0.29008 -7.68719,-2.32066 -7.68719,-1.16033 z"
         id="path3302" />
    </g>
    <g
       id="Shirt"
       style="fill:#ffffff">
      <path
         d="m 75.29738,74.16176 c -3.62604,-1.16033 -6.96199,0.43512 -5.80166,-5.51158 1.16033,-5.9467 2.32066,-20.45084 4.2062,-21.46613 1.88554,-1.01529 3.33595,-1.01529 5.36653,-0.43513 2.03058,0.58017 4.20621,0.72521 3.481,3.481 -0.72521,2.75579 -0.43513,16.38968 -1.30538,18.13018 -0.87025,1.7405 -1.59545,5.9467 -3.48099,6.09174 -1.88554,0.14504 -2.61075,-0.43512 -2.4657,-0.29008 z"
         id="path3290" />
      <path
         d="m 75.15233,91.13161 c -0.43512,-7.6872 -1.88553,-6.52687 0.87025,-12.47357 2.75579,-5.9467 4.388461,-10.481471 4.533511,-11.496761 0.14504,-1.01529 -5.113671,-1.411929 -7.579381,-1.411929 -2.4657,0 -4.49628,1.7405 -7.54215,-1.01529 -3.04587,-2.75578 -7.54216,-4.2062 -7.39712,-12.76364 0.14504,-8.55745 -1.88554,-8.41241 0.14504,-9.86282 2.03058,-1.45042 6.67191,-3.62604 7.54216,-1.01529 0.87025,2.61074 0.58017,7.39711 2.03058,9.57273 1.45041,2.17562 -0.43512,3.19091 1.88554,3.19091 2.32066,0 14.21406,-0.29008 16.96985,-0.43512 2.75579,-0.14504 2.4657,-3.91612 6.52687,-3.481 4.06116,0.43513 3.91612,1.45042 6.23678,0.87025 2.32066,-0.58016 3.33595,-2.75578 4.2062,-1.30537 0.87025,1.45042 5.51158,9.57274 3.04587,21.03101 -2.4657,11.45828 -4.35124,19.29052 -4.35124,19.29052 l -27.12276,1.30537 z"
         id="path3294" />
      <path
         d="m 84.87012,74.59689 c 1.740495,-4.278725 -1.598332,-6.817911 -4.698595,-7.960115"
         id="path3296"
         style="fill:none" />
    </g>
    <g
       id="Byxa"
       style="fill:#003d8f">
      <path
         d="m 74.6449,90.88693 c 0,5.51158 0.0723,26.64223 -0.6529,29.83314 -0.7252,3.19091 -2.795858,15.2 -2.75579,17.69506 0.03585,2.23266 -0.58016,4.49628 2.90083,3.62603 3.481,-0.87025 13.92398,1.01529 15.51944,-1.45041 1.59546,-2.46571 0.87025,-4.49629 2.17562,-3.19091 1.30538,1.30537 1.16033,4.06116 4.20621,2.4657 3.04587,-1.59545 13.34381,-4.64133 11.8934,-7.39711 -1.45042,-2.75579 -3.91612,-2.32067 -3.19092,-4.93141 0.72521,-2.61075 0.29009,-3.62604 -1.16033,-7.83224 -1.45041,-4.2062 -1.01529,-8.70249 0.14504,-11.60332 1.16033,-2.90083 0.19487,-18.16903 -1.45482,-18.56972 -2.38857,-0.58016 -26.75553,0.48495 -27.62578,1.35519 z"
         id="path3266" />
      <path
         d="M 91.185962,136.9571 C 83.008541,129.39684 79.459848,107.64182 79.459848,107.64182"
         id="path3027"
         style="fill:none" />
    </g>
    <g
       id="Ansikte"
       style="fill:#eebb99">
      <path
         d="m 92.99243,50.08488 c -0.87024,-4.35125 -2.17562,-4.49629 0.43513,-6.52687 2.61075,-2.03058 4.2062,-1.45041 5.07645,-3.04587 0.87025,-1.59546 3.19091,-2.03058 2.75579,-0.58017 -0.43513,1.45042 2.17562,7.10704 2.03058,8.26737 -0.14504,1.16033 0.29008,5.07645 -2.75579,4.2062 C 97.48872,51.53529 92.55731,50.52 92.99243,50.08488 z"
         id="path3304" />
      <path
         d="m 92.12219,45.58859 c -3.19092,0.14504 -5.51158,0.72521 -5.2215,-1.59546 0.29009,-2.32066 0.72521,-4.9314 0.14504,-6.6719 -0.58016,-1.7405 -3.77107,-1.30538 -1.59545,-3.62604 2.17562,-2.32066 3.48099,-2.61075 3.62603,-4.06116 0.14505,-1.45041 1.0153,-4.06116 3.04588,-5.65662 2.03058,-1.59545 1.59545,-2.17562 2.90082,-1.59545 1.30538,0.58016 8.41241,4.35124 5.80166,6.52686 -2.61074,2.17562 -1.74049,7.6872 -1.16033,9.13761 0.58017,1.45042 2.46571,1.7405 0.58017,2.75579 -1.88554,1.01529 -7.25208,3.04587 -8.12232,4.78637 z"
         id="path3306" />
      <path
         d="m 89.10882,29.28893 c 1.88554,0.7252 2.54824,1.61047 2.54824,1.61047 0,0 -0.71521,0.97527 -1.55921,0.81898 -1.21851,-0.22564 -1.53418,0.20255 -1.67923,-0.37761 -0.14504,-0.58017 0.98028,-1.9068 0.6902,-2.05184 z"
         id="eye"
         style="fill:#000000" />
      <path
         d="m 87.020106,41.913865 c 0,0 3.857274,0.308583 4.474438,-1.388618"
         id="path3029"
         style="fill:none" />
    </g>
    <path
       d="m 90.917069,25.613153 c 2.75578,-2.4657 6.897638,-5.035484 8.287354,-4.663111 5.523677,1.480065 9.801047,2.105859 10.944477,3.638777 0.91283,1.223769 0.51085,1.209789 -1.05686,11.281991 -0.41131,2.642615 -6.92313,5.931773 -8.37354,4.336313 -3.03583,-6.044248 -5.665641,-9.082089 -9.801431,-14.59397 z"
       id="Cap"
       style="fill:#003d8f" />
  </g>
  <path
     d="m 249.55062,1.4395041 -124.0505,0 -124.050551,0 0,173.4965959 c -0.76723996,93.72088 80.28944,127.81975 124.050531,127.81975 42.99385,0 124.81775,-34.09887 124.05052,-127.81975 l 0,-173.4965959 z"
     id="Frame"
     style="fill:none;stroke:#000000;stroke-width:1.88832211;stroke-linejoin:bevel" />
</svg>
