<?xml version="1.0" encoding="UTF-8" standalone="no"?>
<!-- Created with Inkscape (http://www.inkscape.org/) -->

<svg
   xmlns:dc="http://purl.org/dc/elements/1.1/"
   xmlns:cc="http://creativecommons.org/ns#"
   xmlns:rdf="http://www.w3.org/1999/02/22-rdf-syntax-ns#"
   xmlns:svg="http://www.w3.org/2000/svg"
   xmlns="http://www.w3.org/2000/svg"
   xmlns:xlink="http://www.w3.org/1999/xlink"
   version="1.1"
   width="251"
   height="304.60001"
   id="svg5048">
  <defs
     id="defs5105" />
  <metadata
     id="metadata1880"><rdf:RDF><cc:Work
         rdf:about=""><dc:title>Danderyd kommunvapen</dc:title><dc:date>2006-12-11</dc:date><dc:creator><cc:Agent><dc:title>Lokal_Profil</dc:title></cc:Agent></dc:creator><cc:license
         rdf:resource="http://creativecommons.org/licenses/by-sa/2.5/" /><dc:rights><cc:Agent><dc:title>cc-by-sa-2.5</dc:title></cc:Agent></dc:rights><dc:format>image/svg+xml</dc:format><dc:type
         rdf:resource="http://purl.org/dc/dcmitype/StillImage" /></cc:Work><cc:License
         rdf:about="http://creativecommons.org/licenses/by-sa/2.5/"><cc:permits
         rdf:resource="http://web.resource.org/cc/Reproduction" /><cc:permits
         rdf:resource="http://web.resource.org/cc/Distribution" /><cc:requires
         rdf:resource="http://web.resource.org/cc/Notice" /><cc:requires
         rdf:resource="http://web.resource.org/cc/Attribution" /><cc:permits
         rdf:resource="http://web.resource.org/cc/DerivativeWorks" /><cc:requires
         rdf:resource="http://web.resource.org/cc/ShareAlike" /></cc:License></rdf:RDF>
  </metadata>
  <path
     d="m 0.50543888,0.4978783 124.99155112,0 124.99158,0 0,174.8127217 c 0.77312,94.43187 -80.89847,128.78941 -124.99156,128.78941 -43.320017,0 -125.7646213,-34.35754 -124.99157112,-128.78941 l 0,-174.8127217 z"
     id="Shield"
     style="fill:#d40000" />
  <path
     d="M 0.50539547,175.30532 C 0.18864205,213.99831 13.850623,242.58206 33.063017,262.87084 105.49358,236.5437 177.8981,210.14767 250.32374,183.80683 c 0.0179,-0.39007 0.048,-0.77277 0.063,-1.16502 C 237.27815,173.7822 52.204416,110.13545 0.53688253,91.392299 L 0.50539547,175.30532 z M 33.063017,262.87084 c 2.47706,2.58248 2.460501,2.59864 0,0 z"
     id="Spets"
     style="fill:#eeeeee" />
  <path
     d="m 0.50047753,0.49882321 0,91.19358379 249.99417247,0 0,-91.19358379 -124.99709,0 -124.99708247,0 z"
     id="Chef"
     style="fill:#eeeeee" />
  <g
     transform="matrix(0.405095,0,0,0.405155,85.06543,9.67176)"
     id="Rose"
     style="fill:#d40000;stroke:#eeeeee;stroke-width:2.4732132">
    <g
       id="g5140">
      <path
         d="m 197.32069,111.1417 c -8.18939,-4.35288 -21.1646,-13.681216 -28.89338,-24.358992 l -35.37495,1.053482 -3.60025,10.982876 32.56872,16.709084 c 16.03223,-3.25641 25.94115,-6.143 35.29986,-4.38645 z"
         id="path5061" />
      <path
         d="m 100.00147,177.25134 c 1.74103,-9.10947 6.82276,-24.26038 14.74272,-34.79713 l -11.45056,-33.48704 -11.556235,-0.19719 -6.348717,36.05009 c 7.844577,14.35615 13.527994,22.97113 14.612792,32.43127 z"
         id="path5063" />
      <path
         d="m 2.3094696,113.03009 c 9.2412684,-0.78275 25.2015024,0.0203 37.4850874,4.80174 L 68.947203,97.766434 66.017425,86.586013 29.591896,90.204868 C 17.886414,101.6337 11.125536,109.43176 2.3094696,113.03009 z"
         id="path5065" />
      <path
         d="M 161.79539,2.5455957 C 154.15681,7.8054365 139.89658,15.01789 126.85796,16.952692 l -15.3761,31.875893 8.08569,8.258754 29.84389,-21.195692 c 4.50265,-15.727767 6.51009,-25.851474 12.38395,-33.3460513 z"
         id="path5067" />
      <path
         d="m 38.758,3.4743694 c 4.214427,8.2614966 9.497674,23.3433126 9.708649,36.5230146 L 78.054914,59.414683 87.301248,52.479934 70.195533,20.117769 C 55.192702,13.594612 45.418985,10.278945 38.758,3.4743694 z"
         id="path5069" />
    </g>
    <g
       id="g5158">
      <path
         d="M 79.431709,6.1722026 C 72.829097,6.1120795 67.44217,9.0977457 64.243533,17.547553 c -1.411713,7.427923 -2.008267,14.450903 1.363527,19.487073 12.244616,19.566875 18.706334,26.67828 26.733967,37.162423 2.155644,-11.372676 4.646496,-20.737926 5.55511,-39.592784 0.908612,18.854896 3.399463,28.220098 5.555113,39.592784 9.08369,-12.30234 18.31851,-24.529119 26.74028,-37.162423 3.37178,-5.03617 2.76892,-12.05915 1.35721,-19.487073 C 127.61195,7.1477902 120.36187,5.0258494 111.60716,6.6709 106.82053,7.9596097 103.35502,9.9948483 98.016077,9.8461504 l -0.01077,7.474e-4 -0.220942,0 -0.0018,-7.474e-4 C 92.443607,9.9948483 88.971796,7.9596097 84.185156,6.6709 82.543647,6.362453 80.955429,6.186077 79.43175,6.1722026 z"
         id="path5073" />
      <path
         d="m 97.896137,34.604265 c -0.908614,18.854858 -3.399466,28.220108 -5.55511,39.592784 -0.03143,-0.04105 -0.06331,-0.079 -0.09469,-0.11994 l 0.01262,0.23988 11.103903,0 0.0252,-0.448196 c -2.141,-11.2249 -4.592178,-20.592494 -5.491979,-39.264528 z"
         id="path5075" />
      <path
         d="m 20.213219,77.410383 c -2.006581,6.290613 -0.744233,12.318855 6.38474,17.869383 6.680143,3.541575 13.214031,6.184774 19.021135,4.449961 C 67.928648,93.807082 76.630671,89.732674 89.017391,85.157794 78.787912,79.740926 70.575349,74.596393 52.829006,68.162186 71.111843,72.860165 80.794994,73.244992 92.297207,74.542712 83.224702,62.232106 74.269004,49.799416 64.684882,38.023532 60.868529,33.315298 53.980567,31.818058 46.466927,30.974084 c -11.098453,0.691259 -15.266103,6.991821 -16.278818,15.842 -0.181771,4.953748 0.739725,8.865626 -0.97844,13.922738 l -0.0025,0.01052 -0.06522,0.211094 -0.0012,0.0016 c -1.434022,5.144907 -4.403461,7.861176 -7.047789,12.054058 -0.779285,1.477297 -1.416654,2.942667 -1.879711,4.394346 z"
         id="path5077" />
      <path
         d="m 52.829006,68.162186 c 17.746343,6.434207 25.958906,11.57874 36.188385,16.995608 -0.04849,0.01792 -0.09417,0.03717 -0.142546,0.05506 l 0.232914,0.05875 3.277952,-10.60905 -0.420767,-0.156436 C 80.608255,73.238037 70.93453,72.8146 52.829006,68.162186 z"
         id="path5079" />
      <path
         d="m 158.86408,130.70045 c 5.27084,-3.97697 7.72139,-9.62745 5.10651,-18.27574 -3.40857,-6.74896 -7.21652,-12.680033 -12.9593,-14.617155 -21.63388,-8.047845 -31.09114,-9.746636 -43.84564,-13.164647 5.22335,10.329618 8.95734,19.272182 19.73003,34.773142 -12.21331,-14.3933 -19.8965,-20.29922 -28.537608,-28.000897 0.297843,15.289607 0.429824,30.611427 1.454144,45.759927 0.396834,6.04768 5.155614,11.24765 10.802434,16.27559 9.46006,5.8447 16.50097,3.10756 22.43849,-3.53299 3.00905,-3.93931 4.51573,-7.66514 8.8388,-10.80162 l 0.008,-0.007 0.17515,-0.13468 0.002,-6e-4 c 4.14179,-3.37224 8.13463,-3.87506 12.71476,-5.77114 1.48931,-0.75607 2.85587,-1.58435 4.07222,-2.50211 z"
         id="path5081" />
      <path
         d="M 126.89568,119.41605 C 116.12299,103.91509 112.389,94.972526 107.16565,84.642908 c 0.0499,0.01337 0.0983,0.02403 0.14818,0.03736 l -0.15623,-0.182468 -8.802576,6.768396 0.253181,0.370698 c 8.539415,7.593445 16.192615,13.525456 28.287475,27.779156 z"
         id="path5083" />
      <path
         d="m 70.902906,154.77894 c 5.446368,3.733 11.582776,4.25997 18.951024,-0.96876 5.315139,-5.37739 9.727842,-10.87341 9.738683,-16.93409 C 100.34494,113.80602 98.948889,104.29934 98.134581,91.119912 90.001532,99.356308 82.710062,105.73963 71.438257,120.88157 81.20186,104.72591 84.358686,95.563709 88.913543,84.922365 74.5119,90.065714 60.026981,95.062048 45.99009,100.84932 c -5.607746,2.29895 -9.024983,8.46404 -11.996791,15.41641 -2.533859,10.82742 2.299747,16.63281 10.483458,20.15107 4.691585,1.60053 8.703122,1.8445 13.051285,4.94611 l 0.0094,0.005 0.183373,0.12325 0.0012,0.002 c 4.514056,2.85478 6.260215,6.48061 9.514063,10.22029 1.190327,1.17167 2.410098,2.204 3.66695,3.06546 z"
         id="path5085" />
      <path
         d="m 71.438257,120.88157 c 11.271805,-15.14194 18.563275,-21.525262 26.696324,-29.761658 0.0032,0.0516 0.0085,0.100881 0.01168,0.152366 l 0.123331,-0.206133 -9.215798,-6.194027 -0.270972,0.357901 C 84.298244,95.740537 81.107159,104.88259 71.438249,120.88157 z"
         id="path5087" />
      <path
         d="m 164.27449,40.103305 c -2.05659,-6.274428 -6.60955,-10.42216 -15.63863,-10.747635 -7.48897,1.040311 -14.33336,2.723258 -18.02519,7.529748 -14.61767,17.863817 -19.28642,26.261938 -26.64918,37.223214 11.46428,-1.598272 21.13408,-2.236378 39.28765,-7.411167 -17.5719,6.896404 -25.64697,12.254063 -35.73118,17.936767 14.56275,4.667632 29.1023,9.502624 43.76671,13.437217 5.85051,1.582247 12.31096,-1.237003 18.89612,-4.95217 8.59233,-7.058682 8.28181,-14.606515 3.92087,-22.373961 -2.75314,-4.122233 -5.79062,-6.753887 -7.35879,-11.859495 l -0.004,-0.01 -0.0707,-0.209315 1.2e-4,-0.002 c -1.84991,-5.010408 -1.03312,-8.951027 -1.34447,-13.898321 -0.23324,-1.65387 -0.57455,-3.214975 -1.04914,-4.662919 z"
         id="path5089" />
      <path
         d="m 143.24914,66.697466 c -18.15357,5.174788 -27.82336,5.812896 -39.28765,7.411167 0.0288,-0.04291 0.0546,-0.08527 0.0833,-0.1281 l -0.22321,0.08875 3.55445,10.51962 0.43269,-0.119549 c 9.9489,-5.621521 18.03892,-10.942365 35.4404,-17.771886 z"
         id="path5093" />
    </g>
    <path
       d="m 123.58474,81.914274 c 0.004,13.65287 -11.35163,24.722696 -25.360664,24.722696 -14.009034,0 -25.364518,-11.069826 -25.360667,-24.722696 -0.0039,-13.652869 11.351633,-24.722696 25.360667,-24.722696 14.009034,0 25.364514,11.069827 25.360664,24.722696 l 0,0 z"
       id="path5095" />
  </g>
  <use
     transform="translate(-82.5,0)"
     id="Rose-2"
     x="0"
     y="0"
     width="251"
     height="304.60001"
     xlink:href="#Rose" />
  <use
     transform="translate(82.5,0)"
     id="Rose-3"
     x="0"
     y="0"
     width="251"
     height="304.60001"
     xlink:href="#Rose" />
  <path
     d="m 0.50543888,0.4978783 124.99155112,0 124.99158,0 0,174.8127217 c 0.77312,94.43187 -80.89847,128.78941 -124.99156,128.78941 -43.320017,0 -125.7646213,-34.35754 -124.99157112,-128.78941 l 0,-174.8127217 z"
     id="Frame"
     style="fill:none;stroke:#000000;stroke-width:1.88832211;stroke-linejoin:bevel" />
  <metadata
     id="metadata5190">
    <rdf:RDF>
      <cc:Work
         rdf:about="">
        <dc:title />
      </cc:Work>
    </rdf:RDF>
  </metadata>
</svg>
