<?xml version="1.0" encoding="UTF-8" standalone="no"?>
<!-- Created with Inkscape (http://www.inkscape.org/) -->
<svg
   xmlns:svg="http://www.w3.org/2000/svg"
   xmlns="http://www.w3.org/2000/svg"
   xmlns:xlink="http://www.w3.org/1999/xlink"
   version="1.0"
   width="251"
   height="304.20001"
   id="svg4166">
  <defs
     id="defs4168" />
  <path
     d="M 249.55058,1.4395041 L 1.4495291,1.4395041 L 1.4495291,174.9361 C 0.68228908,268.65698 81.738969,302.75585 125.50006,302.75585 C 168.49391,302.75585 250.31781,268.65698 249.55058,174.9361 L 249.55058,1.4395041 z"
     id="Shield"
     style="fill:#ffcd50" />
  <path
     d="M 249.55062,1.4395041 L 1.449569,1.4395041 L 1.449569,174.9361 C 0.68232904,268.65698 81.739009,302.75585 125.5001,302.75585 C 168.49395,302.75585 250.31785,268.65698 249.55062,174.9361 L 249.55062,1.4395041 z"
     id="Frame"
     style="fill:none;fill-opacity:0;stroke:#000000;stroke-width:1.88832211;stroke-linejoin:bevel" />
  <g
     transform="matrix(1.0952381,0,0,1.0952381,-11.952358,-8.5674872)"
     id="Blomma">
    <path
       d="M 170.01536,138.4772 C 170.01536,163.06235 150.08516,182.99255 125.50001,182.99255 C 100.91485,182.99255 80.984646,163.06235 80.984646,138.4772 C 80.984646,113.89205 100.91485,93.961841 125.50001,93.961841 C 150.08516,93.961841 170.01536,113.89205 170.01536,138.4772 L 170.01536,138.4772 z"
       id="path3140"
       style="fill:#000000;stroke:#ffcd50;stroke-width:1.84510374" />
    <g
       id="blad"
       style="fill:#000000;stroke:#000000;stroke-width:1.34012806">
      <g
         id="g3175">
        <g
           id="g3169">
          <path
             d="M 152.98238,215.32476 C 152.98238,230.50286 140.6781,242.80713 125.50001,242.80713 C 110.32191,242.80713 98.017626,230.50286 98.017626,215.32476 C 98.017626,200.14666 110.32191,187.84238 125.50001,187.84238 C 140.6781,187.84238 152.98238,200.14666 152.98238,215.32476 L 152.98238,215.32476 z"
             id="path3150" />
          <path
             d="M 125.5,213.29334 C 125.5,213.29334 107.36094,194.29915 107.36094,194.29915 C 113.91721,186.61263 120.00611,193.18694 125.5,162.75922 C 130.99389,193.18694 137.08279,186.61263 143.63906,194.29915 C 143.63906,194.29915 125.5,213.29334 125.5,213.29334 z"
             id="path2392"
             style="stroke:none" />
        </g>
        <use
           transform="matrix(1,0,0,-1,0,276.95439)"
           id="use3173"
           x="0"
           y="0"
           width="251"
           height="303.20468"
           xlink:href="#g3169" />
      </g>
      <use
         transform="matrix(0.7071068,-0.7071068,0.7071068,0.7071068,-61.160064,129.30093)"
         id="use3183"
         x="0"
         y="0"
         width="251"
         height="303.20468"
         xlink:href="#g3175" />
      <use
         transform="matrix(0,-1,1,0,-12.97719,263.9772)"
         id="use3185"
         x="0"
         y="0"
         width="251"
         height="303.20468"
         xlink:href="#g3175" />
      <use
         transform="matrix(-0.7071068,-0.7071068,0.7071068,-0.7071068,116.32374,325.13726)"
         id="use3187"
         x="0"
         y="0"
         width="251"
         height="303.20468"
         xlink:href="#g3175" />
    </g>
  </g>
</svg>
