<?xml version="1.0" encoding="UTF-8" standalone="no"?>
<!-- Created with Inkscape (http://www.inkscape.org/) -->

<svg
   xmlns:dc="http://purl.org/dc/elements/1.1/"
   xmlns:cc="http://creativecommons.org/ns#"
   xmlns:rdf="http://www.w3.org/1999/02/22-rdf-syntax-ns#"
   xmlns:svg="http://www.w3.org/2000/svg"
   xmlns="http://www.w3.org/2000/svg"
   version="1.0"
   width="251"
   height="304.20001"
   id="svg4166">
  <defs
     id="defs4168" />
  <metadata
     id="metadata1880">
    <rdf:RDF>
      <cc:Work
         rdf:about="">
        <dc:title></dc:title>
        <dc:date>2007-11-06</dc:date>
        <dc:creator>
          <cc:Agent>
            <dc:title>Lokal_Profil</dc:title>
          </cc:Agent>
        </dc:creator>
        <cc:license
           rdf:resource="http://creativecommons.org/licenses/by-sa/2.5/" />
        <dc:rights>
          <cc:Agent>
            <dc:title>cc-by-sa-2.5</dc:title>
          </cc:Agent>
        </dc:rights>
        <dc:format>image/svg+xml</dc:format>
        <dc:type
           rdf:resource="http://purl.org/dc/dcmitype/StillImage" />
      </cc:Work>
      <cc:License
         rdf:about="http://creativecommons.org/licenses/by-sa/2.5/">
        <cc:permits
           rdf:resource="http://web.resource.org/cc/Reproduction" />
        <cc:permits
           rdf:resource="http://web.resource.org/cc/Distribution" />
        <cc:requires
           rdf:resource="http://web.resource.org/cc/Notice" />
        <cc:requires
           rdf:resource="http://web.resource.org/cc/Attribution" />
        <cc:permits
           rdf:resource="http://web.resource.org/cc/DerivativeWorks" />
        <cc:requires
           rdf:resource="http://web.resource.org/cc/ShareAlike" />
      </cc:License>
    </rdf:RDF>
  </metadata>
  <path
     d="m 249.55058,1.4395041 -124.0505,0 -124.0505509,0 0,173.4965959 C 0.68228908,268.65698 81.738969,302.75585 125.50006,302.75585 c 42.99385,0 124.81775,-34.09887 124.05052,-127.81975 l 0,-173.4965959 z"
     id="Shield"
     style="fill:#ffcd50" />
  <path
     d="M 103.08459,111.18522 C 97.636548,101.76909 90.171102,93.500827 85.594193,83.631858 83.904422,79.988287 82.632304,76.097619 82.000277,72.131325 81.045038,66.136704 81.325682,59.976791 81.760682,53.922146 c 0.330264,-4.596841 1.979486,-9.051586 2.156351,-13.656883 0.07687,-2.001524 0.120297,-4.078678 -0.479189,-5.989862 -0.664143,-2.117317 -3.563758,-4.904204 -3.354322,-5.750267 0.149883,-0.605487 0.83339,-1.353063 1.437567,-1.197971 0.605789,0.155504 6.699782,7.162335 9.344182,11.260938 1.878376,2.911329 3.124075,6.187555 4.552294,9.344185 1.534672,3.391906 4.3127,10.30256 4.3127,10.30256 0,0 2.054605,-11.901946 5.031485,-17.011205 3.18466,-5.465888 9.19077,-8.745426 13.17769,-13.656885 1.70322,-2.098171 3.38328,-4.27212 4.5523,-6.708644 0.9398,-1.958772 1.51994,-4.093444 1.91675,-6.229456 0.42403,-2.282529 -0.11143,-6.5288669 0.47919,-6.9482382 0.26048,-0.1849508 0.76462,-0.2539899 0.95838,0 0.39904,0.5230793 1.1178,3.4781722 1.43757,5.2710782 0.97121,5.445537 -0.0976,11.217834 1.43756,16.532016 1.64556,5.696475 8.14622,15.813234 8.14622,15.813234 l 3.35432,-9.823372 c 0,0 2.48656,-7.76374 3.35432,-11.740129 0.45885,-2.102601 0.38222,-3.212179 0.71878,-4.791889 0.31091,-1.459245 0.96658,-4.123955 1.19798,-4.3127 0.2314,-0.188745 1.11773,-0.387851 1.43756,0 0.31983,0.387851 -0.85328,6.542917 -0.71878,9.823373 0.10597,2.584512 0.66129,5.136627 1.19797,7.667023 0.44617,2.103632 0.84132,4.248119 1.67716,6.229456 2.12953,5.047952 8.38581,14.136071 8.38581,14.136071 0,0 1.84898,-3.309278 2.63554,-5.031482 0.99812,-2.18545 1.92422,-4.413765 2.63554,-6.708645 0.31546,-1.01776 0.57619,-2.058782 0.71878,-3.114729 0.25672,-1.901164 -0.35081,-5.460214 0.2396,-5.750267 0.5904,-0.290052 2.79483,4.515494 3.83351,6.948241 1.05137,2.462501 1.79134,5.058618 2.39594,7.667022 0.71159,3.069981 1.0669,6.214686 1.43757,9.344183 0.22623,1.910048 0.5232,3.827371 0.47919,5.750267 -0.0995,4.347645 -0.88252,8.662534 -1.67717,12.9381 -0.5557,2.989959 -1.19835,5.978662 -2.15634,8.864996 -1.28504,3.87168 -3.02438,7.584377 -4.79189,11.260938 -2.04369,4.25102 -4.27966,8.415657 -6.70865,12.458907 -1.77947,2.96207 -3.63452,5.89338 -5.75027,8.6254 -1.24671,1.60986 -2.43584,3.34178 -4.0731,4.5523 -1.83894,1.35962 -6.22946,2.87513 -6.22946,2.87513 0,0 -5.66709,2.22974 -8.98479,2.75534 -1.2621,0.19994 -4.4325,0.35939 -4.4325,0.35939 l -9.46398,-0.83858 -4.1929,-1.67716 c 0,0 -3.86608,-1.54243 -5.27108,-2.99493 -2.50854,-2.59337 -3.22455,-6.46076 -5.03148,-9.58378 z"
     id="path3947"
     style="fill:#d40000;fill-opacity:1;stroke:none" />
  <g
     id="Ved"
     style="fill:#000000;stroke:#000000;stroke-width:0.19750838px">
    <path
       d="M 189.099,228.34691 138.30497,102.55982 148.60753,93.934421 202.75589,228.10732 z"
       id="path3949" />
    <path
       d="M 53.505062,227.01755 105.00134,94.174014 116.26228,103.75779 68.343393,230.02406 z"
       id="path3951" />
    <path
       d="m 171.6086,228.10732 -45.76254,-119.79723 8.6254,-8.14622 49.83565,127.94345 z"
       id="path3957" />
    <path
       d="m 153.15983,228.10732 -37.61633,-104.2236 8.6254,-8.14621 43.3666,112.36981 z"
       id="path3959" />
    <path
       d="m 117.69985,203.18948 10.30256,-33.06403 13.41729,33.30363 z"
       id="path3961" />
    <path
       d="m 92.542431,228.58649 39.293489,-112.13019 6.70865,14.13607 -34.02242,98.23372 z"
       id="path3963" />
    <path
       d="m 72.176904,229.78448 47.918886,-129.14142 10.78175,8.6254 -43.606185,120.99519 z"
       id="path3965" />
  </g>
  <g
     id="Treberg"
     style="fill:#003d8f;stroke:#000000;stroke-width:2.07679868">
    <path
       d="m 38.34375,218.875 c -11.326932,0 -21.075717,5.08983 -25.5,12.375 7.682928,16.66178 18.657413,30.01047 31.15625,40.46875 12.311736,-5.29621 22.375,-21.9635 22.375,-31.6875 0,-11.66998 -12.54541,-21.15625 -28.03125,-21.15625 z"
       id="use3335"
       style="stroke:none" />
    <path
       d="m 216.84375,219.21875 c -15.35305,0 -27.8125,9.74776 -27.8125,21.78125 0,8.05608 9.64319,21.02873 20.40625,28.40625 12.14548,-10.72536 22.72877,-24.29435 29.96875,-41.09375 -5.04625,-5.49794 -13.2615,-9.09375 -22.5625,-9.09375 z"
       id="path3955"
       style="stroke:none" />
    <path
       d="m 765.14032,647.48975 a 349.97449,288.21429 0 1 1 -699.948975,0 349.97449,288.21429 0 1 1 699.948975,0 z"
       transform="matrix(0.22317643,0,0,0.17871973,34.719224,132.31255)"
       id="path3967" />
    <path
       d="M 14.3125,234.34375 C 38.816971,283.53764 92.659597,302.75 125.5,302.75 c 32.26453,0 86.37813,-19.21269 111.0625,-68.40625 l -222.25,0 z"
       id="path3969"
       style="stroke:none" />
  </g>
  <path
     d="m 249.55062,1.4395041 -124.0505,0 -124.050551,0 0,173.4965959 c -0.76723996,93.72088 80.28944,127.81975 124.050531,127.81975 42.99385,0 124.81775,-34.09887 124.05052,-127.81975 l 0,-173.4965959 z"
     id="Frame"
     style="fill:none;stroke:#000000;stroke-width:1.88832211;stroke-linecap:round" />
</svg>
