<?xml version="1.0" encoding="UTF-8" standalone="no"?>
<!-- Created with Inkscape (http://www.inkscape.org/) -->
<svg
   xmlns:dc="http://purl.org/dc/elements/1.1/"
   xmlns:cc="http://web.resource.org/cc/"
   xmlns:rdf="http://www.w3.org/1999/02/22-rdf-syntax-ns#"
   xmlns:svg="http://www.w3.org/2000/svg"
   xmlns="http://www.w3.org/2000/svg"
   version="1.0"
   width="251"
   height="304.20001"
   id="svg4166">
  <defs
     id="defs4168" />
  <metadata
     id="metadata1880"><rdf:RDF><cc:Work
         rdf:about=""><dc:title>Katrineholm kommunvapen</dc:title><dc:date>03-08-2007</dc:date><dc:creator><cc:Agent><dc:title>Lokal_Profil</dc:title></cc:Agent></dc:creator><cc:license
         rdf:resource="http://creativecommons.org/licenses/by-sa/2.5/" /><dc:rights><cc:Agent><dc:title>cc-by-sa-2.5</dc:title></cc:Agent></dc:rights><dc:format>image/svg+xml</dc:format><dc:type
         rdf:resource="http://purl.org/dc/dcmitype/StillImage" /></cc:Work><cc:License
         rdf:about="http://creativecommons.org/licenses/by-sa/2.5/"><cc:permits
         rdf:resource="http://web.resource.org/cc/Reproduction" /><cc:permits
         rdf:resource="http://web.resource.org/cc/Distribution" /><cc:requires
         rdf:resource="http://web.resource.org/cc/Notice" /><cc:requires
         rdf:resource="http://web.resource.org/cc/Attribution" /><cc:permits
         rdf:resource="http://web.resource.org/cc/DerivativeWorks" /><cc:requires
         rdf:resource="http://web.resource.org/cc/ShareAlike" /></cc:License></rdf:RDF>
  </metadata>
  <path
     d="M 249.55058,1.4395041 L 125.50008,1.4395041 L 1.4495291,1.4395041 L 1.4495291,174.9361 C 0.68228908,268.65698 81.738969,302.75585 125.50006,302.75585 C 168.49391,302.75585 250.31781,268.65698 249.55058,174.9361 L 249.55058,1.4395041 z "
     style="color:#000000;fill:#d40000;fill-opacity:1;fill-rule:nonzero;stroke:none;stroke-width:1.88832211;stroke-linecap:round;stroke-linejoin:bevel;marker:none;marker-start:none;marker-mid:none;marker-end:none;stroke-miterlimit:4;stroke-dashoffset:0;stroke-opacity:1;visibility:visible;display:block"
     id="Shield" />
  <g
     transform="matrix(0.334537,0,0,0.334537,109.4986,0.539283)"
     id="Hammare">
    <path
       d="M 243.47842,69.433125 L 282.00541,69.433125 C 282.00541,72.921125 282.00541,78.769125 282.00541,82.261121 C 275.24042,83.776121 273.09942,79.714125 270.03342,76.761125 C 268.47442,75.538125 266.30242,75.538125 264.04842,75.714125 C 257.10742,76.323125 250.16642,76.933125 243.22442,77.542025 C 243.31042,74.839125 243.39642,72.136125 243.48242,69.429125 L 243.47842,69.433125 z M 242.54442,134.60912 L 239.18942,385.01912 C 240.94342,424.80012 290.17741,418.11212 287.92741,385.01912 L 283.13041,128.81212 C 271.75542,131.26912 274.46242,136.59712 272.25242,141.43312 C 271.01742,146.04612 265.08042,145.71812 262.42742,143.08112 C 257.61542,139.34312 252.51742,135.41312 242.54842,134.60912 L 242.54442,134.60912 z "
       style="fill:#ffcd50;fill-opacity:1;fill-rule:evenodd;stroke:none"
       id="Skaft" />
    <path
       d="M 156.82642,75.284125 C 174.11142,86.730121 194.36142,92.636121 218.19342,91.859121 C 222.92456,93.179795 220.80614,86.654643 225.79142,84.620121 C 237.65842,81.632121 250.37342,79.495125 264.31842,78.601125 C 269.59542,77.519125 271.52542,83.109121 276.29142,84.620121 C 279.33042,85.929121 282.36541,87.237121 285.40041,88.546121 C 322.04441,92.636121 357.92741,101.62012 391.09541,128.07712 C 392.91641,129.64812 393.69341,131.91712 393.43541,134.88212 L 393.44341,134.87812 C 359.55241,128.29212 326.31841,124.10512 294.51341,125.19412 C 280.49842,124.54212 270.60342,127.59312 269.78342,138.80812 C 269.79142,142.13212 266.14242,143.00712 263.01742,139.85512 C 247.33442,129.10112 234.53342,128.71012 223.70942,135.40512 C 217.45545,136.99973 219.38901,131.36678 215.91642,128.53412 C 194.75942,128.12412 174.53742,133.11612 155.24842,143.51912 C 146.36542,125.71012 144.20142,104.37802 156.82242,75.280125"
       style="fill:#ffcd50;fill-opacity:1;fill-rule:evenodd;stroke:none"
       id="Huvud" />
  </g>
  <g
     transform="matrix(0.582324,0,0,0.582411,67.3753,197.029)"
     style="fill:#ffcd50;fill-opacity:1;stroke:#d40000;stroke-width:2.4732132;stroke-miterlimit:4;stroke-dasharray:none;stroke-opacity:1;display:inline"
     id="Rose">
    <g
       transform="matrix(0.202004,0,0,0.202004,3.621935,3.232137)"
       style="fill:#ffcd50;fill-opacity:1;stroke:#d40000;stroke-width:12.24338722;stroke-miterlimit:4;stroke-dasharray:none;stroke-opacity:1"
       id="g2120">
      <path
         d="M 958.88576,534.1952 C 918.34503,512.64668 854.11258,466.46773 815.85202,413.6085 L 640.73197,418.82365 L 622.9093,473.19325 L 784.13742,555.90986 C 863.50331,539.78935 912.55641,525.49956 958.88576,534.1952 z "
         style="fill:#ffcd50;fill-opacity:1;fill-rule:evenodd;stroke:#d40000;stroke-width:12.24338722;stroke-linecap:butt;stroke-linejoin:miter;stroke-miterlimit:4;stroke-dasharray:none;stroke-opacity:1"
         id="path2122" />
      <path
         d="M 477.11695,861.46416 C 485.73574,816.36864 510.89231,741.36564 550.0993,689.20452 L 493.41445,523.43041 L 436.20651,522.45421 L 404.77784,700.91647 C 443.61161,771.98513 471.74678,814.63272 477.11695,861.46416 z "
         style="fill:#ffcd50;fill-opacity:1;fill-rule:evenodd;stroke:#d40000;stroke-width:12.24338722;stroke-linecap:butt;stroke-linejoin:miter;stroke-miterlimit:4;stroke-dasharray:none;stroke-opacity:1"
         id="path2124" />
      <path
         d="M -6.4972249,543.54344 C 39.250725,539.66852 118.26022,543.64375 179.06884,567.314 L 323.38601,467.9823 L 308.88245,412.63478 L 128.56162,430.54955 C 70.614834,487.12681 37.145806,525.7303 -6.4972249,543.54344 z "
         style="fill:#ffcd50;fill-opacity:1;fill-rule:evenodd;stroke:#d40000;stroke-width:12.24338722;stroke-linecap:butt;stroke-linejoin:miter;stroke-miterlimit:4;stroke-dasharray:none;stroke-opacity:1"
         id="path2126" />
      <path
         d="M 783.0214,-3.3986519 C 745.20742,22.639648 674.61359,58.344157 610.06725,67.922193 L 533.94945,225.72052 L 573.97683,266.60463 L 721.71593,161.67754 C 744.00586,83.818848 753.94344,33.702483 783.0214,-3.3986519 z "
         style="fill:#ffcd50;fill-opacity:1;fill-rule:evenodd;stroke:#d40000;stroke-width:12.24338722;stroke-linecap:butt;stroke-linejoin:miter;stroke-miterlimit:4;stroke-dasharray:none;stroke-opacity:1"
         id="path2128" />
      <path
         d="M 173.93747,1.1991465 C 194.80056,42.096837 220.95473,116.75781 221.99914,182.00257 L 368.4728,278.12591 L 414.24582,243.79615 L 329.56574,83.590581 C 255.29577,51.298365 206.91199,34.884499 173.93747,1.1991465 z "
         style="fill:#ffcd50;fill-opacity:1;fill-rule:evenodd;stroke:#d40000;stroke-width:12.24338722;stroke-linecap:butt;stroke-linejoin:miter;stroke-miterlimit:4;stroke-dasharray:none;stroke-opacity:1"
         id="path2130" />
    </g>
    <g
       transform="matrix(0.202004,0,0,0.202004,3.621935,3.232137)"
       style="fill:#ffcd50;fill-opacity:1;stroke:#d40000;stroke-width:12.24338722;stroke-miterlimit:4;stroke-dasharray:none;stroke-opacity:1"
       id="g2132">
      <path
         d="M 375.28848,14.554492 C 342.60293,14.256859 315.9355,29.037092 300.10098,70.866992 C 293.11244,107.63816 290.15926,142.4047 306.85098,167.33574 C 367.46669,264.19954 399.45476,299.40382 439.19473,351.30449 C 449.86602,295.00523 462.19673,248.64352 466.69473,155.30449 C 471.19272,248.64371 483.52343,295.00518 494.19473,351.30449 C 539.16262,290.40302 584.87863,229.87561 626.56973,167.33574 C 643.26142,142.4047 640.27702,107.63816 633.28848,70.866992 C 613.79981,19.384038 577.90903,8.8795886 534.56973,17.023242 C 510.874,23.402867 493.71837,33.478106 467.28848,32.741992 L 467.23513,32.745727 L 466.14138,32.745727 L 466.13223,32.741992 C 439.70234,33.478106 422.5155,23.402867 398.81973,17.023242 C 390.69361,15.496307 382.8313,14.623176 375.28848,14.554492 z "
         style="fill:#ffcd50;fill-opacity:1;fill-rule:evenodd;stroke:#d40000;stroke-width:12.24338722;stroke-linecap:butt;stroke-linejoin:miter;stroke-miterlimit:4;stroke-dasharray:none;stroke-opacity:1"
         id="path2134" />
      <path
         d="M 466.69473,155.30449 C 462.19673,248.64352 449.86602,295.00523 439.19473,351.30449 C 439.03915,351.1013 438.88132,350.91342 438.72598,350.71074 L 438.78848,351.89824 L 493.75723,351.89824 L 493.88223,349.67949 C 483.28343,294.11178 471.1491,247.73847 466.69473,155.30449 z "
         style="fill:#ffcd50;fill-opacity:1;fill-rule:evenodd;stroke:#d40000;stroke-width:12.24338722;stroke-linecap:butt;stroke-linejoin:miter;stroke-miterlimit:4;stroke-dasharray:none;stroke-opacity:1"
         id="path2136" />
      <path
         d="M 82.133441,367.21177 C 72.200069,398.3528 78.449194,428.19499 113.74044,455.67231 C 146.8098,473.20451 179.15514,486.2894 207.90261,477.70138 C 318.34376,448.38194 361.42223,428.212 422.74141,405.56453 C 372.10143,378.74888 331.44598,353.2814 243.59454,321.42952 C 334.10184,344.68638 382.03728,346.59143 438.9778,353.01566 C 394.0653,292.07327 349.73104,230.52652 302.28583,172.23122 C 283.39337,148.92359 249.29522,141.51166 212.09972,137.33365 C 157.15797,140.75566 136.52645,171.94594 131.51311,215.75784 C 130.61327,240.28086 135.17504,259.64621 126.66944,284.68092 L 126.65726,284.733 L 126.33438,285.778 L 126.32811,285.78564 C 119.22913,311.25497 104.52923,324.70158 91.438758,345.45801 C 87.580985,352.77122 84.425757,360.02538 82.133441,367.21177 z "
         style="fill:#ffcd50;fill-opacity:1;fill-rule:evenodd;stroke:#d40000;stroke-width:12.24338722;stroke-linecap:butt;stroke-linejoin:miter;stroke-miterlimit:4;stroke-dasharray:none;stroke-opacity:1"
         id="path2138" />
      <path
         d="M 243.59454,321.42952 C 331.44598,353.2814 372.10143,378.74888 422.74141,405.56453 C 422.50135,405.65319 422.27525,405.74852 422.03575,405.83711 L 423.18877,406.12795 L 439.41593,353.60894 L 437.33297,352.83452 C 381.11285,346.557 333.22407,344.46082 243.59454,321.42952 z "
         style="fill:#ffcd50;fill-opacity:1;fill-rule:evenodd;stroke:#d40000;stroke-width:12.24338722;stroke-linecap:butt;stroke-linejoin:miter;stroke-miterlimit:4;stroke-dasharray:none;stroke-opacity:1"
         id="path2140" />
      <path
         d="M 768.51025,631.01874 C 794.60301,611.33117 806.7342,583.35905 793.7895,540.54661 C 776.91573,507.13654 758.06487,477.77539 729.63584,468.18587 C 622.53955,428.34584 575.72233,419.93615 512.58252,403.01564 C 538.44017,454.15135 556.92488,498.42061 610.254,575.15651 C 549.79323,503.90397 511.75842,474.6673 468.98149,436.54094 C 470.45593,512.23056 471.10929,588.07967 476.18008,663.07075 C 478.14455,693.00917 501.7024,718.75106 529.65644,743.64139 C 576.48749,772.57495 611.34276,759.02505 640.73584,726.15169 C 655.63183,706.65051 663.09052,688.20618 684.49141,672.67936 L 684.53142,672.64388 L 685.39849,671.97718 L 685.40802,671.97457 C 705.91151,655.28065 725.67768,652.7915 748.35111,643.40514 C 755.72381,639.66233 762.48884,635.56202 768.51025,631.01874 z "
         style="fill:#ffcd50;fill-opacity:1;fill-rule:evenodd;stroke:#d40000;stroke-width:12.24338722;stroke-linecap:butt;stroke-linejoin:miter;stroke-miterlimit:4;stroke-dasharray:none;stroke-opacity:1"
         id="path2142" />
      <path
         d="M 610.254,575.15651 C 556.92488,498.42061 538.44017,454.15135 512.58252,403.01564 C 512.82971,403.08188 513.06935,403.13462 513.31604,403.20061 L 512.54266,402.29732 L 468.9664,435.80357 L 470.21975,437.63867 C 512.49326,475.22924 550.3796,504.59501 610.254,575.15651 z "
         style="fill:#ffcd50;fill-opacity:1;fill-rule:evenodd;stroke:#d40000;stroke-width:12.24338722;stroke-linecap:butt;stroke-linejoin:miter;stroke-miterlimit:4;stroke-dasharray:none;stroke-opacity:1"
         id="path2144" />
      <path
         d="M 333.06752,750.21685 C 360.0292,768.69666 390.40686,771.30539 426.88261,745.42112 C 453.19466,718.8009 475.03929,691.59341 475.09296,661.59061 C 478.8173,547.38463 471.90627,500.32277 467.87512,435.07938 C 427.6133,475.85281 391.51763,507.45281 335.71772,582.41138 C 384.05143,502.43448 399.67897,457.07794 422.22732,404.39906 C 350.93347,429.86068 279.22737,454.59452 209.73919,483.24381 C 181.97862,494.62455 165.06194,525.14416 150.35031,559.56114 C 137.8067,613.16118 161.73497,641.90019 202.24759,659.31698 C 225.4728,667.2402 245.3315,668.44797 266.85663,683.80215 L 266.90299,683.82881 L 267.81076,684.43893 L 267.81627,684.44713 C 290.16264,698.57941 298.80682,716.52869 314.91466,735.04159 C 320.80725,740.84183 326.8456,745.95228 333.06752,750.21685 z "
         style="fill:#ffcd50;fill-opacity:1;fill-rule:evenodd;stroke:#d40000;stroke-width:12.24338722;stroke-linecap:butt;stroke-linejoin:miter;stroke-miterlimit:4;stroke-dasharray:none;stroke-opacity:1"
         id="path2146" />
      <path
         d="M 335.71772,582.41138 C 391.51763,507.45281 427.6133,475.85281 467.87512,435.07938 C 467.89091,435.33481 467.91709,435.57878 467.93296,435.83365 L 468.5435,434.81321 L 422.92164,404.15032 L 421.58022,405.92207 C 399.3798,457.95331 383.58266,503.21012 335.71772,582.41138 z "
         style="fill:#ffcd50;fill-opacity:1;fill-rule:evenodd;stroke:#d40000;stroke-width:12.24338722;stroke-linecap:butt;stroke-linejoin:miter;stroke-miterlimit:4;stroke-dasharray:none;stroke-opacity:1"
         id="path2148" />
      <path
         d="M 795.29394,182.52692 C 785.11301,151.46601 762.57405,130.93309 717.87649,129.32186 C 680.80313,134.47181 646.92067,142.80307 628.64465,166.5971 C 556.2814,255.03009 533.1692,296.60412 496.72063,350.86679 C 553.47339,342.95471 601.3427,339.79583 691.21008,314.17857 C 604.22221,348.31851 564.24744,374.84105 514.32657,402.97269 C 586.41799,426.07932 658.3945,450.01445 730.98918,469.49225 C 759.95149,477.325 791.93329,463.36859 824.53247,444.97704 C 867.06791,410.03376 865.53069,372.66899 843.9423,334.21705 C 830.31318,313.81036 815.27644,300.78263 807.51341,275.50784 L 807.49279,275.45849 L 807.14267,274.4223 L 807.14328,274.41243 C 797.98548,249.60892 802.02892,230.10129 800.48764,205.61022 C 799.33299,197.42291 797.64339,189.69482 795.29394,182.52692 z "
         style="fill:#ffcd50;fill-opacity:1;fill-rule:evenodd;stroke:#d40000;stroke-width:12.24338722;stroke-linecap:butt;stroke-linejoin:miter;stroke-miterlimit:4;stroke-dasharray:none;stroke-opacity:1"
         id="path2150" />
      <g
         transform="matrix(0.320108,0.94738,-0.94738,0.320108,688.9379,-180.564)"
         style="fill:#ffcd50;fill-opacity:1;stroke:#d40000;stroke-width:12.24339962;stroke-miterlimit:4;stroke-dasharray:none;stroke-opacity:1"
         id="g2152">
        <path
           d="M 469.4375,156.21875 C 464.9395,249.55778 452.60879,295.91949 441.9375,352.21875 C 441.78192,352.01556 441.62409,351.82768 441.46875,351.625 L 441.53125,352.8125 L 496.5,352.8125 L 496.625,350.59375 C 486.0262,295.02604 473.89187,248.65273 469.4375,156.21875 z "
           style="fill:#ffcd50;fill-opacity:1;fill-rule:evenodd;stroke:#d40000;stroke-width:12.24339962;stroke-linecap:butt;stroke-linejoin:miter;stroke-miterlimit:4;stroke-dasharray:none;stroke-opacity:1"
           id="path2154" />
      </g>
    </g>
    <path
       d="M 614.68782,409.418 C 614.70792,480.67366 555.44254,538.44817 482.32804,538.44817 C 409.21353,538.44817 349.94815,480.67366 349.96825,409.418 C 349.94815,338.16234 409.21353,280.38783 482.32804,280.38783 C 555.44254,280.38783 614.70792,338.16234 614.68782,409.418 L 614.68782,409.418 z "
       transform="matrix(0.191604,0,0,0.191604,5.808093,3.468148)"
       style="fill:#ffcd50;fill-opacity:1;fill-rule:evenodd;stroke:#d40000;stroke-width:12.90794182;stroke-miterlimit:4;stroke-dasharray:none;stroke-opacity:1"
       id="path2156" />
  </g>
  <g
     transform="matrix(0.336328,-8.807027e-3,8.807027e-3,0.336328,0.224957,22.7602)"
     style="fill:#ffcd50;fill-opacity:1;stroke:#ffcd50;stroke-opacity:1"
     id="Caduceus">
    <path
       d="M 129.85295,316.02787 C 129.05762,309.31253 130.05024,304.93174 133.11645,301.62498 C 136.12715,298.37807 135.72095,296.27376 131.89828,295.31434 C 129.67225,294.75564 128.75059,295.15608 126.7883,297.53454 C 124.66732,300.10533 124.44288,301.19559 124.82103,307.0913 C 125.11318,311.64616 125.94902,314.8807 127.46976,317.3413 C 128.69179,319.31859 129.85874,320.93638 130.06296,320.93638 C 130.26719,320.93638 130.17269,318.72755 129.85295,316.02787 z M 159.68194,284.18638 C 164.87618,279.50315 167.4846,273.90366 167.4846,267.43638 C 167.4846,257.85048 161.57502,249.69499 149.00697,241.93638 C 141.7529,237.45824 134.77058,231.30516 132.95174,227.78791 C 130.70982,223.4525 131.14787,216.77639 133.94469,212.65505 C 136.73396,208.54484 136.80883,208.6618 127.76615,203.00435 C 121.67793,199.19533 121.25155,199.35461 117.09553,206.9906 C 113.11044,214.31252 112.62216,221.89758 115.54979,231.00254 C 117.46774,236.96737 118.84473,239.16092 123.96629,244.4101 C 127.68066,248.21702 132.56948,251.93786 136.39301,253.86798 C 148.71772,260.08947 154.67586,268.01018 151.1169,273.44184 C 150.21897,274.81225 149.52852,277.96781 149.52852,280.7012 C 149.52852,288.91864 153.0809,290.138 159.68194,284.18638 z M 170.49573,187.46045 C 178.84401,181.33225 182.81117,173.20121 182.94899,161.93638 C 183.00487,157.36941 182.44727,154.26441 181.07401,151.49552 C 179.19407,147.70501 170.67887,137.93638 169.25468,137.93638 C 168.87466,137.93638 165.67589,136.16881 162.14628,134.00846 C 158.54776,131.80592 150.52349,128.4277 143.87866,126.31779 C 130.49362,122.06768 121.62508,117.20246 117.17986,111.67103 C 114.76222,108.66262 114.06689,106.70258 113.72103,101.92104 C 113.26478,95.613398 114.03344,94.626848 116.91951,97.815918 C 120.93762,102.2559 130.98375,100.987 135.30474,95.493738 C 137.57831,92.603368 137.37039,90.503618 134.7012,89.398448 C 127.40167,86.376088 118.69969,87.346488 112.04513,91.924948 C 103.61869,97.722488 101.21617,107.47856 105.93923,116.71962 C 110.39221,125.43226 116.73282,130.15965 138.33637,140.87407 C 156.5219,149.89329 159.78858,152.00306 162.59236,156.53967 C 166.44505,162.77346 164.02343,172.43473 157.0081,178.81853 C 153.10075,182.37414 152.73366,183.93154 155.27852,186.15623 C 157.62283,188.2056 162.70218,190.84674 164.39454,190.89634 C 165.14586,190.91836 167.89139,189.37221 170.49573,187.46045 z M 121.25347,92.327998 C 120.01479,91.089318 121.62206,89.936378 124.58754,89.936378 C 126.20508,89.936378 127.52852,90.386378 127.52852,90.936378 C 127.52852,91.486378 126.89032,91.936378 126.11031,91.936378 C 125.33029,91.936378 124.06929,92.175368 123.30807,92.467478 C 122.54686,92.759578 121.62229,92.696818 121.25347,92.327998 z "
       style="fill:#ffcd50;fill-opacity:1;stroke:#ffcd50;stroke-opacity:1"
       id="Left-snake" />
    <path
       d="M 158.6354,317.26345 C 165.05928,306.86939 162.60789,298.89084 149.932,288.93638 C 148.88146,288.11138 146.18848,285.99751 143.9476,284.23888 C 141.70673,282.48026 138.61596,279.22705 137.07922,277.00954 C 134.61344,273.45142 134.3352,272.28572 134.71115,267.08833 L 135.13715,261.19896 L 130.97798,258.56767 C 128.69043,257.12046 126.09005,255.93638 125.19934,255.93638 C 120.93809,255.93638 118.77891,268.81321 121.8198,276.09109 C 124.73654,283.07183 133.91944,291.05199 143.52852,294.9565 C 148.55065,296.99717 154.30511,303.22857 155.10503,307.49251 C 155.76709,311.02158 155.3163,316.08105 153.90722,320.93638 C 153.25672,323.17783 153.3535,323.29548 154.84302,322.07396 C 155.75676,321.32463 157.46333,319.1599 158.6354,317.26345 z M 165.35931,244.18548 C 172.38277,239.91426 176.68479,231.99918 177.32194,222.17601 C 177.75005,215.57579 177.51199,214.3451 174.70377,208.64079 C 173.00476,205.18962 170.58278,201.43437 169.32159,200.29579 C 166.02256,197.31748 151.64575,187.53976 147.52852,185.47423 C 145.60352,184.5085 141.21129,181.85492 137.76802,179.57737 C 132.38819,176.0189 131.22765,174.69258 129.51802,170.14887 C 126.26769,161.51042 126.94483,155.54969 131.78,150.23726 C 134.5429,147.20163 133.59329,145.62552 126.99804,142.30043 L 121.31726,139.43638 L 117.80871,143.43638 C 112.35939,149.64899 110.52852,154.85224 110.52852,164.12632 C 110.52852,171.00569 110.96315,173.06112 113.57502,178.53382 C 117.13712,185.99752 123.89768,193.01664 132.17948,197.84982 C 144.72016,205.16845 154.8523,212.42008 156.64505,215.35997 C 157.67685,217.052 158.52273,220.14181 158.52478,222.22622 C 158.52871,226.21365 155.76146,232.66824 153.10161,234.87572 C 150.45209,237.07463 151.3286,239.66402 155.77852,242.78389 C 160.85413,246.34243 161.62665,246.45544 165.35931,244.18548 z M 172.84426,132.80419 C 182.348,127.87801 190.4777,116.23877 191.2615,106.43638 C 191.70753,100.85829 191.51804,100.15512 188.56664,96.436378 C 183.66861,90.264908 178.42513,87.586298 171.14755,87.537918 C 164.51576,87.493838 159.24875,89.435068 158.73293,92.113498 C 158.5569,93.027538 159.722,95.240558 161.32205,97.031328 C 163.85782,99.869338 164.99447,100.34247 170.17769,100.71739 C 175.46314,101.09971 176.46836,100.85789 179.22069,98.541948 C 180.92379,97.108878 182.59509,95.936378 182.93469,95.936378 C 183.78093,95.936378 182.48953,103.9695 181.24672,106.43638 C 177.65024,113.57513 168.47249,121.19268 160.22362,123.88558 C 155.11783,125.55241 155.72573,127.43682 162.52852,131.03048 C 168.64224,134.26013 169.6884,134.44 172.84426,132.80419 z M 170.27852,92.247048 C 167.45798,91.509968 168.26905,89.936378 171.4695,89.936378 C 174.79629,89.936378 176.32415,91.417088 173.94099,92.331588 C 173.07416,92.664228 172.28925,92.884178 172.19673,92.820378 C 172.10422,92.756578 171.24102,92.498578 170.27852,92.247048 z "
       style="fill:#ffcd50;fill-opacity:1;stroke:#ffcd50;stroke-opacity:1"
       id="Right-snake" />
    <path
       d="M 143.52852,324.37736 C 143.52852,309.77414 143.17189,301.93638 142.50741,301.93638 C 141.8383,301.93638 141.53285,309.86099 141.62131,324.925 C 141.69803,337.98845 142.13888,347.67719 142.64242,347.36599 C 143.12977,347.06478 143.52852,336.7199 143.52852,324.37736 z M 145.63921,277.68638 C 145.85395,269.44142 144.8895,265.93638 142.40608,265.93638 C 141.05442,265.93638 141.34676,279.35462 142.72852,280.73638 C 144.80865,282.81651 145.52515,282.06572 145.63921,277.68638 z M 147.53865,228.93638 C 147.84528,215.4173 147.78791,215.12187 144.52852,213.43638 L 141.52852,211.88502 L 141.52852,222.37174 C 141.52852,231.8805 141.73317,233.04913 143.723,234.90294 C 144.92997,236.0274 146.24908,236.60743 146.65436,236.1919 C 147.05964,235.77636 147.45757,232.51138 147.53865,228.93638 z M 150.00024,168.76615 C 150.72157,155.72363 150.70585,155.57835 148.37858,153.78268 C 145.33042,151.43079 142.51443,150.51839 141.60207,151.58704 C 141.20325,152.05418 141.13605,158.41554 141.45273,165.7234 C 142.01063,178.59748 142.10622,179.05284 144.52852,180.37535 C 149.10922,182.87629 149.23459,182.61029 150.00024,168.76615 z M 151.67092,123.68638 C 152.08618,120.04132 152.4583,113.07559 153.50057,89.436378 C 154.13107,75.136378 154.8211,62.900108 155.03398,62.244658 C 155.24685,61.589208 155.50079,55.739208 155.59828,49.244658 L 155.77555,37.436378 L 148.92473,36.747008 C 145.15679,36.367858 141.93485,36.196718 141.76487,36.366688 C 141.5949,36.536668 141.24609,55.607148 140.98975,78.745548 C 140.62399,111.76027 140.79324,120.9898 141.7761,121.62586 C 143.41492,122.68644 148.68685,124.66515 150.27852,124.81707 C 150.96602,124.88269 151.5926,124.37388 151.67092,123.68638 z M 158.64297,28.968348 C 165.78471,20.413688 160.42803,8.936378 149.29366,8.936378 C 144.98036,8.936378 143.88215,9.382738 140.92852,12.336378 C 138.01527,15.249628 137.52852,16.417088 137.52852,20.491218 C 137.52852,24.768098 137.94665,25.643808 141.68824,29.203098 C 145.63674,32.959218 146.10454,33.135488 150.90108,32.674598 C 155.06222,32.274768 156.42883,31.620538 158.64297,28.968348 z "
       style="fill:#ffcd50;fill-opacity:1;stroke:#ffcd50;stroke-opacity:1"
       id="Staff" />
    <path
       d="M 220.94673,79.329388 C 223.34509,78.409058 222.87334,77.312608 219.06684,74.960058 C 217.16291,73.783368 213.52836,69.696668 210.99004,65.878498 C 206.86891,59.679428 206.02993,58.936378 203.15172,58.936378 C 196.1361,58.936378 195.79232,63.165918 202.24704,70.066538 C 207.15455,75.313068 210.92834,77.759678 216.02852,79.001308 C 217.67852,79.402998 219.10422,79.777718 219.19673,79.834018 C 219.28925,79.890318 220.07675,79.663228 220.94673,79.329388 z M 135.15903,75.384568 C 137.87471,74.841158 138.49797,72.392788 138.51487,62.201708 L 138.52852,53.967038 L 132.53837,54.593138 L 126.54822,55.219228 L 122.03837,50.709388 C 116.43455,45.105568 116.17071,42.218658 120.90051,38.259178 C 125.45191,34.449058 127.52852,30.017458 127.52852,24.114648 C 127.52852,19.834658 127.04001,18.651428 123.77852,15.031718 C 118.81151,9.519158 112.3027,7.125628 102.92717,7.363908 C 96.79845,7.519668 94.67552,8.116538 87.42718,11.721788 C 82.80791,14.019368 76.49552,17.595068 73.39963,19.667788 C 70.30374,21.740518 64.00374,25.957038 59.39963,29.037848 C 41.15753,41.244418 31.69701,46.526118 14.04048,54.361328 L 10.05244,56.131048 L 12.8863,57.615858 C 18.07036,60.332058 25.81555,60.462158 32.76588,57.949778 C 44.50394,53.706758 75.90107,33.967098 78.84547,28.979118 C 81.25668,24.894408 82.52852,25.949748 82.52852,32.035228 C 82.52852,43.686748 93.1507,53.909988 105.27852,53.930798 C 107.06602,53.933868 108.52852,54.386378 108.52852,54.936378 C 108.52852,55.486378 108.01927,55.936378 107.39685,55.936378 C 105.58392,55.936378 107.04183,63.444138 109.53455,66.944848 C 112.41481,70.989798 118.64025,74.866658 123.8645,75.868748 C 127.71714,76.607738 129.40861,76.535228 135.15903,75.384568 z M 244.52852,75.959428 C 244.52852,75.422108 243.29102,74.230348 241.77852,73.311068 C 234.63877,68.971628 229.6874,65.290748 225.93702,61.534398 C 217.73315,53.317478 218.07756,53.498978 214.59434,55.556568 C 212.90814,56.552628 211.52852,58.102068 211.52852,58.999768 C 211.52852,61.569408 222.9263,71.776668 228.75079,74.423128 C 234.13778,76.870808 244.52852,77.882578 244.52852,75.959428 z M 86.59362,72.888348 C 88.55442,71.896168 92.29158,69.175438 94.8984,66.842278 C 102.61996,59.931328 102.91816,57.662908 96.26906,56.415528 C 92.62171,55.731278 92.32112,55.909988 85.77136,62.656628 C 82.0628,66.476658 77.79102,70.404098 76.27852,71.384268 C 73.10157,73.443078 72.80372,74.596418 75.27852,75.256478 C 77.82406,75.935408 82.50997,74.954698 86.59362,72.888348 z M 177.02718,74.832398 C 182.88489,73.357408 188.95572,68.003088 191.08149,62.436858 C 192.46569,58.812388 192.55267,57.670408 191.53771,56.447448 C 190.84796,55.616358 190.45123,54.921018 190.65608,54.902258 C 190.86092,54.883488 194.47291,54.770988 198.68271,54.652258 C 205.49703,54.460068 206.81375,54.091658 210.68271,51.294788 C 217.41088,46.430988 221.00343,38.015658 219.37381,30.936378 C 218.58731,27.519688 221.88709,29.763408 223.39471,33.670428 C 225.05113,37.963078 232.92616,44.950698 249.31023,56.665638 C 262.60296,66.170208 278.80026,70.100068 285.77852,65.513738 C 289.54277,63.039758 289.22849,61.462668 284.70091,60.106168 C 274.96778,57.190058 256.3007,45.805228 235.72147,30.234188 C 209.23101,10.190498 200.00588,6.436948 184.79686,9.513798 C 181.59724,10.161098 175.46223,15.850788 173.87956,19.638638 C 170.97945,26.579588 172.86206,34.709568 178.78189,40.809158 L 182.51701,44.657688 L 180.27276,47.955088 C 175.69158,54.686068 169.89394,56.807288 162.27852,54.538748 L 159.52852,53.719558 L 159.52852,63.799378 L 159.52852,73.879198 L 162.77852,74.817598 C 167.29766,76.122448 171.88499,76.127218 177.02718,74.832398 z M 260.94673,73.329388 C 262.64256,72.678638 263.15598,69.936378 261.58198,69.936378 C 259.64659,69.936378 239.75433,55.915618 232.64379,49.539738 C 225.02572,42.708758 223.17011,41.822028 222.13551,44.518168 C 220.59354,48.536458 221.63042,51.168468 226.77852,56.303958 C 238.78632,68.282348 254.1497,75.937658 260.94673,73.329388 z M 69.54346,69.464268 C 72.02667,68.198538 77.54885,64.555878 81.81495,61.369448 L 89.5715,55.575938 L 86.35384,52.256158 C 84.58413,50.430278 82.77923,48.936378 82.34294,48.936378 C 81.90665,48.936378 79.18134,51.073878 76.28668,53.686378 C 69.57362,59.745078 62.18967,65.098958 56.77852,67.831128 C 51.6887,70.401068 51.40038,71.666798 55.77852,72.221218 C 60.57133,72.828148 64.47959,72.045368 69.54346,69.464268 z M 53.02852,64.069208 C 58.40537,61.501228 80.52852,47.472828 80.52852,46.631318 C 80.52852,45.139158 77.17205,36.936378 76.56148,36.936378 C 76.133,36.936378 69.9878,41.278968 62.90548,46.586588 C 51.71187,54.975258 37.92635,62.936378 34.59406,62.936378 C 32.22162,62.936378 33.74116,64.940588 36.77852,65.817598 C 42.5297,67.478188 46.86812,67.011408 53.02852,64.069208 z "
       style="fill:#ffcd50;fill-opacity:1;stroke:#ffcd50;stroke-opacity:1"
       id="Wings" />
  </g>
  <path
     d="M 100.53125,1.4375 L 100.53125,114.40625 L 5.3125,209.59375 C 9.921165,228.44178 18.344032,244.02068 28.9375,256.6875 L 125.5,160.125 L 221.9375,256.59375 C 232.55737,243.9386 241.02179,228.37354 245.65625,209.5625 L 150.53125,114.46875 L 150.53125,1.4375 L 125.5,1.4375 L 100.53125,1.4375 z "
     style="color:#000000;fill:#ffcd50;fill-opacity:1;fill-rule:nonzero;stroke:none;stroke-width:0.7769559;stroke-linecap:round;stroke-linejoin:bevel;marker:none;marker-start:none;marker-mid:none;marker-end:none;stroke-miterlimit:4;stroke-dashoffset:0;stroke-opacity:1;visibility:visible;display:block"
     id="Gaffelkors" />
  <path
     d="M 249.55062,1.4395041 L 125.50012,1.4395041 L 1.449569,1.4395041 L 1.449569,174.9361 C 0.68232904,268.65698 81.739009,302.75585 125.5001,302.75585 C 168.49395,302.75585 250.31785,268.65698 249.55062,174.9361 L 249.55062,1.4395041 z "
     style="color:#000000;fill:none;fill-opacity:0;fill-rule:nonzero;stroke:#000000;stroke-width:1.88832211;stroke-linecap:round;stroke-linejoin:bevel;marker:none;marker-start:none;marker-mid:none;marker-end:none;stroke-miterlimit:4;stroke-dashoffset:0;stroke-opacity:1;visibility:visible;display:block"
     id="Frame" />
</svg>
