<?xml version="1.0" encoding="UTF-8" standalone="no"?>
<!-- Created with Inkscape (http://www.inkscape.org/) -->
<svg
   xmlns:dc="http://purl.org/dc/elements/1.1/"
   xmlns:cc="http://web.resource.org/cc/"
   xmlns:rdf="http://www.w3.org/1999/02/22-rdf-syntax-ns#"
   xmlns:svg="http://www.w3.org/2000/svg"
   xmlns="http://www.w3.org/2000/svg"
   version="1.0"
   width="251"
   height="304.20001"
   id="svg4166">
  <defs
     id="defs4168" />
  <metadata
     id="metadata1880"><rdf:RDF><cc:Work
         rdf:about=""><dc:title>Lindesberg kommunvapen</dc:title><dc:date>30-10-2007</dc:date><dc:creator><cc:Agent><dc:title>Lokal_Profil</dc:title></cc:Agent></dc:creator><cc:license
         rdf:resource="http://creativecommons.org/licenses/by-sa/2.5/" /><dc:rights><cc:Agent><dc:title>cc-by-sa-2.5</dc:title></cc:Agent></dc:rights><dc:format>image/svg+xml</dc:format><dc:type
         rdf:resource="http://purl.org/dc/dcmitype/StillImage" /></cc:Work><cc:License
         rdf:about="http://creativecommons.org/licenses/by-sa/2.5/"><cc:permits
         rdf:resource="http://web.resource.org/cc/Reproduction" /><cc:permits
         rdf:resource="http://web.resource.org/cc/Distribution" /><cc:requires
         rdf:resource="http://web.resource.org/cc/Notice" /><cc:requires
         rdf:resource="http://web.resource.org/cc/Attribution" /><cc:permits
         rdf:resource="http://web.resource.org/cc/DerivativeWorks" /><cc:requires
         rdf:resource="http://web.resource.org/cc/ShareAlike" /></cc:License></rdf:RDF>
  </metadata>
  <path
     d="M 249.55058,1.4395041 L 1.4495291,1.4395041 L 1.4495291,174.9361 C 0.68228908,268.65698 81.738969,302.75585 125.50006,302.75585 C 168.49391,302.75585 250.31781,268.65698 249.55058,174.9361 L 249.55058,1.4395041 z "
     style="fill:#eeeeee;stroke:none"
     id="Shield" />
  <g
     transform="matrix(0.383333,0,0,0.384218,11.32838,-26.44601)"
     style="fill:#225500;stroke:#eeeeee;stroke-width:2"
     id="Linden-tree">
    <path
       d="M 176.57935,332.24805 C 211.81397,343.35435 207.8032,304.7506 196.5945,288.33052 C 180.95998,265.4269 153.28203,253.5187 110.71962,281.24596 C 83.12719,299.22094 74.8561,327.80546 51.5,341.35656 C 79.35195,353.25111 83.67293,362.8952 127.72885,403.59954 C 141.21847,416.06289 175.5221,414.66592 191.54878,393.02843 C 213.38574,367.29393 186.6858,336.85693 176.57935,332.24805 z "
       id="path43959" />
    <path
       d="M 420.1256,340.43882 C 384.89098,351.54512 387.87554,304.7506 399.08424,288.33052 C 414.71876,265.4269 442.39671,253.5187 484.95912,281.24596 C 512.55155,299.22094 520.82264,327.80546 544.17874,341.35656 C 516.32679,353.25111 512.00581,362.8952 467.94989,403.59954 C 454.46027,416.06289 420.15664,414.66592 404.12996,393.02843 C 382.293,367.29393 410.01915,345.0477 420.1256,340.43882 z "
       id="path43957" />
    <path
       d="M 192.69268,495.33212 C 215.34784,473.25046 197.40173,446.46612 180.11742,440.56099 C 153.87557,431.59554 124.67589,436.81011 105.64847,483.90912 C 93.31329,514.44247 102.89393,542.6151 91.5,567.09607 C 121.14612,560.90585 130.20967,566.34012 189.63385,574.49703 C 207.8291,576.99459 235.15688,556.21279 235.91214,529.2969 C 239.08633,495.69568 203.61777,493.32599 192.69268,495.33212 z "
       id="path43955" />
    <path
       d="M 408.91523,495.33212 C 373.66686,484.26952 402.90055,447.60855 421.49049,440.56099 C 447.42076,430.73068 476.93202,436.81011 495.95944,483.90912 C 508.29462,514.44247 498.71398,542.6151 510.10791,567.09607 C 480.46179,560.90585 471.39824,566.34012 411.97406,574.49703 C 393.77881,576.99459 366.45103,556.21279 365.69577,529.2969 C 362.52158,495.69568 397.99014,493.32599 408.91523,495.33212 z "
       id="path42133" />
    <path
       d="M 438.21548,183.89823 C 392.8843,198.17696 371.35595,68.360865 460.45873,95.636793 C 490.87142,104.94665 514.83085,116.38836 540.89071,114.63586 C 524.33169,140.89318 524.76633,150.42664 509.9006,210.81706 C 505.34875,229.30817 476.65065,247.82398 452.38381,238.39698 C 421.2586,228.78066 432.3583,193.67824 438.21548,183.89823 z "
       id="path43026" />
    <path
       d="M 303.32333,210.36626 C 276.26469,258.80997 207.54147,204.96437 237.1407,153.39793 C 253.47063,124.94866 312.60596,104.25225 305.37945,81.493211 C 315.72411,110.99047 328.82618,113.55911 366.50313,162.0568 C 378.03923,176.90648 375.15556,211.88777 353.37524,226.46782 C 327.34792,246.6485 307.36203,221.09432 303.32333,210.36626 z "
       id="path43028" />
    <path
       d="M 161.38863,178.72245 C 221.74726,191.07148 217.20329,84.287341 135.00475,95.636793 C 103.49793,99.987055 80.632636,116.38836 54.572779,114.63586 C 71.131794,140.89318 75.286754,149.4787 85.562888,210.81706 C 92.694424,253.38527 172.7174,239.57076 161.38863,178.72245 z "
       id="path43032" />
    <path
       d="M 307.05974,87.220393 L 286.60127,298.2054 C 220.78563,201.34435 129.44463,143.1096 55.636838,116.03584 C 129.52705,156.37865 242.49106,243.45811 283.7901,330.72005 L 285.64606,394.86617 C 224.58688,321.89005 142.0563,308.25127 54.878016,340.82961 C 137.49007,334.30758 221.24647,334.52841 285.47101,426.78889 L 285.27756,502.0776 C 188.34996,434.6692 114.32619,513.84188 93.844582,565.24606 C 142.99265,479.25353 252.04581,480.63838 283.82122,536.22609 L 283.59374,561.65313 C 283.59374,561.65313 285.52759,593.53287 285.52759,593.53287 C 285.52759,593.53287 319.17963,591.19724 319.17963,591.19724 C 319.17963,591.19724 319.82074,558.48471 319.82074,558.48471 L 318.99681,530.98155 C 385.46028,434.78575 511.56213,567.8994 511.3136,567.91774 C 484.54735,537.56139 397.82996,421.80436 316.45335,506.53293 L 315.25579,427.94457 C 348.40424,347.83137 471.06964,333.56261 541.30797,341.32935 C 491.10009,333.99603 386.24465,308.13507 315.15013,392.55024 L 316.46324,327.97123 C 359.63704,249.71261 458.54668,172.72313 537.58336,116.00058 C 472.90372,150.32294 380.03135,204.42843 312.12181,299.75907 L 307.05974,87.220393 z "
       id="path41246" />
  </g>
  <path
     d="M 121.53125,191.125 C 105.36817,191.1933 90.005552,196.43583 77.25,204.15625 C 69.786248,209.20475 63.056002,216.34874 60.78125,221.625 C 60.192967,222.98951 59.695178,223.03497 57.5,221.8125 C 56.562212,221.29025 53.924746,220.19345 51.625,219.375 C 37.118803,214.2125 22.07848,213.44011 7.375,217.0625 C 26.755493,279.09145 89.05891,302.75 125.5,302.75 C 160.98742,302.74999 222.9151,279.50326 243.03125,218.6875 C 225.35011,213.05062 206.03106,214.03935 188.96875,221.09375 C 186.9053,222.05681 185.16659,222.7757 185.0625,222.6875 C 184.9584,222.59929 183.97611,221.08935 182.875,219.3125 C 179.35371,213.63013 176.2442,210.36978 170.0625,205.84375 C 158.37364,197.28562 145.58192,192.83303 128.53125,191.4375 C 126.19371,191.22757 123.84025,191.11525 121.53125,191.125 z "
     style="fill:#225500"
     id="Treberg" />
  <path
     d="M 249.55062,1.4395041 L 1.449569,1.4395041 L 1.449569,174.9361 C 0.68232904,268.65698 81.739009,302.75585 125.5001,302.75585 C 168.49395,302.75585 250.31785,268.65698 249.55062,174.9361 L 249.55062,1.4395041 z "
     style="fill:none;fill-opacity:0;stroke:#000000;stroke-width:1.88832211;stroke-linecap:round"
     id="Frame" />
</svg>
