<?xml version="1.0" encoding="UTF-8" standalone="no"?>
<svg xmlns="http://www.w3.org/2000/svg"
   xmlns:dc="http://purl.org/dc/elements/1.1/"
   xmlns:cc="http://creativecommons.org/ns#"
   xmlns:rdf="http://www.w3.org/1999/02/22-rdf-syntax-ns#"
   xmlns:inkscape="http://www.inkscape.org/namespaces/inkscape"
   width="708" height="837" viewBox="22.5 114 708 837"
   version="1.1">
  <defs>
    <clipPath
       clipPathUnits="userSpaceOnUse"
       id="clipPath2999">
      <path
         d="m 0,67.8 227.247,0 0,-67.8 L 0,0 0,67.8 z"
         id="path3001" />
    </clipPath>
  </defs>
  <metadata>
    <rdf:RDF>
      <cc:Work rdf:about="">
        <dc:format>image/svg+xml</dc:format>
        <dc:type rdf:resource="http://purl.org/dc/dcmitype/StillImage"/>
        <dc:title>Tjoern coat of arms</dc:title>
      </cc:Work>
    </rdf:RDF>
  </metadata>
  <g
     inkscape:label="Layer 1"
     inkscape:groupmode="layer"
     id="layer1">
    <g
       transform="matrix(13.881867,0,0,-14.260908,25.782594,948.70619)"
       id="g2995">
      <g
         id="g2997"
         clip-path="url(#clipPath2999)">
        <g
           id="g3003"
           transform="translate(49.21,23.81)">
          <path fill="#ffffff" d="M0.75,34V-0.5C0.75,-12.6 -11.85,-23.3 -23.95,-23.3C-36.05,-23.3 -48.65,-12.6 -48.65,-0.5V34Z"/>
          <path
             d="m 0,0 c 0.017,-11.988 -11.846,-22.319 -23.963,-22.356 -7.145,-0.017 -14.138,3.562 -18.709,8.929 l 7.444,8.107 c 0.025,0.101 0.559,2.773 0.456,3.34 -0.684,-0.368 -2.843,-2.576 -3,-2.45 -0.157,0.137 3.893,12.179 4.182,12.127 0.291,-0.053 -1.998,-7.759 -2.233,-8.732 0.417,0.107 0.497,0.658 0.789,0.894 0.203,0.172 0.365,-0.37 0.787,-0.316 0.421,0.057 0.685,0.266 0.525,0.788 -0.157,0.529 -0.685,0.265 -0.788,0.735 0.42,1.294 1.878,3.765 3.447,5.947 1.37,1.903 2.903,3.623 2.89,3.709 -0.025,0.184 -1.26,0.855 -2.496,1.658 -0.894,0.577 -1.45,1.05 -1.631,1.574 -0.133,0.343 -0.156,0.555 -0.213,1.162 -0.262,-0.134 -1.16,-1.192 -1.577,-1.504 -0.602,-0.446 -1.366,-0.025 -1.366,-0.025 0,0 0.262,-2.417 0.05,-3.522 -0.208,-1.107 -1.315,-1.946 -1.315,-1.946 0,0 -0.497,-3.288 -0.737,-4.394 -0.197,-0.938 -0.632,-2.311 -1.575,-4.315 -0.841,-1.786 -1.098,-1.943 -1.213,-1.866 -0.258,0.185 -0.627,2.288 -0.655,3.08 0.262,0.523 2.025,3.759 2.184,6.546 -0.579,0.211 -2.814,-1.261 -3.446,-3.26 -0.998,-2.606 -0.499,-5.522 -0.656,-6.785 -0.871,0.604 -2.385,3.445 -3.081,5.965 -0.364,1.345 -0.84,3.817 -0.812,5.104 0.033,1.579 1.919,6.5 2.315,6.838 1.389,1.209 4.523,2.608 5.521,2.45 1.003,-0.157 1.131,-0.633 1.366,-0.528 0.238,0.106 0.052,0.578 0.317,1.057 0.263,0.471 0.579,0.729 1.473,0.471 0.893,-0.264 2.735,-1.528 3.207,-1.528 0.475,0 0.579,0.106 0.95,0.264 0.368,0.158 1.02,0.278 1.496,-0.369 0.976,-1.317 2.5,-4.761 2.921,-4.784 0.209,0.287 0.341,0.494 0.551,0.684 -0.185,0.443 -2.41,7.07 -2.709,7.149 -1.445,0.394 -8.861,1.895 -9.806,2.343 -0.108,0.343 0.814,0.501 0.894,0.657 0.078,0.159 -0.843,1.052 -0.817,1.316 0.446,0 10.363,-3 10.729,-3.26 0.316,-0.213 2.264,-7.102 2.422,-7.314 0.155,-0.21 0.602,0.424 0.63,0.683 0.028,0.266 -1.315,6.996 -1.394,7.18 -0.078,0.187 -7.941,4.156 -8.046,4.368 0.445,0.209 0.97,0 1.102,0.129 0.133,0.132 -0.315,1.001 -0.158,1.474 0.158,0.026 7.26,-4.206 8.181,-5.103 0.209,-0.556 0.951,-6.776 1.158,-7.153 0.157,-0.291 0.522,0.475 0.866,0.737 0.052,0.763 -0.316,6.704 -0.552,7.152 -0.735,0.5 -6.259,4.76 -6.287,5.025 0.634,-0.028 1.631,-0.445 1.737,-0.236 0.105,0.208 -0.053,1.078 0.105,1.391 0.499,-0.182 4.76,-5.1 5.392,-5.808 0.237,-0.475 0.314,-6.683 0.474,-6.734 0.158,-0.052 0.552,0.209 0.737,0.58 0.18,0.365 0.5,5.996 0.26,6.518 -0.236,0.527 -3.969,4.709 -4.102,5.052 -0.13,0.339 1.471,-0.556 1.628,-0.476 0.164,0.082 -0.101,1.552 0.164,1.343 0.258,-0.21 3.245,-4.698 3.364,-5.339 0.183,-0.973 -0.685,-5.1 -0.554,-5.891 0.021,-0.172 -0.099,-0.615 0.185,-0.521 0.369,0.416 1.487,0.95 2.102,1.176 0.028,1.397 1.055,1.767 1.999,1.871 0.316,0.84 1.079,1.892 2.474,1.922 0.5,0.943 1.157,1.73 2.42,1.605 0.368,1.05 0.524,1.415 1.575,1.68 0.398,0.022 -0.101,3.654 0.106,4.547 0.326,1.38 1.763,0.685 2.131,0.371 0.814,0.735 2.445,0.605 2.527,-1.052 1.099,0.367 1.945,-0.027 2.353,-0.686 L 0,33.049 0,0 z m -49.21,34.503 c 0,0 0.025,-34.753 0.025,-34.776 -0.004,-12.563 12.378,-23.572 25.222,-23.537 12.754,0.033 25.243,10.908 25.223,23.534 l 0,34.779 -50.47,0"
             style="fill:#006bb6;fill-opacity:1;fill-rule:nonzero;stroke:none"
             id="path3005" />
        </g>
      </g>
    </g>
    <g
       id="g3007"
       transform="matrix(13.881867,0,0,-14.260908,254.45858,673.12839)">
      <path
         d="m 0,0 c 0,0 -2.247,-3.616 -2.142,-3.792 1.106,0.325 9.496,4.535 12.728,6.384 -0.155,0.042 -9.605,-3.787 -9.605,-3.787 0,0 0.603,0.629 1.558,1.333 C 2.62,0.4 2.223,0.283 1.988,0.529 1.755,0.778 1.685,1.19 2.068,1.455 2.403,1.753 2.855,1.582 3.039,1.345 3.249,1.165 3.275,0.614 3.604,0.726 c 3.247,2.396 8.463,6.3 9.44,7.374 0.488,0.452 1.723,-4.154 2.227,-4.884 0.29,-0.528 0.867,-0.793 1.604,-0.711 0.5,0.103 -0.214,-2.051 -0.056,-2.997 0.132,-0.561 0.607,-0.502 0.578,-0.765 -0.022,-0.37 -0.508,-0.316 -1.208,-0.686 -0.765,-0.396 -1.79,-1.074 -2.365,-1.681 -4.603,0.08 -11.408,-0.551 -16.032,-4.443 2.092,0.234 3.483,0.419 5.748,-0.453 1.145,0.422 5.338,1.793 8.757,1.294 -0.918,-2.7633 -3.547,-2.7096 -5.153,-1.92 -1.002,-1.553 -3.393,-1.659 -6.069,-0.862 -0.655,-0.448 -2.234,-0.762 -3.356,0.5714 -1.156,0 -2.351,0.2816 -2.418,-0.0703 0.524,-1.2631 2.171,-2.9451 3.261,-3.7151 3.015,-2.174 5.572,-3.013 9.115,-3.297 5.304,-0.105 8.952,1.09 11.092,2.946 2.173,1.929 4.863,4.2448 4.231,8.135 -0.141,0.699 -0.605,2.208 -0.973,2.81 -0.341,0.661 -1.313,1.135 -1.155,1.398 0.314,0.157 0.618,0.733 0.656,0.918 0.161,0.792 -2.62,3.446 -2.548,3.6 0.312,0.69 0.47,1.821 0.047,2.264 -0.813,0.842 -4.603,3.53 -4.624,3.736 0.05,0.183 0.243,0.258 0.341,0.37 0.048,0.054 6.521,-1.605 6.971,-1.766 0.294,-0.739 3.574,-10.622 3.758,-10.751 0.343,-0.057 0.211,1.366 0.71,1.708 0.421,-0.133 1.063,-1.094 1.657,-1.129 -0.287,0.707 -4.341,10.964 -4.864,11.362 -1.736,0.337 -7.443,1.181 -7.443,1.523 0.118,0.148 0.331,0.349 0.447,0.499 0.369,0.029 6.02,-0.738 7.469,-0.972 0.787,-0.764 4.155,-7.362 4.995,-8.362 0.239,0.208 0,1.286 0.369,1.945 0.579,-0.082 1.328,-0.532 1.633,-0.527 -0.527,1.262 -6.116,8.275 -6.05,8.336 -1.343,0.29 -7.521,0.473 -7.498,0.71 0.121,0.171 0.182,0.384 0.291,0.553 0.29,0.132 6.942,-0.107 7.784,-0.131 0.387,-0.34 3.603,-3.448 4.759,-4.575 0.292,0.075 0.081,0.916 0.187,1.05 0.155,0.103 0.764,-0.049 0.891,0.052 -0.997,1.338 -4.599,4.524 -5.337,5.024 -5.128,-0.129 -7.458,-0.569 -7.598,-0.213 0.075,0.135 0.111,0.294 0.181,0.423 0.316,0.105 6.497,0.892 7.47,0.946 0.868,-0.525 3.707,-3.366 4.92,-4.259 0.314,0.052 -0.135,0.816 -0.106,1.472 0.393,0.159 1.093,0.211 1.102,0.237 -1.394,1.079 -4.547,3.681 -5.39,4.052 -0.585,0.106 -5.548,-1.106 -7.046,-1.236 -0.265,-0.057 -0.37,0 -0.358,0.178 0.141,0.365 0.31,0.61 0.329,0.843 0.816,0.215 1.5,0.321 1.607,1.824 1.366,0.528 1.366,1.157 1.574,2.071 1.159,0.35 1.579,1.266 1.613,2.316 1.233,0.41 1.472,1.075 1.37,2.032 1.192,0.211 1.507,1.192 1.543,2.176 1.717,0.031 3.156,0.031 4.208,0.069 0.646,0.022 0.972,0.89 0.84,1.541 -0.14,0.705 -0.384,0.88 -0.735,1.336 0.388,0.452 0.281,1.224 -0.035,1.715 -0.314,0.494 -0.774,0.774 -1.298,0.915 0.093,0.453 0.005,0.91 -0.231,1.286 L -2.49,-0.835 -2.49,-0.844 0,0"
         style="fill:#006bb6;fill-opacity:1;fill-rule:nonzero;stroke:none"
         id="path3009" />
    </g>
  </g>
</svg>