<?xml version="1.0" encoding="UTF-8" standalone="no"?>
<!-- Created with Inkscape (http://www.inkscape.org/) -->
<svg
   xmlns:dc="http://purl.org/dc/elements/1.1/"
   xmlns:cc="http://web.resource.org/cc/"
   xmlns:rdf="http://www.w3.org/1999/02/22-rdf-syntax-ns#"
   xmlns:svg="http://www.w3.org/2000/svg"
   xmlns="http://www.w3.org/2000/svg"
   version="1.0"
   width="251"
   height="304.20001"
   id="svg4166">
  <defs
     id="defs4168" />
  <metadata
     id="metadata1880"><rdf:RDF><cc:Work
         rdf:about=""><dc:title>Vasteras kommunvapen</dc:title><dc:date>09-11-2007</dc:date><dc:creator><cc:Agent><dc:title>Lokal_Profil</dc:title></cc:Agent></dc:creator><cc:license
         rdf:resource="http://creativecommons.org/licenses/by-sa/2.5/" /><dc:rights><cc:Agent><dc:title>cc-by-sa-2.5</dc:title></cc:Agent></dc:rights><dc:format>image/svg+xml</dc:format><dc:type
         rdf:resource="http://purl.org/dc/dcmitype/StillImage" /></cc:Work><cc:License
         rdf:about="http://creativecommons.org/licenses/by-sa/2.5/"><cc:permits
         rdf:resource="http://web.resource.org/cc/Reproduction" /><cc:permits
         rdf:resource="http://web.resource.org/cc/Distribution" /><cc:requires
         rdf:resource="http://web.resource.org/cc/Notice" /><cc:requires
         rdf:resource="http://web.resource.org/cc/Attribution" /><cc:permits
         rdf:resource="http://web.resource.org/cc/DerivativeWorks" /><cc:requires
         rdf:resource="http://web.resource.org/cc/ShareAlike" /></cc:License></rdf:RDF>
  </metadata>
  <path
     d="M 249.55058,1.4395041 L 125.50008,1.4395041 L 1.4495291,1.4395041 L 1.4495291,174.9361 C 0.68228908,268.65698 81.738969,302.75585 125.50006,302.75585 C 168.49391,302.75585 250.31781,268.65698 249.55058,174.9361 L 249.55058,1.4395041 z "
     style="fill:#eeeeee"
     id="Shield" />
  <path
     d="M 60.941123,241.00551 L 71.595369,94.72342 L 125.99355,141.04339 L 180.39167,94.72342 L 190.05887,241.00551 L 222.54656,193.52349 L 192.55792,59.407647 C 192.55792,59.407647 222.54659,64.405746 229.21071,67.737824 L 226.71165,27.752972 L 22.622305,27.752972 L 21.789286,67.737824 C 29.278904,64.693469 60.108113,59.407647 60.108113,59.407647 L 30.119475,193.52349 L 60.941123,241.00551 z M 125.99355,122.717 L 178.06761,69.403855 L 177.56359,56.075576 C 177.56359,56.075576 144.58745,52.039166 126.05283,52.039166 C 106.68516,52.039166 73.43639,56.075576 73.43639,56.075576 L 72.603361,69.403855 L 125.99355,122.717 z "
     style="fill:#003d8f;fill-rule:evenodd"
     id="Mariamonogram" />
  <g
     transform="matrix(0.557005,0,0,0.557088,69.90246,188.8842)"
     style="fill:#d40000;stroke:#eeeeee;stroke-width:12.90794182"
     id="Rose">
    <g
       transform="matrix(0.202004,0,0,0.202004,3.621935,3.232137)"
       id="g1987">
      <path
         d="M 958.88576,534.1952 C 918.34503,512.64668 854.11258,466.46773 815.85202,413.6085 L 640.73197,418.82365 L 622.9093,473.19325 L 784.13742,555.90986 C 863.50331,539.78935 912.55641,525.49956 958.88576,534.1952 z "
         id="path1989" />
      <path
         d="M 477.11695,861.46416 C 485.73574,816.36864 510.89231,741.36564 550.0993,689.20452 L 493.41445,523.43041 L 436.20651,522.45421 L 404.77784,700.91647 C 443.61161,771.98513 471.74678,814.63272 477.11695,861.46416 z "
         id="path1991" />
      <path
         d="M -6.4972249,543.54344 C 39.250725,539.66852 118.26022,543.64375 179.06884,567.314 L 323.38601,467.9823 L 308.88245,412.63478 L 128.56162,430.54955 C 70.614834,487.12681 37.145806,525.7303 -6.4972249,543.54344 z "
         id="path1993" />
      <path
         d="M 783.0214,-3.3986519 C 745.20742,22.639648 674.61359,58.344157 610.06725,67.922193 L 533.94945,225.72052 L 573.97683,266.60463 L 721.71593,161.67754 C 744.00586,83.818848 753.94344,33.702483 783.0214,-3.3986519 z "
         id="path1995" />
      <path
         d="M 173.93747,1.1991465 C 194.80056,42.096837 220.95473,116.75781 221.99914,182.00257 L 368.4728,278.12591 L 414.24582,243.79615 L 329.56574,83.590581 C 255.29577,51.298365 206.91199,34.884499 173.93747,1.1991465 z "
         id="path1997" />
    </g>
    <g
       transform="matrix(0.202004,0,0,0.202004,3.621935,3.232137)"
       id="g1999">
      <path
         d="M 375.28848,14.554492 C 342.60293,14.256859 315.9355,29.037092 300.10098,70.866992 C 293.11244,107.63816 290.15926,142.4047 306.85098,167.33574 C 367.46669,264.19954 399.45476,299.40382 439.19473,351.30449 C 449.86602,295.00523 462.19673,248.64352 466.69473,155.30449 C 471.19272,248.64371 483.52343,295.00518 494.19473,351.30449 C 539.16262,290.40302 584.87863,229.87561 626.56973,167.33574 C 643.26142,142.4047 640.27702,107.63816 633.28848,70.866992 C 613.79981,19.384038 577.90903,8.8795886 534.56973,17.023242 C 510.874,23.402867 493.71837,33.478106 467.28848,32.741992 L 467.23513,32.745727 L 466.14138,32.745727 L 466.13223,32.741992 C 439.70234,33.478106 422.5155,23.402867 398.81973,17.023242 C 390.69361,15.496307 382.8313,14.623176 375.28848,14.554492 z "
         id="path2001" />
      <path
         d="M 466.69473,155.30449 C 462.19673,248.64352 449.86602,295.00523 439.19473,351.30449 C 439.03915,351.1013 438.88132,350.91342 438.72598,350.71074 L 438.78848,351.89824 L 493.75723,351.89824 L 493.88223,349.67949 C 483.28343,294.11178 471.1491,247.73847 466.69473,155.30449 z "
         id="path2003" />
      <path
         d="M 82.133441,367.21177 C 72.200069,398.3528 78.449194,428.19499 113.74044,455.67231 C 146.8098,473.20451 179.15514,486.2894 207.90261,477.70138 C 318.34376,448.38194 361.42223,428.212 422.74141,405.56453 C 372.10143,378.74888 331.44598,353.2814 243.59454,321.42952 C 334.10184,344.68638 382.03728,346.59143 438.9778,353.01566 C 394.0653,292.07327 349.73104,230.52652 302.28583,172.23122 C 283.39337,148.92359 249.29522,141.51166 212.09972,137.33365 C 157.15797,140.75566 136.52645,171.94594 131.51311,215.75784 C 130.61327,240.28086 135.17504,259.64621 126.66944,284.68092 L 126.65726,284.733 L 126.33438,285.778 L 126.32811,285.78564 C 119.22913,311.25497 104.52923,324.70158 91.438758,345.45801 C 87.580985,352.77122 84.425757,360.02538 82.133441,367.21177 z "
         id="path2005" />
      <path
         d="M 243.59454,321.42952 C 331.44598,353.2814 372.10143,378.74888 422.74141,405.56453 C 422.50135,405.65319 422.27525,405.74852 422.03575,405.83711 L 423.18877,406.12795 L 439.41593,353.60894 L 437.33297,352.83452 C 381.11285,346.557 333.22407,344.46082 243.59454,321.42952 z "
         id="path2007" />
      <path
         d="M 768.51025,631.01874 C 794.60301,611.33117 806.7342,583.35905 793.7895,540.54661 C 776.91573,507.13654 758.06487,477.77539 729.63584,468.18587 C 622.53955,428.34584 575.72233,419.93615 512.58252,403.01564 C 538.44017,454.15135 556.92488,498.42061 610.254,575.15651 C 549.79323,503.90397 511.75842,474.6673 468.98149,436.54094 C 470.45593,512.23056 471.10929,588.07967 476.18008,663.07075 C 478.14455,693.00917 501.7024,718.75106 529.65644,743.64139 C 576.48749,772.57495 611.34276,759.02505 640.73584,726.15169 C 655.63183,706.65051 663.09052,688.20618 684.49141,672.67936 L 684.53142,672.64388 L 685.39849,671.97718 L 685.40802,671.97457 C 705.91151,655.28065 725.67768,652.7915 748.35111,643.40514 C 755.72381,639.66233 762.48884,635.56202 768.51025,631.01874 z "
         id="path2009" />
      <path
         d="M 610.254,575.15651 C 556.92488,498.42061 538.44017,454.15135 512.58252,403.01564 C 512.82971,403.08188 513.06935,403.13462 513.31604,403.20061 L 512.54266,402.29732 L 468.9664,435.80357 L 470.21975,437.63867 C 512.49326,475.22924 550.3796,504.59501 610.254,575.15651 z "
         id="path2011" />
      <path
         d="M 333.06752,750.21685 C 360.0292,768.69666 390.40686,771.30539 426.88261,745.42112 C 453.19466,718.8009 475.03929,691.59341 475.09296,661.59061 C 478.8173,547.38463 471.90627,500.32277 467.87512,435.07938 C 427.6133,475.85281 391.51763,507.45281 335.71772,582.41138 C 384.05143,502.43448 399.67897,457.07794 422.22732,404.39906 C 350.93347,429.86068 279.22737,454.59452 209.73919,483.24381 C 181.97862,494.62455 165.06194,525.14416 150.35031,559.56114 C 137.8067,613.16118 161.73497,641.90019 202.24759,659.31698 C 225.4728,667.2402 245.3315,668.44797 266.85663,683.80215 L 266.90299,683.82881 L 267.81076,684.43893 L 267.81627,684.44713 C 290.16264,698.57941 298.80682,716.52869 314.91466,735.04159 C 320.80725,740.84183 326.8456,745.95228 333.06752,750.21685 z "
         id="path2013" />
      <path
         d="M 335.71772,582.41138 C 391.51763,507.45281 427.6133,475.85281 467.87512,435.07938 C 467.89091,435.33481 467.91709,435.57878 467.93296,435.83365 L 468.5435,434.81321 L 422.92164,404.15032 L 421.58022,405.92207 C 399.3798,457.95331 383.58266,503.21012 335.71772,582.41138 z "
         id="path2015" />
      <path
         d="M 795.29394,182.52692 C 785.11301,151.46601 762.57405,130.93309 717.87649,129.32186 C 680.80313,134.47181 646.92067,142.80307 628.64465,166.5971 C 556.2814,255.03009 533.1692,296.60412 496.72063,350.86679 C 553.47339,342.95471 601.3427,339.79583 691.21008,314.17857 C 604.22221,348.31851 564.24744,374.84105 514.32657,402.97269 C 586.41799,426.07932 658.3945,450.01445 730.98918,469.49225 C 759.95149,477.325 791.93329,463.36859 824.53247,444.97704 C 867.06791,410.03376 865.53069,372.66899 843.9423,334.21705 C 830.31318,313.81036 815.27644,300.78263 807.51341,275.50784 L 807.49279,275.45849 L 807.14267,274.4223 L 807.14328,274.41243 C 797.98548,249.60892 802.02892,230.10129 800.48764,205.61022 C 799.33299,197.42291 797.64339,189.69482 795.29394,182.52692 z "
         id="path2017" />
      <path
         d="M 691.21008,314.17857 C 601.3427,339.79583 553.47339,342.95471 496.72063,350.86679 C 496.86333,350.65435 496.9908,350.44469 497.13309,350.23264 L 496.02808,350.67198 L 513.62402,402.74827 L 515.76603,402.15646 C 565.01701,374.3277 605.06586,347.98741 691.21008,314.17857 z "
         id="path2021" />
    </g>
    <path
       d="M 614.68782,409.418 C 614.70792,480.67366 555.44254,538.44817 482.32804,538.44817 C 409.21353,538.44817 349.94815,480.67366 349.96825,409.418 C 349.94815,338.16234 409.21353,280.38783 482.32804,280.38783 C 555.44254,280.38783 614.70792,338.16234 614.68782,409.418 L 614.68782,409.418 z "
       transform="matrix(0.191604,0,0,0.191604,5.808093,3.468148)"
       id="path2023" />
  </g>
  <path
     d="M 249.55062,1.4395041 L 125.50012,1.4395041 L 1.449569,1.4395041 L 1.449569,174.9361 C 0.68232904,268.65698 81.739009,302.75585 125.5001,302.75585 C 168.49395,302.75585 250.31785,268.65698 249.55062,174.9361 L 249.55062,1.4395041 z "
     style="fill:none;fill-opacity:0;stroke:#000000;stroke-width:1.88832211;stroke-linecap:round"
     id="Frame" />
</svg>
